{
.appVersion = "3108";
.formatVersion = 3;
DisplayStrings = (
"Oprichniki
Alina Starkov
Malyen Oretsev
Ana Kuya 

 

",
"Iym ashog ne pazad sho Os 
Alta. Vyon alost tsuruwanya

Alina Starkov 
Malyen Oretsev
Zoya Nazyalenski



",
" «Reißfeste Öltuchjacken!»
",
"/a_cap_ravkan/period.ravkan/a_cap_ravkan/colon.ravkan/a_cap_ravkan/exclam.ravkan/a_cap_ravkan/question.ravkan     ",
"Alina Starkov, Novokribirsk, Ravka. 
"
);
axes = (
{
name = Weight;
tag = wght;
},
{
name = Width;
tag = wdth;
}
);
classes = (
{
code = "zero.ravkan one.ravkan two.ravkan three.ravkan four.ravkan five.ravkan six.ravkan seven.ravkan eight.ravkan nine.ravkan period.ravkan comma.ravkan colon.ravkan semicolon.ravkan ellipsis.ravkan exclam.ravkan exclamdown.ravkan question.ravkan questiondown.ravkan periodcentered.ravkan bullet.ravkan asterisk.ravkan slash.ravkan backslash.ravkan hyphen.ravkan endash.ravkan emdash.ravkan underscore.ravkan parenleft.ravkan parenright.ravkan quotedblleft.ravkan quotedblright.ravkan quoteleft.ravkan quoteright.ravkan quotedbl.ravkan quotesingle.ravkan bar.ravkan tilde.ravkan plus.ravkan equal.ravkan minus.ravkan parenleft.ravkan parenright.ravkan bracketleft.ravkan bracketright.ravkan 
";
name = PunctuationRavkan;
},
{
code = "zero one two three four five six seven eight nine period comma colon semicolon ellipsis exclam exclamdown question questiondown periodcentered bullet asterisk slash backslash hyphen endash emdash underscore parenleft parenright quotedblleft quotedblright quoteleft quoteright quotedbl quotesingle bar tilde plus equal minus parenleft parenright bracketleft bracketright 
";
name = PunctuationLatin;
}
);
customParameters = (
{
name = panose;
value = (
0,
0,
0,
0,
0,
0,
0,
0,
0,
0
);
},
{
name = unicodeRanges;
value = (
0,
1,
5,
9,
31,
33,
38
);
},
{
name = codePageRanges;
value = (
1252,
1250,
1251
);
},
{
name = fsType;
value = (
);
}
);
date = "2021-12-17 16:16:45 +0000";
familyName = "Ravkan Book";
featurePrefixes = (
{

glyphs = (
{
glyphname = A;
kernLeft = uni042F;
kernRight = uni0410;
lastChange = "2021-12-13 00:11:01 +0000";
layers = (
{
anchors = (
{
name = bottom;
pos = (1071,0);
},
{
name = ogonek;
pos = (1927,10);
},
{
name = top;
pos = (1071,1850);
}
);
layerId = "E4BC606E-CD30-42C5-8BF2-1DD2ABB89119";
shapes = (
{
closed = 1;
nodes = (
(934,0,l),
(934,79,l),
(764,79,o),
(740,141,o),
(740,494,cs),
(740,1380,ls),
(740,1672,o),
(804,1740,o),
(1070,1740,cs),
(1337,1740,o),
(1401,1672,o),
(1401,1380,cs),
(1401,494,ls),
(1401,141,o),
(1377,79,o),
(1207,79,c),
(1207,0,l),
(2081,0,l),
(2081,79,l),
(1885,79,o),
(1851,141,o),
(1851,494,cs),
(1851,1380,ls),
(1851,1702,o),
(1710,1850,o),
(1401,1850,cs),
(740,1850,ls),
(431,1850,o),
(290,1702,o),
(290,1380,cs),
(290,494,ls),
(290,141,o),
(256,79,o),
(60,79,c),
(60,0,l)
);
},
{
closed = 1;
nodes = (
(1538,764,l),
(1538,884,l),
(616,884,l),
(616,764,l)
);
}
);
userData = {
assembly = "PUSHW[ ]	/* 1 value pushed */
0 
CALL[ ]	/* CallFunction */
SVTCA[0]	/* SetFreedomAndProjectionVectorToAxis */
PUSHW[ ]	/* 1 value pushed */
0 
RCVT[ ]	/* ReadCVT */
IF[ ]	/* If */
PUSHW[ ]	/* 1 value pushed */
8 
MDAP[1]	/* MoveDirectAbsPt */
ELSE[ ]	/* Else */
PUSHW[ ]	/* 2 values pushed */
8 7 
MIAP[0]	/* MoveIndirectAbsPt */
EIF[ ]	/* EndIf */
PUSHW[ ]	/* 1 value pushed */
0 
RCVT[ ]	/* ReadCVT */
IF[ ]	/* If */
PUSHW[ ]	/* 1 value pushed */
18 
MDAP[1]	/* MoveDirectAbsPt */
ELSE[ ]	/* Else */
PUSHW[ ]	/* 2 values pushed */
18 1 
MIAP[0]	/* MoveIndirectAbsPt */
EIF[ ]	/* EndIf */
PUSHW[ ]	/* 1 value pushed */
0 
RCVT[ ]	/* ReadCVT */
IF[ ]	/* If */
PUSHW[ ]	/* 1 value pushed */
25 
MDAP[1]	/* MoveDirectAbsPt */
ELSE[ ]	/* Else */
PUSHW[ ]	/* 2 values pushed */
25 1 
MIAP[0]	/* MoveIndirectAbsPt */
EIF[ ]	/* EndIf */
PUSHW[ ]	/* 1 value pushed */
0 
RCVT[ ]	/* ReadCVT */
IF[ ]	/* If */
PUSHW[ ]	/* 1 value pushed */
32 
MDAP[1]	/* MoveDirectAbsPt */
ELSE[ ]	/* Else */
PUSHW[ ]	/* 2 values pushed */
32 1 
MIAP[0]	/* MoveIndirectAbsPt */
EIF[ ]	/* EndIf */
PUSHW[ ]	/* 3 values pushed */
35 46 3 
CALL[ ]	/* CallFunction */
PUSHW[ ]	/* 1 value pushed */
32 
SRP0[ ]	/* SetRefPoint0 */
PUSHW[ ]	/* 1 value pushed */
0 
MDRP[11100]	/* MoveDirectRelPt */
PUSHW[ ]	/* 1 value pushed */
17 
MDRP[10000]	/* MoveDirectRelPt */
PUSHW[ ]	/* 1 value pushed */
8 
SRP0[ ]	/* SetRefPoint0 */
PUSHW[ ]	/* 1 value pushed */
38 
MDRP[11100]	/* MoveDirectRelPt */
NPUSHW[ ]	/* 5 values pushed */
217 38 233 38 2 
DELTAP1[ ]	/* DeltaExceptionP1 */
NPUSHW[ ]	/* 27 values pushed */
8 38 24 38 40 38 56 38 72 38 88 38 104 38 120 38 136 38 152 38 168 38 184 38 200 38 13 
DELTAP1[ ]	/* DeltaExceptionP1 */
PUSHW[ ]	/* 1 value pushed */
17 
SRP0[ ]	/* SetRefPoint0 */
PUSHW[ ]	/* 1 value pushed */
43 
MDRP[10000]	/* MoveDirectRelPt */
IUP[0]	/* InterpolateUntPts */
IUP[1]	/* InterpolateUntPts */";
};
width = 2141;
},
{
associatedMasterId = "E4BC606E-CD30-42C5-8BF2-1DD2ABB89119";
layerId = "E389A5C2-11C0-44CB-BC42-14093034D3F5";
name = "11 Dec 21, 17:35";
shapes = (
{
closed = 1;
nodes = (
(431,1850,o),
(290,1702,o),
(290,1380,cs),
(290,430,ls),
(290,185,o),
(227,80,o),
(80,80,c),
(80,0,l),
(380,0,ls),
(695,0,o),
(740,44,o),
(740,350,cs),
(740,1380,ls),
(740,1672,o),
(797,1740,o),
(1040,1740,cs),
(1284,1740,o),
(1341,1672,o),
(1341,1380,cs),
(1341,350,ls),
(1341,44,o),
(1386,0,o),
(1701,0,cs),
(2001,0,l),
(2001,80,l),
(1854,80,o),
(1791,185,o),
(1791,430,cs),
(1791,1380,ls),
(1791,1702,o),
(1650,1850,o),
(1341,1850,cs),
(740,1850,ls)
);
},
{
closed = 1;
nodes = (
(1478,764,l),
(1478,884,l),
(616,884,l),
(616,764,l)
);
}
);
userData = {
assembly = "PUSHW[ ]	/* 1 value pushed */
0 
CALL[ ]	/* CallFunction */
SVTCA[0]	/* SetFreedomAndProjectionVectorToAxis */
PUSHW[ ]	/* 1 value pushed */
0 
RCVT[ ]	/* ReadCVT */
IF[ ]	/* If */
PUSHW[ ]	/* 1 value pushed */
8 
MDAP[1]	/* MoveDirectAbsPt */
ELSE[ ]	/* Else */
PUSHW[ ]	/* 2 values pushed */
8 7 
MIAP[0]	/* MoveIndirectAbsPt */
EIF[ ]	/* EndIf */
PUSHW[ ]	/* 1 value pushed */
0 
RCVT[ ]	/* ReadCVT */
IF[ ]	/* If */
PUSHW[ ]	/* 1 value pushed */
18 
MDAP[1]	/* MoveDirectAbsPt */
ELSE[ ]	/* Else */
PUSHW[ ]	/* 2 values pushed */
18 1 
MIAP[0]	/* MoveIndirectAbsPt */
EIF[ ]	/* EndIf */
PUSHW[ ]	/* 1 value pushed */
0 
RCVT[ ]	/* ReadCVT */
IF[ ]	/* If */
PUSHW[ ]	/* 1 value pushed */
25 
MDAP[1]	/* MoveDirectAbsPt */
ELSE[ ]	/* Else */
PUSHW[ ]	/* 2 values pushed */
25 1 
MIAP[0]	/* MoveIndirectAbsPt */
EIF[ ]	/* EndIf */
PUSHW[ ]	/* 1 value pushed */
0 
RCVT[ ]	/* ReadCVT */
IF[ ]	/* If */
PUSHW[ ]	/* 1 value pushed */
32 
MDAP[1]	/* MoveDirectAbsPt */
ELSE[ ]	/* Else */
PUSHW[ ]	/* 2 values pushed */
32 1 
MIAP[0]	/* MoveIndirectAbsPt */
EIF[ ]	/* EndIf */
PUSHW[ ]	/* 3 values pushed */
35 46 3 
CALL[ ]	/* CallFunction */
PUSHW[ ]	/* 1 value pushed */
32 
SRP0[ ]	/* SetRefPoint0 */
PUSHW[ ]	/* 1 value pushed */
0 
MDRP[11100]	/* MoveDirectRelPt */
PUSHW[ ]	/* 1 value pushed */
17 
MDRP[10000]	/* MoveDirectRelPt */
PUSHW[ ]	/* 1 value pushed */
8 
SRP0[ ]	/* SetRefPoint0 */
PUSHW[ ]	/* 1 value pushed */
38 
MDRP[11100]	/* MoveDirectRelPt */
NPUSHW[ ]	/* 5 values pushed */
217 38 233 38 2 
DELTAP1[ ]	/* DeltaExceptionP1 */
NPUSHW[ ]	/* 27 values pushed */
8 38 24 38 40 38 56 38 72 38 88 38 104 38 120 38 136 38 152 38 168 38 184 38 200 38 13 
DELTAP1[ ]	/* DeltaExceptionP1 */
PUSHW[ ]	/* 1 value pushed */
17 
SRP0[ ]	/* SetRefPoint0 */
PUSHW[ ]	/* 1 value pushed */
43 
MDRP[10000]	/* MoveDirectRelPt */
IUP[0]	/* InterpolateUntPts */
IUP[1]	/* InterpolateUntPts */";
};
width = 2081;
}
);
note = A;
unicode = 65;
},
{
glyphname = AE;
lastChange = "2021-12-13 00:16:51 +0000";
layers = (
{
anchors = (
{
name = bottom;
pos = (1609,0);
},
{
name = top;
pos = (1597,1850);
}
);
background = {
shapes = (
{
closed = 0;
nodes = (
(1401,1850,l),
(740,1850,ls),
(431,1850,o),
(290,1702,o),
(290,1380,cs),
(290,494,ls),
(290,141,o),
(256,79,o),
(60,79,c),
(60,0,l),
(934,0,l),
(934,79,l),
(764,79,o),
(740,141,o),
(740,494,cs),
(740,1380,ls),
(740,1672,o),
(804,1740,o),
(1070,1740,cs),
(1337,1740,o),
(1401,1672,o),
(1401,1380,cs),
(1401,494,ls),
(1401,141,o),
(1377,79,o),
(1207,79,c),
(1207,0,l),
(2081,0,l),
(2081,79,l),
(1885,79,o),
(1851,141,o),
(1851,494,cs),
(1851,1380,ls)
);
},
{
closed = 1;
nodes = (
(1538,764,l),
(1538,884,l),
(616,884,l),
(616,764,l)
);
},
{
closed = 1;
nodes = (
(3802,0,l),
(3752,570,l),
(3652,570,l),
(3618,264,o),
(3485,120,o),
(3185,120,cs),
(3000,120,o),
(2961,175,o),
(2961,493,cs),
(2961,1357,ls),
(2961,1675,o),
(3000,1730,o),
(3185,1730,cs),
(3485,1730,o),
(3618,1586,o),
(3652,1280,c),
(3752,1280,l),
(3802,1850,l),
(2221,1850,l),
(2221,1771,l),
(2476,1771,o),
(2521,1709,o),
(2521,1357,cs),
(2521,494,ls),
(2521,141,o),
(2476,79,o),
(2221,79,c),
(2221,0,l)
);
},
{
closed = 1;
nodes = (
(3489,854,l),
(3489,994,l),
(2597,994,l),
(2597,854,l)
);
}
);
};
layerId = "E4BC606E-CD30-42C5-8BF2-1DD2ABB89119";
shapes = (
{
closed = 1;
nodes = (
(740,1850,ls),
(429,1850,o),
(290,1702,o),
(290,1380,cs),
(290,494,ls),
(290,141,o),
(256,79,o),
(60,79,c),
(60,0,l),
(934,0,l),
(934,79,l),
(764,79,o),
(740,141,o),
(740,494,cs),
(740,1380,ls),
(740,1672,o),
(804,1740,o),
(1070,1740,cs),
(1317,1740,o),
(1381,1672,o),
(1381,1380,cs),
(1381,494,ls),
(1381,141,o),
(1357,79,o),
(1187,79,c),
(1187,0,l),
(2628,0,l),
(2578,570,l),
(2478,570,l),
(2444,264,o),
(2311,120,o),
(2051,120,cs),
(1866,120,o),
(1827,175,o),
(1827,493,cs),
(1827,1357,ls),
(1827,1675,o),
(1866,1730,o),
(2051,1730,cs),
(2311,1730,o),
(2444,1586,o),
(2478,1280,c),
(2578,1280,l),
(2628,1850,l)
);
},
{
closed = 1;
nodes = (
(2315,834,l),
(2315,974,l),
(583,974,l),
(583,834,l)
);
}
);
width = 2733;
}
);
metricLeft = A;
metricRight = E;
unicode = 198;
},
{
glyphname = B;
kernLeft = uni0412;
kernRight = uni041E;
lastChange = "2021-12-11 15:25:24 +0000";
layers = (
{
anchors = (
{
name = bottom;
pos = (1079,0);
},
{
name = center;
pos = (597,925);
},
{
name = top;
pos = (1079,1850);
}
);
background = {
shapes = (
{
closed = 1;
nodes = (
(1730,1404,l),
(1625,1404,l),
(1625,1694,o),
(1455,1850,o),
(1160,1850,cs),
(720,1850,ls),
(428,1850,o),
(260,1710,o),
(260,1450,cs),
(260,1270,ls),
(260,1010,o),
(428,870,o),
(720,870,cs),
(1280,870,ls),
(1573,870,o),
(1730,1010,o),
(1730,1270,cs)
);
},
{
closed = 1;
nodes = (
(1290,970,l),
(1020,970,ls),
(772,970,o),
(710,1030,o),
(710,1270,cs),
(710,1450,ls),
(710,1690,o),
(772,1750,o),
(1020,1750,cs),
(1225,1750,o),
(1290,1690,o),
(1290,1450,cs)
);
},
{
closed = 1;
nodes = (
(1290,1010,o),
(1447,870,o),
(1740,870,cs),
(2300,870,ls),
(2592,870,o),
(2760,1010,o),
(2760,1270,cs),
(2760,1450,ls),
(2760,1710,o),
(2592,1850,o),
(2300,1850,cs),
(1860,1850,ls),
(1555,1850,o),
(1380,1694,o),
(1380,1404,c),
(1290,1404,l),
(1290,1270,ls)
);
},
{
closed = 1;
nodes = (
(1730,1690,o),
(1795,1750,o),
(2000,1750,cs),
(2230,1750,o),
(2310,1690,o),
(2310,1450,cs),
(2310,1270,ls),
(2310,1030,o),
(2230,970,o),
(2000,970,cs),
(1730,970,l),
(1730,1450,ls)
);
},
{
closed = 1;
nodes = (
(2055,0,l),
(2055,80,l),
(1772,80,o),
(1730,128,o),
(1730,400,cs),
(1730,1312,l),
(1290,1312,l),
(1290,400,ls),
(1290,128,o),
(1248,80,o),
(965,80,c),
(965,0,l)
);
},
{
closed = 1;
nodes = (
(502,944,o),
(290,743,o),
(290,467,cs),
(290,230,o),
(207,80,o),
(40,80,c),
(40,0,l),
(330,0,ls),
(627,0,o),
(745,124,o),
(745,510,cs),
(745,752,o),
(830,872,o),
(1030,872,c),
(1030,944,l),
(750,944,ls)
);
},
{
closed = 1;
nodes = (
(1990,944,l),
(1990,872,l),
(2190,872,o),
(2275,752,o),
(2275,510,cs),
(2275,124,o),
(2393,0,o),
(2690,0,cs),
(2980,0,l),
(2980,80,l),
(2813,80,o),
(2730,230,o),
(2730,467,cs),
(2730,743,o),
(2518,944,o),
(2270,944,cs)
);
}
);
};
layerId = "E4BC606E-CD30-42C5-8BF2-1DD2ABB89119";
shapes = (
{
closed = 1;
nodes = (
(1390,0,ls),
(1676,0,o),
(1840,140,o),
(1840,400,cs),
(1840,590,ls),
(1840,850,o),
(1650,990,o),
(1320,990,cs),
(1030,990,l),
(1030,890,l),
(1320,890,ls),
(1619,890,o),
(1790,1023,o),
(1790,1270,cs),
(1790,1450,ls),
(1790,1710,o),
(1626,1850,o),
(1340,1850,cs),
(100,1850,l),
(100,1771,l),
(338,1771,o),
(380,1709,o),
(380,1356,cs),
(380,494,ls),
(380,141,o),
(338,79,o),
(100,79,c),
(100,0,l)
);
},
{
closed = 1;
nodes = (
(820,100,o),
(820,100,o),
(820,400,cs),
(820,890,l),
(1090,890,ls),
(1320,890,o),
(1400,830,o),
(1400,590,cs),
(1400,400,ls),
(1400,160,o),
(1320,100,o),
(1090,100,cs)
);
},
{
closed = 1;
nodes = (
(820,1450,ls),
(820,1750,o),
(820,1750,o),
(1040,1750,cs),
(1270,1750,o),
(1350,1690,o),
(1350,1450,cs),
(1350,1270,ls),
(1350,1046,o),
(1283,990,o),
(1090,990,cs),
(820,990,l)
);
}
);
userData = {
assembly = "PUSHW[ ]	/* 1 value pushed */
0 
CALL[ ]	/* CallFunction */
SVTCA[0]	/* SetFreedomAndProjectionVectorToAxis */
PUSHW[ ]	/* 1 value pushed */
0 
RCVT[ ]	/* ReadCVT */
IF[ ]	/* If */
PUSHW[ ]	/* 1 value pushed */
0 
MDAP[1]	/* MoveDirectAbsPt */
ELSE[ ]	/* Else */
PUSHW[ ]	/* 2 values pushed */
0 7 
MIAP[0]	/* MoveIndirectAbsPt */
EIF[ ]	/* EndIf */
PUSHW[ ]	/* 1 value pushed */
0 
RCVT[ ]	/* ReadCVT */
IF[ ]	/* If */
PUSHW[ ]	/* 1 value pushed */
7 
MDAP[1]	/* MoveDirectAbsPt */
ELSE[ ]	/* Else */
PUSHW[ ]	/* 2 values pushed */
7 7 
MIAP[0]	/* MoveIndirectAbsPt */
EIF[ ]	/* EndIf */
PUSHW[ ]	/* 1 value pushed */
0 
RCVT[ ]	/* ReadCVT */
IF[ ]	/* If */
PUSHW[ ]	/* 1 value pushed */
26 
MDAP[1]	/* MoveDirectAbsPt */
ELSE[ ]	/* Else */
PUSHW[ ]	/* 2 values pushed */
26 1 
MIAP[0]	/* MoveIndirectAbsPt */
EIF[ ]	/* EndIf */
PUSHW[ ]	/* 1 value pushed */
0 
RCVT[ ]	/* ReadCVT */
IF[ ]	/* If */
PUSHW[ ]	/* 1 value pushed */
33 
MDAP[1]	/* MoveDirectAbsPt */
ELSE[ ]	/* Else */
PUSHW[ ]	/* 2 values pushed */
33 1 
MIAP[0]	/* MoveIndirectAbsPt */
EIF[ ]	/* EndIf */
PUSHW[ ]	/* 3 values pushed */
50 48 3 
CALL[ ]	/* CallFunction */
PUSHW[ ]	/* 3 values pushed */
17 48 50 
SRP1[ ]	/* SetRefPoint1 */
SRP2[ ]	/* SetRefPoint2 */
IP[ ]	/* InterpolatePts */
PUSHW[ ]	/* 1 value pushed */
33 
SRP0[ ]	/* SetRefPoint0 */
PUSHW[ ]	/* 1 value pushed */
35 
MDRP[11100]	/* MoveDirectRelPt */
PUSHW[ ]	/* 1 value pushed */
0 
SRP0[ ]	/* SetRefPoint0 */
PUSHW[ ]	/* 1 value pushed */
40 
MDRP[11100]	/* MoveDirectRelPt */
PUSHW[ ]	/* 1 value pushed */
35 
SRP0[ ]	/* SetRefPoint0 */
PUSHW[ ]	/* 1 value pushed */
43 
MDRP[10000]	/* MoveDirectRelPt */
PUSHW[ ]	/* 1 value pushed */
40 
SRP0[ ]	/* SetRefPoint0 */
PUSHW[ ]	/* 1 value pushed */
55 
MDRP[10000]	/* MoveDirectRelPt */
IUP[0]	/* InterpolateUntPts */
IUP[1]	/* InterpolateUntPts */";
};
width = 2042;
},
{
anchors = (
{
name = bottom;
pos = (1079,0);
},
{
name = center;
pos = (597,925);
},
{
name = top;
pos = (1079,1850);
}
);
associatedMasterId = "E4BC606E-CD30-42C5-8BF2-1DD2ABB89119";
background = {
shapes = (
{
closed = 1;
nodes = (
(1473,0,ls),
(1790,0,o),
(1973,173,o),
(1973,493,cs),
(1973,1357,ls),
(1973,1677,o),
(1790,1850,o),
(1473,1850,cs),
(100,1850,l),
(100,1771,l),
(338,1771,o),
(380,1709,o),
(380,1356,cs),
(380,494,ls),
(380,141,o),
(338,79,o),
(100,79,c),
(100,0,l)
);
},
{
closed = 1;
nodes = (
(820,123,o),
(820,123,o),
(820,494,cs),
(820,1356,ls),
(820,1727,o),
(820,1727,o),
(1153,1727,cs),
(1449,1727,o),
(1523,1653,o),
(1523,1357,cs),
(1523,493,ls),
(1523,197,o),
(1449,123,o),
(1153,123,cs)
);
}
);
};
layerId = "E2087303-049B-48FD-83F5-4B4C5CD6BD86";
name = "11 Dec 21, 12:01";
shapes = (
{
closed = 1;
nodes = (
(1473,0,ls),
(1790,0,o),
(1973,173,o),
(1973,493,cs),
(1973,1357,ls),
(1973,1677,o),
(1790,1850,o),
(1473,1850,cs),
(100,1850,l),
(100,1771,l),
(338,1771,o),
(380,1709,o),
(380,1356,cs),
(380,494,ls),
(380,141,o),
(338,79,o),
(100,79,c),
(100,0,l)
);
},
{
closed = 1;
nodes = (
(820,123,o),
(820,123,o),
(820,494,cs),
(820,1356,ls),
(820,1727,o),
(820,1727,o),
(1153,1727,cs),
(1449,1727,o),
(1523,1653,o),
(1523,1357,cs),
(1523,493,ls),
(1523,197,o),
(1449,123,o),
(1153,123,cs)
);
}
);
userData = {
assembly = "PUSHW[ ]	/* 1 value pushed */
0 
CALL[ ]	/* CallFunction */
SVTCA[0]	/* SetFreedomAndProjectionVectorToAxis */
PUSHW[ ]	/* 1 value pushed */
0 
RCVT[ ]	/* ReadCVT */
IF[ ]	/* If */
PUSHW[ ]	/* 1 value pushed */
0 
MDAP[1]	/* MoveDirectAbsPt */
ELSE[ ]	/* Else */
PUSHW[ ]	/* 2 values pushed */
0 7 
MIAP[0]	/* MoveIndirectAbsPt */
EIF[ ]	/* EndIf */
PUSHW[ ]	/* 1 value pushed */
0 
RCVT[ ]	/* ReadCVT */
IF[ ]	/* If */
PUSHW[ ]	/* 1 value pushed */
7 
MDAP[1]	/* MoveDirectAbsPt */
ELSE[ ]	/* Else */
PUSHW[ ]	/* 2 values pushed */
7 7 
MIAP[0]	/* MoveIndirectAbsPt */
EIF[ ]	/* EndIf */
PUSHW[ ]	/* 1 value pushed */
0 
RCVT[ ]	/* ReadCVT */
IF[ ]	/* If */
PUSHW[ ]	/* 1 value pushed */
26 
MDAP[1]	/* MoveDirectAbsPt */
ELSE[ ]	/* Else */
PUSHW[ ]	/* 2 values pushed */
26 1 
MIAP[0]	/* MoveIndirectAbsPt */
EIF[ ]	/* EndIf */
PUSHW[ ]	/* 1 value pushed */
0 
RCVT[ ]	/* ReadCVT */
IF[ ]	/* If */
PUSHW[ ]	/* 1 value pushed */
33 
MDAP[1]	/* MoveDirectAbsPt */
ELSE[ ]	/* Else */
PUSHW[ ]	/* 2 values pushed */
33 1 
MIAP[0]	/* MoveIndirectAbsPt */
EIF[ ]	/* EndIf */
PUSHW[ ]	/* 3 values pushed */
50 48 3 
CALL[ ]	/* CallFunction */
PUSHW[ ]	/* 3 values pushed */
17 48 50 
SRP1[ ]	/* SetRefPoint1 */
SRP2[ ]	/* SetRefPoint2 */
IP[ ]	/* InterpolatePts */
PUSHW[ ]	/* 1 value pushed */
33 
SRP0[ ]	/* SetRefPoint0 */
PUSHW[ ]	/* 1 value pushed */
35 
MDRP[11100]	/* MoveDirectRelPt */
PUSHW[ ]	/* 1 value pushed */
0 
SRP0[ ]	/* SetRefPoint0 */
PUSHW[ ]	/* 1 value pushed */
40 
MDRP[11100]	/* MoveDirectRelPt */
PUSHW[ ]	/* 1 value pushed */
35 
SRP0[ ]	/* SetRefPoint0 */
PUSHW[ ]	/* 1 value pushed */
43 
MDRP[10000]	/* MoveDirectRelPt */
PUSHW[ ]	/* 1 value pushed */
40 
SRP0[ ]	/* SetRefPoint0 */
PUSHW[ ]	/* 1 value pushed */
55 
MDRP[10000]	/* MoveDirectRelPt */
IUP[0]	/* InterpolateUntPts */
IUP[1]	/* InterpolateUntPts */";
};
width = 2158;
}
);
note = B;
unicode = 66;
},
{
glyphname = C;
kernLeft = uni041E;
kernRight = uni0421;
lastChange = "2021-12-13 00:11:19 +0000";
layers = (
{
anchors = (
{
name = bottom;
pos = (955,0);
},
{
name = top;
pos = (955,1850);
}
);
layerId = "E4BC606E-CD30-42C5-8BF2-1DD2ABB89119";
shapes = (
{
closed = 1;
nodes = (
(655,1357,ls),
(655,1653,o),
(726,1727,o),
(965,1727,cs),
(1223,1727,o),
(1295,1734,o),
(1295,1670,cs),
(1295,1625,o),
(1233,1596,o),
(1233,1469,cs),
(1233,1339,o),
(1331,1252,o),
(1464,1252,cs),
(1615,1252,o),
(1705,1354,o),
(1705,1508,cs),
(1705,1730,o),
(1537,1850,o),
(1225,1850,cs),
(685,1850,ls),
(368,1850,o),
(185,1677,o),
(185,1357,cs),
(185,493,ls),
(185,173,o),
(368,0,o),
(685,0,cs),
(1225,0,ls),
(1537,0,o),
(1705,120,o),
(1705,342,cs),
(1705,496,o),
(1615,598,o),
(1464,598,cs),
(1331,598,o),
(1233,511,o),
(1233,381,cs),
(1233,254,o),
(1295,225,o),
(1295,180,cs),
(1295,116,o),
(1223,123,o),
(965,123,cs),
(726,123,o),
(655,197,o),
(655,493,cs)
);
}
);
userData = {
assembly = "PUSHW[ ]	/* 1 value pushed */
0 
CALL[ ]	/* CallFunction */
SVTCA[0]	/* SetFreedomAndProjectionVectorToAxis */
PUSHW[ ]	/* 1 value pushed */
0 
RCVT[ ]	/* ReadCVT */
IF[ ]	/* If */
PUSHW[ ]	/* 1 value pushed */
6 
MDAP[1]	/* MoveDirectAbsPt */
ELSE[ ]	/* Else */
PUSHW[ ]	/* 2 values pushed */
6 7 
MIAP[0]	/* MoveIndirectAbsPt */
EIF[ ]	/* EndIf */
PUSHW[ ]	/* 1 value pushed */
0 
RCVT[ ]	/* ReadCVT */
IF[ ]	/* If */
PUSHW[ ]	/* 1 value pushed */
28 
MDAP[1]	/* MoveDirectAbsPt */
ELSE[ ]	/* Else */
PUSHW[ ]	/* 2 values pushed */
28 1 
MIAP[0]	/* MoveIndirectAbsPt */
EIF[ ]	/* EndIf */
PUSHW[ ]	/* 1 value pushed */
6 
SRP0[ ]	/* SetRefPoint0 */
PUSHW[ ]	/* 1 value pushed */
15 
MDRP[11100]	/* MoveDirectRelPt */
NPUSHW[ ]	/* 5 values pushed */
217 15 233 15 2 
DELTAP1[ ]	/* DeltaExceptionP1 */
NPUSHW[ ]	/* 27 values pushed */
8 15 24 15 40 15 56 15 72 15 88 15 104 15 120 15 136 15 152 15 168 15 184 15 200 15 13 
DELTAP1[ ]	/* DeltaExceptionP1 */
PUSHW[ ]	/* 1 value pushed */
28 
SRP0[ ]	/* SetRefPoint0 */
PUSHW[ ]	/* 1 value pushed */
20 
MDRP[11100]	/* MoveDirectRelPt */
NPUSHW[ ]	/* 27 values pushed */
7 20 23 20 39 20 55 20 71 20 87 20 103 20 119 20 135 20 151 20 167 20 183 20 199 20 13 
DELTAP1[ ]	/* DeltaExceptionP1 */
NPUSHW[ ]	/* 5 values pushed */
214 20 230 20 2 
DELTAP1[ ]	/* DeltaExceptionP1 */
IUP[0]	/* InterpolateUntPts */
IUP[1]	/* InterpolateUntPts */";
};
width = 1810;
}
);
metricLeft = O;
note = C;
unicode = 67;
},
{
glyphname = D;
kernLeft = uni0412;
kernRight = uni041E;
lastChange = "2021-12-13 00:50:19 +0000";
layers = (
{
anchors = (
{
name = bottom;
pos = (1079,0);
},
{
name = center;
pos = (597,925);
},
{
name = top;
pos = (1079,1850);
}
);
layerId = "E4BC606E-CD30-42C5-8BF2-1DD2ABB89119";
shapes = (
{
closed = 1;
nodes = (
(1453,0,ls),
(1770,0,o),
(1953,173,o),
(1953,493,cs),
(1953,1357,ls),
(1953,1677,o),
(1770,1850,o),
(1453,1850,cs),
(100,1850,l),
(100,1771,l),
(338,1771,o),
(380,1709,o),
(380,1356,cs),
(380,494,ls),
(380,141,o),
(338,79,o),
(100,79,c),
(100,0,l)
);
},
{
closed = 1;
nodes = (
(820,123,o),
(820,123,o),
(820,494,cs),
(820,1356,ls),
(820,1727,o),
(820,1727,o),
(1133,1727,cs),
(1429,1727,o),
(1503,1653,o),
(1503,1357,cs),
(1503,493,ls),
(1503,197,o),
(1429,123,o),
(1133,123,cs)
);
}
);
userData = {
assembly = "PUSHW[ ]	/* 1 value pushed */
0 
CALL[ ]	/* CallFunction */
SVTCA[0]	/* SetFreedomAndProjectionVectorToAxis */
PUSHW[ ]	/* 1 value pushed */
0 
RCVT[ ]	/* ReadCVT */
IF[ ]	/* If */
PUSHW[ ]	/* 1 value pushed */
6 
MDAP[1]	/* MoveDirectAbsPt */
ELSE[ ]	/* Else */
PUSHW[ ]	/* 2 values pushed */
6 7 
MIAP[0]	/* MoveIndirectAbsPt */
EIF[ ]	/* EndIf */
PUSHW[ ]	/* 1 value pushed */
0 
RCVT[ ]	/* ReadCVT */
IF[ ]	/* If */
PUSHW[ ]	/* 1 value pushed */
13 
MDAP[1]	/* MoveDirectAbsPt */
ELSE[ ]	/* Else */
PUSHW[ ]	/* 2 values pushed */
13 7 
MIAP[0]	/* MoveIndirectAbsPt */
EIF[ ]	/* EndIf */
PUSHW[ ]	/* 1 value pushed */
0 
RCVT[ ]	/* ReadCVT */
IF[ ]	/* If */
PUSHW[ ]	/* 1 value pushed */
25 
MDAP[1]	/* MoveDirectAbsPt */
ELSE[ ]	/* Else */
PUSHW[ ]	/* 2 values pushed */
25 1 
MIAP[0]	/* MoveIndirectAbsPt */
EIF[ ]	/* EndIf */
PUSHW[ ]	/* 1 value pushed */
0 
RCVT[ ]	/* ReadCVT */
IF[ ]	/* If */
PUSHW[ ]	/* 1 value pushed */
32 
MDAP[1]	/* MoveDirectAbsPt */
ELSE[ ]	/* Else */
PUSHW[ ]	/* 2 values pushed */
32 1 
MIAP[0]	/* MoveIndirectAbsPt */
EIF[ ]	/* EndIf */
PUSHW[ ]	/* 1 value pushed */
0 
MDRP[11100]	/* MoveDirectRelPt */
PUSHW[ ]	/* 1 value pushed */
6 
SRP0[ ]	/* SetRefPoint0 */
PUSHW[ ]	/* 1 value pushed */
5 
MDRP[11100]	/* MoveDirectRelPt */
PUSHW[ ]	/* 1 value pushed */
0 
SRP0[ ]	/* SetRefPoint0 */
PUSHW[ ]	/* 1 value pushed */
36 
MDRP[10000]	/* MoveDirectRelPt */
PUSHW[ ]	/* 1 value pushed */
5 
SRP0[ ]	/* SetRefPoint0 */
PUSHW[ ]	/* 1 value pushed */
41 
MDRP[10000]	/* MoveDirectRelPt */
IUP[0]	/* InterpolateUntPts */
IUP[1]	/* InterpolateUntPts */";
};
width = 2138;
}
);
metricRight = O;
note = D;
unicode = 68;
},
{
glyphname = Eth;
lastChange = "2021-12-13 00:17:15 +0000";
layers = (
{
anchors = (
{
name = bottom;
pos = (1079,0);
},
{
name = center;
pos = (597,925);
},
{
name = top;
pos = (1079,1850);
}
);
layerId = "E4BC606E-CD30-42C5-8BF2-1DD2ABB89119";
shapes = (
{
closed = 1;
nodes = (
(1473,0,ls),
(1790,0,o),
(1973,173,o),
(1973,493,cs),
(1973,1357,ls),
(1973,1677,o),
(1790,1850,o),
(1473,1850,cs),
(100,1850,l),
(100,1771,l),
(338,1771,o),
(380,1709,o),
(380,1356,cs),
(380,494,ls),
(380,141,o),
(338,79,o),
(100,79,c),
(100,0,l)
);
},
{
closed = 1;
nodes = (
(820,123,o),
(820,123,o),
(820,494,cs),
(820,1356,ls),
(820,1727,o),
(820,1727,o),
(1153,1727,cs),
(1449,1727,o),
(1523,1653,o),
(1523,1357,cs),
(1523,493,ls),
(1523,197,o),
(1449,123,o),
(1153,123,cs)
);
},
{
closed = 1;
nodes = (
(1148,854,l),
(1148,994,l),
(156,994,l),
(156,854,l)
);
}
);
width = 2158;
}
);
unicode = 208;
},
{
glyphname = E;
kernLeft = uni0412;
kernRight = uni0421;
lastChange = "2021-12-11 16:41:23 +0000";
layers = (
{
anchors = (
{
name = bottom;
pos = (883,0);
},
{
name = ogonek;
pos = (1589,10);
},
{
name = top;
pos = (913,1850);
},
{
name = topleft;
pos = (20,1850);
}
);
layerId = "E4BC606E-CD30-42C5-8BF2-1DD2ABB89119";
shapes = (
{
closed = 1;
nodes = (
(1661,0,l),
(1611,570,l),
(1511,570,l),
(1477,264,o),
(1344,120,o),
(1044,120,cs),
(859,120,o),
(820,175,o),
(820,493,cs),
(820,1357,ls),
(820,1675,o),
(859,1730,o),
(1044,1730,cs),
(1344,1730,o),
(1477,1586,o),
(1511,1280,c),
(1611,1280,l),
(1661,1850,l),
(80,1850,l),
(80,1771,l),
(335,1771,o),
(380,1709,o),
(380,1357,cs),
(380,494,ls),
(380,141,o),
(335,79,o),
(80,79,c),
(80,0,l)
);
},
{
closed = 1;
nodes = (
(1348,854,l),
(1348,994,l),
(456,994,l),
(456,854,l)
);
}
);
userData = {
assembly = "PUSHW[ ]	/* 1 value pushed */
0 
CALL[ ]	/* CallFunction */
SVTCA[0]	/* SetFreedomAndProjectionVectorToAxis */
PUSHW[ ]	/* 1 value pushed */
0 
RCVT[ ]	/* ReadCVT */
IF[ ]	/* If */
PUSHW[ ]	/* 1 value pushed */
0 
MDAP[1]	/* MoveDirectAbsPt */
ELSE[ ]	/* Else */
PUSHW[ ]	/* 2 values pushed */
0 7 
MIAP[0]	/* MoveIndirectAbsPt */
EIF[ ]	/* EndIf */
PUSHW[ ]	/* 1 value pushed */
0 
RCVT[ ]	/* ReadCVT */
IF[ ]	/* If */
PUSHW[ ]	/* 1 value pushed */
7 
MDAP[1]	/* MoveDirectAbsPt */
ELSE[ ]	/* Else */
PUSHW[ ]	/* 2 values pushed */
7 7 
MIAP[0]	/* MoveIndirectAbsPt */
EIF[ ]	/* EndIf */
PUSHW[ ]	/* 1 value pushed */
0 
RCVT[ ]	/* ReadCVT */
IF[ ]	/* If */
PUSHW[ ]	/* 1 value pushed */
37 
MDAP[1]	/* MoveDirectAbsPt */
ELSE[ ]	/* Else */
PUSHW[ ]	/* 2 values pushed */
37 1 
MIAP[0]	/* MoveIndirectAbsPt */
EIF[ ]	/* EndIf */
PUSHW[ ]	/* 1 value pushed */
0 
RCVT[ ]	/* ReadCVT */
IF[ ]	/* If */
PUSHW[ ]	/* 1 value pushed */
44 
MDAP[1]	/* MoveDirectAbsPt */
ELSE[ ]	/* Else */
PUSHW[ ]	/* 2 values pushed */
44 1 
MIAP[0]	/* MoveIndirectAbsPt */
EIF[ ]	/* EndIf */
PUSHW[ ]	/* 3 values pushed */
22 23 3 
CALL[ ]	/* CallFunction */
PUSHW[ ]	/* 1 value pushed */
7 
SRP0[ ]	/* SetRefPoint0 */
PUSHW[ ]	/* 1 value pushed */
17 
MDRP[11100]	/* MoveDirectRelPt */
PUSHW[ ]	/* 1 value pushed */
44 
SRP0[ ]	/* SetRefPoint0 */
PUSHW[ ]	/* 1 value pushed */
27 
MDRP[11100]	/* MoveDirectRelPt */
PUSHW[ ]	/* 1 value pushed */
28 
MDRP[10000]	/* MoveDirectRelPt */
PUSHW[ ]	/* 1 value pushed */
46 
MDRP[10000]	/* MoveDirectRelPt */
PUSHW[ ]	/* 1 value pushed */
17 
SRP0[ ]	/* SetRefPoint0 */
PUSHW[ ]	/* 1 value pushed */
51 
MDRP[10000]	/* MoveDirectRelPt */
SVTCA[1]	/* SetFreedomAndProjectionVectorToAxis */
PUSHW[ ]	/* 3 values pushed */
9 10 3 
CALL[ ]	/* CallFunction */
PUSHW[ ]	/* 1 value pushed */
10 
SRP0[ ]	/* SetRefPoint0 */
PUSHW[ ]	/* 1 value pushed */
35 
MDRP[10000]	/* MoveDirectRelPt */
PUSHW[ ]	/* 1 value pushed */
9 
SRP0[ ]	/* SetRefPoint0 */
PUSHW[ ]	/* 1 value pushed */
36 
MDRP[10000]	/* MoveDirectRelPt */
PUSHW[ ]	/* 1 value pushed */
9 
SRP0[ ]	/* SetRefPoint0 */
PUSHW[ ]	/* 1 value pushed */
53 
MDRP[11100]	/* MoveDirectRelPt */
IUP[0]	/* InterpolateUntPts */
IUP[1]	/* InterpolateUntPts */";
};
width = 1766;
}
);
metricRight = C;
note = E;
unicode = 69;
},
{
glyphname = F;
kernLeft = uni0412;
kernRight = F;
lastChange = "2021-12-11 16:41:27 +0000";
layers = (
{
anchors = (
{
name = bottom;
pos = (883,0);
},
{
name = ogonek;
pos = (1589,10);
},
{
name = top;
pos = (913,1850);
},
{
name = topleft;
pos = (20,1850);
}
);
layerId = "E4BC606E-CD30-42C5-8BF2-1DD2ABB89119";
shapes = (
{
closed = 1;
nodes = (
(1270,0,l),
(1270,79,l),
(877,79,o),
(820,131,o),
(820,494,cs),
(820,1357,ls),
(820,1675,o),
(861,1730,o),
(1054,1730,cs),
(1335,1730,o),
(1458,1586,o),
(1491,1280,c),
(1591,1280,l),
(1641,1850,l),
(80,1850,l),
(80,1771,l),
(335,1771,o),
(380,1709,o),
(380,1357,cs),
(380,494,ls),
(380,141,o),
(335,79,o),
(80,79,c),
(80,0,l)
);
},
{
closed = 1;
nodes = (
(1348,804,l),
(1348,944,l),
(456,944,l),
(456,804,l)
);
}
);
userData = {
assembly = "PUSHW[ ]	/* 1 value pushed */
0 
CALL[ ]	/* CallFunction */
SVTCA[0]	/* SetFreedomAndProjectionVectorToAxis */
PUSHW[ ]	/* 1 value pushed */
0 
RCVT[ ]	/* ReadCVT */
IF[ ]	/* If */
PUSHW[ ]	/* 1 value pushed */
7 
MDAP[1]	/* MoveDirectAbsPt */
ELSE[ ]	/* Else */
PUSHW[ ]	/* 2 values pushed */
7 7 
MIAP[0]	/* MoveIndirectAbsPt */
EIF[ ]	/* EndIf */
PUSHW[ ]	/* 1 value pushed */
0 
RCVT[ ]	/* ReadCVT */
IF[ ]	/* If */
PUSHW[ ]	/* 1 value pushed */
14 
MDAP[1]	/* MoveDirectAbsPt */
ELSE[ ]	/* Else */
PUSHW[ ]	/* 2 values pushed */
14 7 
MIAP[0]	/* MoveIndirectAbsPt */
EIF[ ]	/* EndIf */
PUSHW[ ]	/* 1 value pushed */
0 
RCVT[ ]	/* ReadCVT */
IF[ ]	/* If */
PUSHW[ ]	/* 1 value pushed */
0 
MDAP[1]	/* MoveDirectAbsPt */
ELSE[ ]	/* Else */
PUSHW[ ]	/* 2 values pushed */
0 1 
MIAP[0]	/* MoveIndirectAbsPt */
EIF[ ]	/* EndIf */
PUSHW[ ]	/* 1 value pushed */
0 
RCVT[ ]	/* ReadCVT */
IF[ ]	/* If */
PUSHW[ ]	/* 1 value pushed */
35 
MDAP[1]	/* MoveDirectAbsPt */
ELSE[ ]	/* Else */
PUSHW[ ]	/* 2 values pushed */
35 1 
MIAP[0]	/* MoveIndirectAbsPt */
EIF[ ]	/* EndIf */
PUSHW[ ]	/* 3 values pushed */
29 30 3 
CALL[ ]	/* CallFunction */
PUSHW[ ]	/* 1 value pushed */
0 
SRP0[ ]	/* SetRefPoint0 */
PUSHW[ ]	/* 1 value pushed */
1 
MDRP[11100]	/* MoveDirectRelPt */
PUSHW[ ]	/* 1 value pushed */
7 
SRP0[ ]	/* SetRefPoint0 */
PUSHW[ ]	/* 1 value pushed */
6 
MDRP[11100]	/* MoveDirectRelPt */
PUSHW[ ]	/* 1 value pushed */
24 
MDRP[10000]	/* MoveDirectRelPt */
PUSHW[ ]	/* 1 value pushed */
25 
MDRP[10000]	/* MoveDirectRelPt */
PUSHW[ ]	/* 1 value pushed */
1 
SRP0[ ]	/* SetRefPoint0 */
PUSHW[ ]	/* 1 value pushed */
34 
MDRP[10000]	/* MoveDirectRelPt */
SVTCA[1]	/* SetFreedomAndProjectionVectorToAxis */
PUSHW[ ]	/* 3 values pushed */
16 17 3 
CALL[ ]	/* CallFunction */
PUSHW[ ]	/* 1 value pushed */
16 
SRP0[ ]	/* SetRefPoint0 */
PUSHW[ ]	/* 1 value pushed */
44 
MDRP[11100]	/* MoveDirectRelPt */
IUP[0]	/* InterpolateUntPts */
IUP[1]	/* InterpolateUntPts */";
};
width = 1706;
}
);
note = F;
unicode = 70;
},
{
glyphname = G;
kernLeft = uni041E;
kernRight = uni041E;
lastChange = "2021-12-13 09:06:07 +0000";
layers = (
{
anchors = (
{
name = bottom;
pos = (1000,0);
},
{
name = top;
pos = (950,1850);
}
);
layerId = "E4BC606E-CD30-42C5-8BF2-1DD2ABB89119";
shapes = (
{
closed = 1;
nodes = (
(1723,0,l),
(1723,474,ls),
(1723,801,o),
(1745,855,o),
(1880,855,c),
(1880,934,l),
(1019,934,l),
(1019,855,l),
(1265,855,o),
(1282,829,o),
(1282,440,cs),
(1282,123,l),
(985,123,ls),
(731,123,o),
(655,197,o),
(655,493,cs),
(655,1357,ls),
(655,1653,o),
(731,1727,o),
(985,1727,cs),
(1263,1727,o),
(1335,1734,o),
(1335,1670,cs),
(1335,1625,o),
(1273,1596,o),
(1273,1469,cs),
(1273,1339,o),
(1371,1252,o),
(1504,1252,cs),
(1655,1252,o),
(1745,1354,o),
(1745,1508,cs),
(1745,1730,o),
(1577,1850,o),
(1265,1850,cs),
(685,1850,ls),
(368,1850,o),
(185,1677,o),
(185,1357,cs),
(185,493,ls),
(185,173,o),
(368,0,o),
(685,0,cs)
);
}
);
userData = {
assembly = "PUSHW[ ]	/* 1 value pushed */
0 
CALL[ ]	/* CallFunction */
SVTCA[0]	/* SetFreedomAndProjectionVectorToAxis */
PUSHW[ ]	/* 1 value pushed */
0 
RCVT[ ]	/* ReadCVT */
IF[ ]	/* If */
PUSHW[ ]	/* 1 value pushed */
5 
MDAP[1]	/* MoveDirectAbsPt */
ELSE[ ]	/* Else */
PUSHW[ ]	/* 2 values pushed */
5 7 
MIAP[0]	/* MoveIndirectAbsPt */
EIF[ ]	/* EndIf */
PUSHW[ ]	/* 1 value pushed */
0 
RCVT[ ]	/* ReadCVT */
IF[ ]	/* If */
PUSHW[ ]	/* 1 value pushed */
40 
MDAP[1]	/* MoveDirectAbsPt */
ELSE[ ]	/* Else */
PUSHW[ ]	/* 2 values pushed */
40 1 
MIAP[0]	/* MoveIndirectAbsPt */
EIF[ ]	/* EndIf */
PUSHW[ ]	/* 3 values pushed */
24 23 3 
CALL[ ]	/* CallFunction */
PUSHW[ ]	/* 1 value pushed */
5 
SRP0[ ]	/* SetRefPoint0 */
PUSHW[ ]	/* 1 value pushed */
14 
MDRP[11100]	/* MoveDirectRelPt */
NPUSHW[ ]	/* 5 values pushed */
217 14 233 14 2 
DELTAP1[ ]	/* DeltaExceptionP1 */
NPUSHW[ ]	/* 27 values pushed */
8 14 24 14 40 14 56 14 72 14 88 14 104 14 120 14 136 14 152 14 168 14 184 14 200 14 13 
DELTAP1[ ]	/* DeltaExceptionP1 */
PUSHW[ ]	/* 1 value pushed */
40 
SRP0[ ]	/* SetRefPoint0 */
PUSHW[ ]	/* 1 value pushed */
19 
MDRP[11100]	/* MoveDirectRelPt */
NPUSHW[ ]	/* 27 values pushed */
7 19 23 19 39 19 55 19 71 19 87 19 103 19 119 19 135 19 151 19 167 19 183 19 199 19 13 
DELTAP1[ ]	/* DeltaExceptionP1 */
NPUSHW[ ]	/* 5 values pushed */
214 19 230 19 2 
DELTAP1[ ]	/* DeltaExceptionP1 */
PUSHW[ ]	/* 1 value pushed */
24 
SRP0[ ]	/* SetRefPoint0 */
PUSHW[ ]	/* 1 value pushed */
31 
MDRP[10000]	/* MoveDirectRelPt */
PUSHW[ ]	/* 3 values pushed */
32 40 5 
SRP1[ ]	/* SetRefPoint1 */
SRP2[ ]	/* SetRefPoint2 */
IP[ ]	/* InterpolatePts */
PUSHW[ ]	/* 1 value pushed */
23 
SRP0[ ]	/* SetRefPoint0 */
PUSHW[ ]	/* 1 value pushed */
33 
MDRP[10000]	/* MoveDirectRelPt */
IUP[0]	/* InterpolateUntPts */
IUP[1]	/* InterpolateUntPts */";
};
width = 1940;
}
);
note = G;
unicode = 71;
},
{
glyphname = H;
kernLeft = uni0412;
kernRight = uni042F;
lastChange = "2021-12-11 09:01:37 +0000";
layers = (
{
anchors = (
{
name = bottom;
pos = (1189,0);
},
{
name = center;
pos = (1189,925);
},
{
name = top;
pos = (1189,1850);
},
{
name = topleft;
pos = (30,1850);
}
);
background = {
shapes = (
{
closed = 1;
nodes = (
(2128,0,l),
(2128,79,l),
(1898,79,o),
(1857,141,o),
(1857,493,cs),
(1857,1357,ls),
(1857,1709,o),
(1898,1771,o),
(2128,1771,c),
(2128,1850,l),
(1161,1850,l),
(1161,1730,l),
(1366,1730,o),
(1417,1674,o),
(1417,1357,cs),
(1417,493,ls),
(1417,176,o),
(1366,120,o),
(1161,120,c),
(1161,0,l)
);
},
{
closed = 1;
nodes = (
(1021,0,l),
(1021,120,l),
(803,120,o),
(760,176,o),
(760,493,cs),
(760,1357,ls),
(760,1674,o),
(803,1730,o),
(1021,1730,c),
(1021,1850,l),
(70,1850,l),
(70,1771,l),
(283,1771,o),
(320,1709,o),
(320,1357,cs),
(320,493,ls),
(320,141,o),
(283,79,o),
(70,79,c),
(70,0,l)
);
}
);
};
layerId = "E4BC606E-CD30-42C5-8BF2-1DD2ABB89119";
shapes = (
{
closed = 1;
nodes = (
(2258,0,l),
(2258,79,l),
(2019,79,o),
(1977,141,o),
(1977,494,cs),
(1977,1356,ls),
(1977,1709,o),
(2019,1771,o),
(2258,1771,c),
(2258,1850,l),
(1274,1850,l),
(1274,1771,l),
(1498,1771,o),
(1537,1709,o),
(1537,1356,cs),
(1537,494,ls),
(1537,141,o),
(1498,79,o),
(1274,79,c),
(1274,0,l)
);
},
{
closed = 1;
nodes = (
(1084,0,l),
(1084,79,l),
(860,79,o),
(820,141,o),
(820,494,cs),
(820,1356,ls),
(820,1709,o),
(860,1771,o),
(1084,1771,c),
(1084,1850,l),
(100,1850,l),
(100,1771,l),
(338,1771,o),
(380,1709,o),
(380,1356,cs),
(380,494,ls),
(380,141,o),
(338,79,o),
(100,79,c),
(100,0,l)
);
},
{
closed = 1;
nodes = (
(1718,864,l),
(1718,984,l),
(456,984,l),
(456,864,l)
);
}
);
userData = {
assembly = "PUSHW[ ]	/* 1 value pushed */
0 
CALL[ ]	/* CallFunction */
SVTCA[0]	/* SetFreedomAndProjectionVectorToAxis */
PUSHW[ ]	/* 1 value pushed */
0 
RCVT[ ]	/* ReadCVT */
IF[ ]	/* If */
PUSHW[ ]	/* 1 value pushed */
0 
MDAP[1]	/* MoveDirectAbsPt */
ELSE[ ]	/* Else */
PUSHW[ ]	/* 2 values pushed */
0 7 
MIAP[0]	/* MoveIndirectAbsPt */
EIF[ ]	/* EndIf */
PUSHW[ ]	/* 1 value pushed */
0 
RCVT[ ]	/* ReadCVT */
IF[ ]	/* If */
PUSHW[ ]	/* 1 value pushed */
7 
MDAP[1]	/* MoveDirectAbsPt */
ELSE[ ]	/* Else */
PUSHW[ ]	/* 2 values pushed */
7 7 
MIAP[0]	/* MoveIndirectAbsPt */
EIF[ ]	/* EndIf */
PUSHW[ ]	/* 1 value pushed */
0 
RCVT[ ]	/* ReadCVT */
IF[ ]	/* If */
PUSHW[ ]	/* 1 value pushed */
17 
MDAP[1]	/* MoveDirectAbsPt */
ELSE[ ]	/* Else */
PUSHW[ ]	/* 2 values pushed */
17 7 
MIAP[0]	/* MoveIndirectAbsPt */
EIF[ ]	/* EndIf */
PUSHW[ ]	/* 1 value pushed */
0 
RCVT[ ]	/* ReadCVT */
IF[ ]	/* If */
PUSHW[ ]	/* 1 value pushed */
24 
MDAP[1]	/* MoveDirectAbsPt */
ELSE[ ]	/* Else */
PUSHW[ ]	/* 2 values pushed */
24 7 
MIAP[0]	/* MoveIndirectAbsPt */
EIF[ ]	/* EndIf */
PUSHW[ ]	/* 1 value pushed */
0 
RCVT[ ]	/* ReadCVT */
IF[ ]	/* If */
PUSHW[ ]	/* 1 value pushed */
32 
MDAP[1]	/* MoveDirectAbsPt */
ELSE[ ]	/* Else */
PUSHW[ ]	/* 2 values pushed */
32 1 
MIAP[0]	/* MoveIndirectAbsPt */
EIF[ ]	/* EndIf */
PUSHW[ ]	/* 1 value pushed */
0 
RCVT[ ]	/* ReadCVT */
IF[ ]	/* If */
PUSHW[ ]	/* 1 value pushed */
39 
MDAP[1]	/* MoveDirectAbsPt */
ELSE[ ]	/* Else */
PUSHW[ ]	/* 2 values pushed */
39 1 
MIAP[0]	/* MoveIndirectAbsPt */
EIF[ ]	/* EndIf */
PUSHW[ ]	/* 1 value pushed */
0 
RCVT[ ]	/* ReadCVT */
IF[ ]	/* If */
PUSHW[ ]	/* 1 value pushed */
49 
MDAP[1]	/* MoveDirectAbsPt */
ELSE[ ]	/* Else */
PUSHW[ ]	/* 2 values pushed */
49 1 
MIAP[0]	/* MoveIndirectAbsPt */
EIF[ ]	/* EndIf */
PUSHW[ ]	/* 1 value pushed */
0 
RCVT[ ]	/* ReadCVT */
IF[ ]	/* If */
PUSHW[ ]	/* 1 value pushed */
56 
MDAP[1]	/* MoveDirectAbsPt */
ELSE[ ]	/* Else */
PUSHW[ ]	/* 2 values pushed */
56 1 
MIAP[0]	/* MoveIndirectAbsPt */
EIF[ ]	/* EndIf */
PUSHW[ ]	/* 3 values pushed */
13 44 3 
CALL[ ]	/* CallFunction */
PUSHW[ ]	/* 1 value pushed */
17 
SRP0[ ]	/* SetRefPoint0 */
PUSHW[ ]	/* 1 value pushed */
9 
MDRP[11100]	/* MoveDirectRelPt */
PUSHW[ ]	/* 1 value pushed */
16 
MDRP[10000]	/* MoveDirectRelPt */
PUSHW[ ]	/* 1 value pushed */
26 
MDRP[10000]	/* MoveDirectRelPt */
PUSHW[ ]	/* 1 value pushed */
32 
SRP0[ ]	/* SetRefPoint0 */
PUSHW[ ]	/* 1 value pushed */
31 
MDRP[11100]	/* MoveDirectRelPt */
PUSHW[ ]	/* 1 value pushed */
41 
MDRP[10000]	/* MoveDirectRelPt */
PUSHW[ ]	/* 1 value pushed */
48 
MDRP[10000]	/* MoveDirectRelPt */
PUSHW[ ]	/* 1 value pushed */
58 
MDRP[10000]	/* MoveDirectRelPt */
PUSHW[ ]	/* 1 value pushed */
26 
SRP0[ ]	/* SetRefPoint0 */
PUSHW[ ]	/* 1 value pushed */
63 
MDRP[10000]	/* MoveDirectRelPt */
IUP[0]	/* InterpolateUntPts */
IUP[1]	/* InterpolateUntPts */";
};
width = 2358;
}
);
note = H;
unicode = 72;
},
{
glyphname = I;
kernLeft = uni0412;
kernRight = uni042F;
lastChange = "2021-12-11 15:39:21 +0000";
layers = (
{
anchors = (
{
name = bottom;
pos = (605,0);
},
{
name = ogonek;
pos = (1089,10);
},
{
name = top;
pos = (605,1850);
},
{
name = topleft;
pos = (20,1850);
}
);
background = {
shapes = (
{
closed = 0;
nodes = (
(1084,79,l),
(860,79,o),
(820,141,o),
(820,494,cs),
(820,1356,ls),
(820,1709,o),
(860,1771,o),
(1084,1771,c)
);
}
);
};
layerId = "E4BC606E-CD30-42C5-8BF2-1DD2ABB89119";
shapes = (
{
closed = 1;
nodes = (
(1110,0,l),
(1110,79,l),
(872,79,o),
(830,141,o),
(830,494,cs),
(830,1356,ls),
(830,1709,o),
(872,1771,o),
(1110,1771,c),
(1110,1850,l),
(100,1850,l),
(100,1771,l),
(338,1771,o),
(380,1709,o),
(380,1356,cs),
(380,494,ls),
(380,141,o),
(338,79,o),
(100,79,c),
(100,0,l)
);
}
);
userData = {
assembly = "PUSHW[ ]	/* 1 value pushed */
0 
CALL[ ]	/* CallFunction */
SVTCA[0]	/* SetFreedomAndProjectionVectorToAxis */
PUSHW[ ]	/* 1 value pushed */
0 
RCVT[ ]	/* ReadCVT */
IF[ ]	/* If */
PUSHW[ ]	/* 1 value pushed */
0 
MDAP[1]	/* MoveDirectAbsPt */
ELSE[ ]	/* Else */
PUSHW[ ]	/* 2 values pushed */
0 7 
MIAP[0]	/* MoveIndirectAbsPt */
EIF[ ]	/* EndIf */
PUSHW[ ]	/* 1 value pushed */
0 
RCVT[ ]	/* ReadCVT */
IF[ ]	/* If */
PUSHW[ ]	/* 1 value pushed */
7 
MDAP[1]	/* MoveDirectAbsPt */
ELSE[ ]	/* Else */
PUSHW[ ]	/* 2 values pushed */
7 7 
MIAP[0]	/* MoveIndirectAbsPt */
EIF[ ]	/* EndIf */
PUSHW[ ]	/* 1 value pushed */
0 
RCVT[ ]	/* ReadCVT */
IF[ ]	/* If */
PUSHW[ ]	/* 1 value pushed */
15 
MDAP[1]	/* MoveDirectAbsPt */
ELSE[ ]	/* Else */
PUSHW[ ]	/* 2 values pushed */
15 1 
MIAP[0]	/* MoveIndirectAbsPt */
EIF[ ]	/* EndIf */
PUSHW[ ]	/* 1 value pushed */
0 
RCVT[ ]	/* ReadCVT */
IF[ ]	/* If */
PUSHW[ ]	/* 1 value pushed */
22 
MDAP[1]	/* MoveDirectAbsPt */
ELSE[ ]	/* Else */
PUSHW[ ]	/* 2 values pushed */
22 1 
MIAP[0]	/* MoveIndirectAbsPt */
EIF[ ]	/* EndIf */
PUSHW[ ]	/* 1 value pushed */
7 
SRP0[ ]	/* SetRefPoint0 */
PUSHW[ ]	/* 1 value pushed */
9 
MDRP[11100]	/* MoveDirectRelPt */
PUSHW[ ]	/* 1 value pushed */
15 
SRP0[ ]	/* SetRefPoint0 */
PUSHW[ ]	/* 1 value pushed */
14 
MDRP[11100]	/* MoveDirectRelPt */
PUSHW[ ]	/* 1 value pushed */
24 
MDRP[10000]	/* MoveDirectRelPt */
PUSHW[ ]	/* 1 value pushed */
9 
SRP0[ ]	/* SetRefPoint0 */
PUSHW[ ]	/* 1 value pushed */
29 
MDRP[10000]	/* MoveDirectRelPt */
IUP[0]	/* InterpolateUntPts */
IUP[1]	/* InterpolateUntPts */";
};
width = 1210;
}
);
note = I;
unicode = 73;
},
{
glyphname = J;
kernLeft = uni0412;
kernRight = uni0411;
lastChange = "2021-12-13 00:11:42 +0000";
layers = (
{
anchors = (
{
name = bottom;
pos = (815,0);
},
{
name = top;
pos = (885,1850);
}
);
layerId = "E4BC606E-CD30-42C5-8BF2-1DD2ABB89119";
shapes = (
{
closed = 1;
nodes = (
(1020,130,o),
(963,70,o),
(766,70,cs),
(588,70,o),
(528,109,o),
(528,138,cs),
(528,191,o),
(613,224,o),
(613,371,cs),
(613,513,o),
(523,608,o),
(387,608,cs),
(245,608,o),
(147,510,o),
(147,362,cs),
(147,162,o),
(273,-30,o),
(771,-30,cs),
(1277,-30,o),
(1470,111,o),
(1470,490,cs),
(1470,1450,ls),
(1470,1722,o),
(1496,1770,o),
(1640,1770,c),
(1640,1850,l),
(170,1850,l),
(220,1280,l),
(306,1280,l),
(356,1643,o),
(524,1730,o),
(695,1730,cs),
(959,1730,o),
(1020,1688,o),
(1020,1450,cs),
(1020,370,ls)
);
}
);
userData = {
assembly = "PUSHW[ ]	/* 1 value pushed */
0 
CALL[ ]	/* CallFunction */
SVTCA[0]	/* SetFreedomAndProjectionVectorToAxis */
PUSHW[ ]	/* 1 value pushed */
0 
RCVT[ ]	/* ReadCVT */
IF[ ]	/* If */
PUSHW[ ]	/* 1 value pushed */
6 
MDAP[1]	/* MoveDirectAbsPt */
ELSE[ ]	/* Else */
PUSHW[ ]	/* 2 values pushed */
6 7 
MIAP[0]	/* MoveIndirectAbsPt */
EIF[ ]	/* EndIf */
PUSHW[ ]	/* 1 value pushed */
0 
RCVT[ ]	/* ReadCVT */
IF[ ]	/* If */
PUSHW[ ]	/* 1 value pushed */
13 
MDAP[1]	/* MoveDirectAbsPt */
ELSE[ ]	/* Else */
PUSHW[ ]	/* 2 values pushed */
13 7 
MIAP[0]	/* MoveIndirectAbsPt */
EIF[ ]	/* EndIf */
PUSHW[ ]	/* 1 value pushed */
0 
RCVT[ ]	/* ReadCVT */
IF[ ]	/* If */
PUSHW[ ]	/* 1 value pushed */
23 
MDAP[1]	/* MoveDirectAbsPt */
ELSE[ ]	/* Else */
PUSHW[ ]	/* 2 values pushed */
23 1 
MIAP[0]	/* MoveIndirectAbsPt */
EIF[ ]	/* EndIf */
PUSHW[ ]	/* 1 value pushed */
0 
MDRP[11100]	/* MoveDirectRelPt */
PUSHW[ ]	/* 1 value pushed */
6 
SRP0[ ]	/* SetRefPoint0 */
PUSHW[ ]	/* 1 value pushed */
5 
MDRP[11100]	/* MoveDirectRelPt */
PUSHW[ ]	/* 1 value pushed */
15 
MDRP[10000]	/* MoveDirectRelPt */
IUP[0]	/* InterpolateUntPts */
IUP[1]	/* InterpolateUntPts */";
};
width = 1730;
},
{
anchors = (
{
name = bottom;
pos = (605,0);
},
{
name = ogonek;
pos = (1089,10);
},
{
name = top;
pos = (605,1850);
},
{
name = topleft;
pos = (20,1850);
}
);
associatedMasterId = "E4BC606E-CD30-42C5-8BF2-1DD2ABB89119";
layerId = "25A23815-8048-427D-B244-831B1CCD4AED";
name = "11 Dec 21, 16:44";
shapes = (
{
closed = 1;
nodes = (
(709,-68,o),
(709,-265,cs),
(709,-402,o),
(684,-485,o),
(642,-485,cs),
(611,-485,o),
(597,-463,o),
(597,-414,cs),
(597,-296,o),
(515,-217,o),
(391,-217,cs),
(261,-217,o),
(171,-300,o),
(171,-443,cs),
(171,-567,o),
(233,-700,o),
(475,-700,cs),
(695,-700,o),
(829,-533,o),
(829,-258,cs),
(830,1356,ls),
(830,1709,o),
(872,1771,o),
(1110,1771,c),
(1110,1850,l),
(100,1850,l),
(100,1771,l),
(338,1771,o),
(380,1709,o),
(380,1356,cs),
(380,0,l),
(626,-1,o)
);
}
);
userData = {
assembly = "PUSHW[ ]	/* 1 value pushed */
0 
CALL[ ]	/* CallFunction */
SVTCA[0]	/* SetFreedomAndProjectionVectorToAxis */
PUSHW[ ]	/* 1 value pushed */
0 
RCVT[ ]	/* ReadCVT */
IF[ ]	/* If */
PUSHW[ ]	/* 1 value pushed */
6 
MDAP[1]	/* MoveDirectAbsPt */
ELSE[ ]	/* Else */
PUSHW[ ]	/* 2 values pushed */
6 7 
MIAP[0]	/* MoveIndirectAbsPt */
EIF[ ]	/* EndIf */
PUSHW[ ]	/* 1 value pushed */
0 
RCVT[ ]	/* ReadCVT */
IF[ ]	/* If */
PUSHW[ ]	/* 1 value pushed */
13 
MDAP[1]	/* MoveDirectAbsPt */
ELSE[ ]	/* Else */
PUSHW[ ]	/* 2 values pushed */
13 7 
MIAP[0]	/* MoveIndirectAbsPt */
EIF[ ]	/* EndIf */
PUSHW[ ]	/* 1 value pushed */
0 
RCVT[ ]	/* ReadCVT */
IF[ ]	/* If */
PUSHW[ ]	/* 1 value pushed */
23 
MDAP[1]	/* MoveDirectAbsPt */
ELSE[ ]	/* Else */
PUSHW[ ]	/* 2 values pushed */
23 1 
MIAP[0]	/* MoveIndirectAbsPt */
EIF[ ]	/* EndIf */
PUSHW[ ]	/* 1 value pushed */
0 
MDRP[11100]	/* MoveDirectRelPt */
PUSHW[ ]	/* 1 value pushed */
6 
SRP0[ ]	/* SetRefPoint0 */
PUSHW[ ]	/* 1 value pushed */
5 
MDRP[11100]	/* MoveDirectRelPt */
PUSHW[ ]	/* 1 value pushed */
15 
MDRP[10000]	/* MoveDirectRelPt */
IUP[0]	/* InterpolateUntPts */
IUP[1]	/* InterpolateUntPts */";
};
width = 1210;
},
{
anchors = (
{
name = bottom;
pos = (605,0);
},
{
name = ogonek;
pos = (1089,10);
},
{
name = top;
pos = (605,1850);
},
{
name = topleft;
pos = (20,1850);
}
);
associatedMasterId = "E4BC606E-CD30-42C5-8BF2-1DD2ABB89119";
layerId = "553E77A5-5E34-4F76-B9FB-F920D3D5A676";
name = "11 Dec 21, 16:45";
shapes = (
{
closed = 1;
nodes = (
(709,-68,o),
(709,-265,cs),
(709,-402,o),
(684,-485,o),
(642,-485,cs),
(611,-485,o),
(597,-463,o),
(597,-414,cs),
(597,-296,o),
(515,-217,o),
(391,-217,cs),
(261,-217,o),
(171,-300,o),
(171,-443,cs),
(171,-567,o),
(233,-700,o),
(475,-700,cs),
(695,-700,o),
(829,-533,o),
(829,-258,cs),
(830,1356,ls),
(830,1709,o),
(872,1771,o),
(1110,1771,c),
(1110,1850,l),
(100,1850,l),
(100,1771,l),
(338,1771,o),
(380,1709,o),
(380,1356,cs),
(380,0,l),
(626,-1,o)
);
}
);
userData = {
assembly = "PUSHW[ ]	/* 1 value pushed */
0 
CALL[ ]	/* CallFunction */
SVTCA[0]	/* SetFreedomAndProjectionVectorToAxis */
PUSHW[ ]	/* 1 value pushed */
0 
RCVT[ ]	/* ReadCVT */
IF[ ]	/* If */
PUSHW[ ]	/* 1 value pushed */
6 
MDAP[1]	/* MoveDirectAbsPt */
ELSE[ ]	/* Else */
PUSHW[ ]	/* 2 values pushed */
6 7 
MIAP[0]	/* MoveIndirectAbsPt */
EIF[ ]	/* EndIf */
PUSHW[ ]	/* 1 value pushed */
0 
RCVT[ ]	/* ReadCVT */
IF[ ]	/* If */
PUSHW[ ]	/* 1 value pushed */
13 
MDAP[1]	/* MoveDirectAbsPt */
ELSE[ ]	/* Else */
PUSHW[ ]	/* 2 values pushed */
13 7 
MIAP[0]	/* MoveIndirectAbsPt */
EIF[ ]	/* EndIf */
PUSHW[ ]	/* 1 value pushed */
0 
RCVT[ ]	/* ReadCVT */
IF[ ]	/* If */
PUSHW[ ]	/* 1 value pushed */
23 
MDAP[1]	/* MoveDirectAbsPt */
ELSE[ ]	/* Else */
PUSHW[ ]	/* 2 values pushed */
23 1 
MIAP[0]	/* MoveIndirectAbsPt */
EIF[ ]	/* EndIf */
PUSHW[ ]	/* 1 value pushed */
0 
MDRP[11100]	/* MoveDirectRelPt */
PUSHW[ ]	/* 1 value pushed */
6 
SRP0[ ]	/* SetRefPoint0 */
PUSHW[ ]	/* 1 value pushed */
5 
MDRP[11100]	/* MoveDirectRelPt */
PUSHW[ ]	/* 1 value pushed */
15 
MDRP[10000]	/* MoveDirectRelPt */
IUP[0]	/* InterpolateUntPts */
IUP[1]	/* InterpolateUntPts */";
};
width = 1210;
}
);
note = J;
unicode = 74;
},
{
glyphname = K;
kernLeft = uni0412;
kernRight = uni042F;
lastChange = "2021-12-11 15:49:45 +0000";
layers = (
{
anchors = (
{
name = bottom;
pos = (1189,0);
},
{
name = center;
pos = (1189,925);
},
{
name = top;
pos = (1189,1850);
},
{
name = topleft;
pos = (30,1850);
}
);
layerId = "E4BC606E-CD30-42C5-8BF2-1DD2ABB89119";
shapes = (
{
closed = 1;
nodes = (
(1054,0,l),
(1054,79,l),
(855,79,o),
(820,141,o),
(820,494,cs),
(820,1356,ls),
(820,1709,o),
(855,1771,o),
(1054,1771,c),
(1054,1850,l),
(100,1850,l),
(100,1771,l),
(338,1771,o),
(380,1709,o),
(380,1356,cs),
(380,494,ls),
(380,141,o),
(338,79,o),
(100,79,c),
(100,0,l)
);
},
{
closed = 1;
nodes = (
(1457,920,l),
(1787,920,o),
(1897,1018,o),
(1897,1310,cs),
(1897,1751,o),
(1911,1770,o),
(2157,1770,c),
(2157,1850,l),
(1737,1850,ls),
(1509,1850,o),
(1429,1759,o),
(1428,1502,cs),
(1427,1310,ls),
(1425,1024,o),
(1407,990,o),
(1177,990,c),
(666,990,l),
(666,890,l),
(1177,890,l)
);
},
{
closed = 1;
nodes = (
(1177,890,l),
(1434,890,o),
(1455,865,o),
(1457,540,cs),
(1458,348,ls),
(1459,91,o),
(1539,0,o),
(1767,0,cs),
(2187,0,l),
(2187,80,l),
(1941,80,o),
(1927,104,o),
(1927,540,cs),
(1927,876,o),
(1810,960,o),
(1457,960,c),
(1177,990,l)
);
}
);
userData = {
assembly = "PUSHW[ ]	/* 1 value pushed */
0 
CALL[ ]	/* CallFunction */
SVTCA[0]	/* SetFreedomAndProjectionVectorToAxis */
PUSHW[ ]	/* 1 value pushed */
0 
RCVT[ ]	/* ReadCVT */
IF[ ]	/* If */
PUSHW[ ]	/* 1 value pushed */
0 
MDAP[1]	/* MoveDirectAbsPt */
ELSE[ ]	/* Else */
PUSHW[ ]	/* 2 values pushed */
0 7 
MIAP[0]	/* MoveIndirectAbsPt */
EIF[ ]	/* EndIf */
PUSHW[ ]	/* 1 value pushed */
0 
RCVT[ ]	/* ReadCVT */
IF[ ]	/* If */
PUSHW[ ]	/* 1 value pushed */
7 
MDAP[1]	/* MoveDirectAbsPt */
ELSE[ ]	/* Else */
PUSHW[ ]	/* 2 values pushed */
7 7 
MIAP[0]	/* MoveIndirectAbsPt */
EIF[ ]	/* EndIf */
PUSHW[ ]	/* 1 value pushed */
0 
RCVT[ ]	/* ReadCVT */
IF[ ]	/* If */
PUSHW[ ]	/* 1 value pushed */
21 
MDAP[1]	/* MoveDirectAbsPt */
ELSE[ ]	/* Else */
PUSHW[ ]	/* 2 values pushed */
21 7 
MIAP[0]	/* MoveIndirectAbsPt */
EIF[ ]	/* EndIf */
PUSHW[ ]	/* 1 value pushed */
0 
RCVT[ ]	/* ReadCVT */
IF[ ]	/* If */
PUSHW[ ]	/* 1 value pushed */
36 
MDAP[1]	/* MoveDirectAbsPt */
ELSE[ ]	/* Else */
PUSHW[ ]	/* 2 values pushed */
36 1 
MIAP[0]	/* MoveIndirectAbsPt */
EIF[ ]	/* EndIf */
PUSHW[ ]	/* 1 value pushed */
0 
RCVT[ ]	/* ReadCVT */
IF[ ]	/* If */
PUSHW[ ]	/* 1 value pushed */
50 
MDAP[1]	/* MoveDirectAbsPt */
ELSE[ ]	/* Else */
PUSHW[ ]	/* 2 values pushed */
50 1 
MIAP[0]	/* MoveIndirectAbsPt */
EIF[ ]	/* EndIf */
PUSHW[ ]	/* 1 value pushed */
0 
RCVT[ ]	/* ReadCVT */
IF[ ]	/* If */
PUSHW[ ]	/* 1 value pushed */
57 
MDAP[1]	/* MoveDirectAbsPt */
ELSE[ ]	/* Else */
PUSHW[ ]	/* 2 values pushed */
57 1 
MIAP[0]	/* MoveIndirectAbsPt */
EIF[ ]	/* EndIf */
PUSHW[ ]	/* 3 values pushed */
13 45 3 
CALL[ ]	/* CallFunction */
PUSHW[ ]	/* 1 value pushed */
7 
SRP0[ ]	/* SetRefPoint0 */
PUSHW[ ]	/* 1 value pushed */
9 
MDRP[11100]	/* MoveDirectRelPt */
PUSHW[ ]	/* 1 value pushed */
23 
MDRP[10000]	/* MoveDirectRelPt */
PUSHW[ ]	/* 3 values pushed */
29 45 13 
SRP1[ ]	/* SetRefPoint1 */
SRP2[ ]	/* SetRefPoint2 */
IP[ ]	/* InterpolatePts */
PUSHW[ ]	/* 1 value pushed */
36 
SRP0[ ]	/* SetRefPoint0 */
PUSHW[ ]	/* 1 value pushed */
35 
MDRP[11100]	/* MoveDirectRelPt */
PUSHW[ ]	/* 1 value pushed */
49 
MDRP[10000]	/* MoveDirectRelPt */
PUSHW[ ]	/* 1 value pushed */
59 
MDRP[10000]	/* MoveDirectRelPt */
PUSHW[ ]	/* 1 value pushed */
23 
SRP0[ ]	/* SetRefPoint0 */
PUSHW[ ]	/* 1 value pushed */
64 
MDRP[10000]	/* MoveDirectRelPt */
IUP[0]	/* InterpolateUntPts */
IUP[1]	/* InterpolateUntPts */";
};
width = 2267;
}
);
note = K;
unicode = 75;
},
{
glyphname = L;
kernLeft = uni0412;
kernRight = uni0431;
lastChange = "2021-12-16 22:15:18 +0000";
layers = (
{
anchors = (
{
name = bottom;
pos = (903,0);
},
{
name = ogonek;
pos = (1609,10);
},
{
name = top;
pos = (659,1850);
},
{
name = topleft;
pos = (40,1850);
}
);
layerId = "E4BC606E-CD30-42C5-8BF2-1DD2ABB89119";
shapes = (
{
closed = 1;
nodes = (
(1661,0,l),
(1611,570,l),
(1511,570,l),
(1478,264,o),
(1355,120,o),
(1074,120,cs),
(881,120,o),
(840,175,o),
(840,493,cs),
(840,1356,ls),
(840,1719,o),
(888,1771,o),
(1220,1771,c),
(1220,1850,l),
(100,1850,l),
(100,1771,l),
(355,1771,o),
(400,1709,o),
(400,1356,cs),
(400,493,ls),
(400,141,o),
(355,79,o),
(100,79,c),
(100,0,l)
);
}
);
userData = {
assembly = "PUSHW[ ]	/* 1 value pushed */
0 
CALL[ ]	/* CallFunction */
SVTCA[0]	/* SetFreedomAndProjectionVectorToAxis */
PUSHW[ ]	/* 1 value pushed */
0 
RCVT[ ]	/* ReadCVT */
IF[ ]	/* If */
PUSHW[ ]	/* 1 value pushed */
0 
MDAP[1]	/* MoveDirectAbsPt */
ELSE[ ]	/* Else */
PUSHW[ ]	/* 2 values pushed */
0 7 
MIAP[0]	/* MoveIndirectAbsPt */
EIF[ ]	/* EndIf */
PUSHW[ ]	/* 1 value pushed */
0 
RCVT[ ]	/* ReadCVT */
IF[ ]	/* If */
PUSHW[ ]	/* 1 value pushed */
7 
MDAP[1]	/* MoveDirectAbsPt */
ELSE[ ]	/* Else */
PUSHW[ ]	/* 2 values pushed */
7 7 
MIAP[0]	/* MoveIndirectAbsPt */
EIF[ ]	/* EndIf */
PUSHW[ ]	/* 1 value pushed */
0 
RCVT[ ]	/* ReadCVT */
IF[ ]	/* If */
PUSHW[ ]	/* 1 value pushed */
24 
MDAP[1]	/* MoveDirectAbsPt */
ELSE[ ]	/* Else */
PUSHW[ ]	/* 2 values pushed */
24 1 
MIAP[0]	/* MoveIndirectAbsPt */
EIF[ ]	/* EndIf */
PUSHW[ ]	/* 1 value pushed */
0 
RCVT[ ]	/* ReadCVT */
IF[ ]	/* If */
PUSHW[ ]	/* 1 value pushed */
31 
MDAP[1]	/* MoveDirectAbsPt */
ELSE[ ]	/* Else */
PUSHW[ ]	/* 2 values pushed */
31 1 
MIAP[0]	/* MoveIndirectAbsPt */
EIF[ ]	/* EndIf */
PUSHW[ ]	/* 1 value pushed */
7 
SRP0[ ]	/* SetRefPoint0 */
PUSHW[ ]	/* 1 value pushed */
9 
MDRP[11100]	/* MoveDirectRelPt */
PUSHW[ ]	/* 1 value pushed */
31 
SRP0[ ]	/* SetRefPoint0 */
PUSHW[ ]	/* 1 value pushed */
14 
MDRP[11100]	/* MoveDirectRelPt */
PUSHW[ ]	/* 1 value pushed */
15 
MDRP[10000]	/* MoveDirectRelPt */
PUSHW[ ]	/* 1 value pushed */
33 
MDRP[10000]	/* MoveDirectRelPt */
PUSHW[ ]	/* 1 value pushed */
9 
SRP0[ ]	/* SetRefPoint0 */
PUSHW[ ]	/* 1 value pushed */
38 
MDRP[10000]	/* MoveDirectRelPt */
SVTCA[1]	/* SetFreedomAndProjectionVectorToAxis */
PUSHW[ ]	/* 3 values pushed */
23 22 3 
CALL[ ]	/* CallFunction */
PUSHW[ ]	/* 1 value pushed */
23 
SRP0[ ]	/* SetRefPoint0 */
PUSHW[ ]	/* 1 value pushed */
40 
MDRP[11100]	/* MoveDirectRelPt */
IUP[0]	/* InterpolateUntPts */
IUP[1]	/* InterpolateUntPts */";
};
width = 1726;
}
);
metricLeft = H;
note = L;
unicode = 76;
},
{
glyphname = Lslash;
lastChange = "2021-12-13 09:06:42 +0000";
layers = (
{
anchors = (
{
name = bottom;
pos = (903,0);
},
{
name = ogonek;
pos = (1609,10);
},
{
name = top;
pos = (933,1850);
},
{
name = topleft;
pos = (40,1850);
}
);
layerId = "E4BC606E-CD30-42C5-8BF2-1DD2ABB89119";
shapes = (
{
closed = 1;
nodes = (
(1661,0,l),
(1611,570,l),
(1511,570,l),
(1478,264,o),
(1355,120,o),
(1074,120,cs),
(881,120,o),
(840,175,o),
(840,493,cs),
(840,1356,ls),
(840,1719,o),
(888,1771,o),
(1220,1771,c),
(1220,1850,l),
(100,1850,l),
(100,1771,l),
(355,1771,o),
(400,1709,o),
(400,1356,cs),
(400,493,ls),
(400,141,o),
(355,79,o),
(100,79,c),
(100,0,l)
);
},
{
closed = 1;
nodes = (
(1138,991,l),
(1079,1150,l),
(127,798,l),
(186,639,l)
);
}
);
width = 1726;
}
);
unicode = 321;
},
{
glyphname = M;
kernLeft = uni0412;
kernRight = uni042F;
lastChange = "2021-12-11 16:39:07 +0000";
layers = (
{
anchors = (
{
name = bottom;
pos = (1560,0);
},
{
name = top;
pos = (1560,1850);
}
);
layerId = "E4BC606E-CD30-42C5-8BF2-1DD2ABB89119";
shapes = (
{
closed = 1;
nodes = (
(2015,0,l),
(2015,80,l),
(1832,80,o),
(1805,128,o),
(1805,400,cs),
(1805,1785,l),
(1375,1785,l),
(1375,400,ls),
(1375,128,o),
(1351,80,o),
(1185,80,c),
(1185,0,l)
);
},
{
closed = 1;
nodes = (
(820,1516,ls),
(820,1706,o),
(858,1740,o),
(1030,1740,cs),
(1880,1740,ls),
(2266,1740,o),
(2340,1719,o),
(2340,1450,cs),
(2340,430,ls),
(2340,65,o),
(2393,0,o),
(2690,0,cs),
(2990,0,l),
(2990,80,l),
(2843,80,o),
(2780,185,o),
(2780,430,cs),
(2780,1450,ls),
(2780,1770,o),
(2670,1850,o),
(2330,1850,cs),
(100,1849,l),
(100,1770,l),
(335,1770,o),
(380,1708,o),
(380,1356,cs),
(380,430,ls),
(380,146,o),
(330,80,o),
(120,80,c),
(120,0,l),
(1030,0,l),
(1030,80,l),
(847,80,o),
(820,140,o),
(820,430,cs)
);
}
);
userData = {
assembly = "PUSHW[ ]	/* 1 value pushed */
0 
CALL[ ]	/* CallFunction */
SVTCA[0]	/* SetFreedomAndProjectionVectorToAxis */
PUSHW[ ]	/* 1 value pushed */
0 
RCVT[ ]	/* ReadCVT */
IF[ ]	/* If */
PUSHW[ ]	/* 1 value pushed */
0 
MDAP[1]	/* MoveDirectAbsPt */
ELSE[ ]	/* Else */
PUSHW[ ]	/* 2 values pushed */
0 7 
MIAP[0]	/* MoveIndirectAbsPt */
EIF[ ]	/* EndIf */
PUSHW[ ]	/* 1 value pushed */
0 
RCVT[ ]	/* ReadCVT */
IF[ ]	/* If */
PUSHW[ ]	/* 1 value pushed */
6 
MDAP[1]	/* MoveDirectAbsPt */
ELSE[ ]	/* Else */
PUSHW[ ]	/* 2 values pushed */
6 7 
MIAP[0]	/* MoveIndirectAbsPt */
EIF[ ]	/* EndIf */
PUSHW[ ]	/* 1 value pushed */
0 
RCVT[ ]	/* ReadCVT */
IF[ ]	/* If */
PUSHW[ ]	/* 1 value pushed */
15 
MDAP[1]	/* MoveDirectAbsPt */
ELSE[ ]	/* Else */
PUSHW[ ]	/* 2 values pushed */
15 7 
MIAP[0]	/* MoveIndirectAbsPt */
EIF[ ]	/* EndIf */
PUSHW[ ]	/* 1 value pushed */
0 
RCVT[ ]	/* ReadCVT */
IF[ ]	/* If */
PUSHW[ ]	/* 1 value pushed */
22 
MDAP[1]	/* MoveDirectAbsPt */
ELSE[ ]	/* Else */
PUSHW[ ]	/* 2 values pushed */
22 7 
MIAP[0]	/* MoveIndirectAbsPt */
EIF[ ]	/* EndIf */
PUSHW[ ]	/* 1 value pushed */
0 
RCVT[ ]	/* ReadCVT */
IF[ ]	/* If */
PUSHW[ ]	/* 1 value pushed */
30 
MDAP[1]	/* MoveDirectAbsPt */
ELSE[ ]	/* Else */
PUSHW[ ]	/* 2 values pushed */
30 1 
MIAP[0]	/* MoveIndirectAbsPt */
EIF[ ]	/* EndIf */
PUSHW[ ]	/* 1 value pushed */
0 
RCVT[ ]	/* ReadCVT */
IF[ ]	/* If */
PUSHW[ ]	/* 1 value pushed */
37 
MDAP[1]	/* MoveDirectAbsPt */
ELSE[ ]	/* Else */
PUSHW[ ]	/* 2 values pushed */
37 1 
MIAP[0]	/* MoveIndirectAbsPt */
EIF[ ]	/* EndIf */
PUSHW[ ]	/* 1 value pushed */
0 
RCVT[ ]	/* ReadCVT */
IF[ ]	/* If */
PUSHW[ ]	/* 1 value pushed */
48 
MDAP[1]	/* MoveDirectAbsPt */
ELSE[ ]	/* Else */
PUSHW[ ]	/* 2 values pushed */
48 1 
MIAP[0]	/* MoveIndirectAbsPt */
EIF[ ]	/* EndIf */
PUSHW[ ]	/* 1 value pushed */
0 
RCVT[ ]	/* ReadCVT */
IF[ ]	/* If */
PUSHW[ ]	/* 1 value pushed */
55 
MDAP[1]	/* MoveDirectAbsPt */
ELSE[ ]	/* Else */
PUSHW[ ]	/* 2 values pushed */
55 1 
MIAP[0]	/* MoveIndirectAbsPt */
EIF[ ]	/* EndIf */
PUSHW[ ]	/* 1 value pushed */
15 
SRP0[ ]	/* SetRefPoint0 */
PUSHW[ ]	/* 1 value pushed */
8 
MDRP[11100]	/* MoveDirectRelPt */
PUSHW[ ]	/* 1 value pushed */
14 
MDRP[10000]	/* MoveDirectRelPt */
PUSHW[ ]	/* 1 value pushed */
24 
MDRP[10000]	/* MoveDirectRelPt */
PUSHW[ ]	/* 1 value pushed */
30 
SRP0[ ]	/* SetRefPoint0 */
PUSHW[ ]	/* 1 value pushed */
29 
MDRP[11100]	/* MoveDirectRelPt */
PUSHW[ ]	/* 1 value pushed */
39 
MDRP[10000]	/* MoveDirectRelPt */
PUSHW[ ]	/* 3 values pushed */
42 30 0 
SRP1[ ]	/* SetRefPoint1 */
SRP2[ ]	/* SetRefPoint2 */
IP[ ]	/* InterpolatePts */
PUSHW[ ]	/* 3 values pushed */
44 30 0 
SRP1[ ]	/* SetRefPoint1 */
SRP2[ ]	/* SetRefPoint2 */
IP[ ]	/* InterpolatePts */
PUSHW[ ]	/* 1 value pushed */
47 
MDRP[10000]	/* MoveDirectRelPt */
PUSHW[ ]	/* 1 value pushed */
57 
MDRP[10000]	/* MoveDirectRelPt */
PUSHW[ ]	/* 1 value pushed */
24 
SRP0[ ]	/* SetRefPoint0 */
PUSHW[ ]	/* 1 value pushed */
62 
MDRP[10000]	/* MoveDirectRelPt */
IUP[0]	/* InterpolateUntPts */
IUP[1]	/* InterpolateUntPts */";
};
width = 3110;
},
{
associatedMasterId = "E4BC606E-CD30-42C5-8BF2-1DD2ABB89119";
layerId = "AAD49058-ED21-4BC6-B7B2-9536A770E512";
name = "11 Dec 21, 17:02";
shapes = (
{
closed = 1;
nodes = (
(430,0,ls),
(728,0,o),
(780,65,o),
(780,430,cs),
(780,1450,ls),
(780,1717,o),
(862,1740,o),
(1220,1740,cs),
(1820,1740,ls),
(2189,1740,o),
(2260,1719,o),
(2260,1450,cs),
(2260,430,ls),
(2260,65,o),
(2313,0,o),
(2610,0,cs),
(2910,0,l),
(2910,80,l),
(2763,80,o),
(2700,185,o),
(2700,430,cs),
(2700,1450,ls),
(2700,1770,o),
(2590,1850,o),
(2250,1850,cs),
(790,1850,ls),
(461,1850,o),
(340,1770,o),
(340,1450,cs),
(340,430,ls),
(340,185,o),
(277,80,o),
(130,80,c),
(130,0,l)
);
},
{
closed = 1;
nodes = (
(1995,0,l),
(1995,80,l),
(1768,80,o),
(1735,128,o),
(1735,400,cs),
(1735,1785,l),
(1305,1785,l),
(1305,400,ls),
(1305,128,o),
(1272,80,o),
(1045,80,c),
(1045,0,l)
);
}
);
userData = {
assembly = "PUSHW[ ]	/* 1 value pushed */
0 
CALL[ ]	/* CallFunction */
SVTCA[0]	/* SetFreedomAndProjectionVectorToAxis */
PUSHW[ ]	/* 1 value pushed */
0 
RCVT[ ]	/* ReadCVT */
IF[ ]	/* If */
PUSHW[ ]	/* 1 value pushed */
0 
MDAP[1]	/* MoveDirectAbsPt */
ELSE[ ]	/* Else */
PUSHW[ ]	/* 2 values pushed */
0 7 
MIAP[0]	/* MoveIndirectAbsPt */
EIF[ ]	/* EndIf */
PUSHW[ ]	/* 1 value pushed */
0 
RCVT[ ]	/* ReadCVT */
IF[ ]	/* If */
PUSHW[ ]	/* 1 value pushed */
6 
MDAP[1]	/* MoveDirectAbsPt */
ELSE[ ]	/* Else */
PUSHW[ ]	/* 2 values pushed */
6 7 
MIAP[0]	/* MoveIndirectAbsPt */
EIF[ ]	/* EndIf */
PUSHW[ ]	/* 1 value pushed */
0 
RCVT[ ]	/* ReadCVT */
IF[ ]	/* If */
PUSHW[ ]	/* 1 value pushed */
15 
MDAP[1]	/* MoveDirectAbsPt */
ELSE[ ]	/* Else */
PUSHW[ ]	/* 2 values pushed */
15 7 
MIAP[0]	/* MoveIndirectAbsPt */
EIF[ ]	/* EndIf */
PUSHW[ ]	/* 1 value pushed */
0 
RCVT[ ]	/* ReadCVT */
IF[ ]	/* If */
PUSHW[ ]	/* 1 value pushed */
22 
MDAP[1]	/* MoveDirectAbsPt */
ELSE[ ]	/* Else */
PUSHW[ ]	/* 2 values pushed */
22 7 
MIAP[0]	/* MoveIndirectAbsPt */
EIF[ ]	/* EndIf */
PUSHW[ ]	/* 1 value pushed */
0 
RCVT[ ]	/* ReadCVT */
IF[ ]	/* If */
PUSHW[ ]	/* 1 value pushed */
30 
MDAP[1]	/* MoveDirectAbsPt */
ELSE[ ]	/* Else */
PUSHW[ ]	/* 2 values pushed */
30 1 
MIAP[0]	/* MoveIndirectAbsPt */
EIF[ ]	/* EndIf */
PUSHW[ ]	/* 1 value pushed */
0 
RCVT[ ]	/* ReadCVT */
IF[ ]	/* If */
PUSHW[ ]	/* 1 value pushed */
37 
MDAP[1]	/* MoveDirectAbsPt */
ELSE[ ]	/* Else */
PUSHW[ ]	/* 2 values pushed */
37 1 
MIAP[0]	/* MoveIndirectAbsPt */
EIF[ ]	/* EndIf */
PUSHW[ ]	/* 1 value pushed */
0 
RCVT[ ]	/* ReadCVT */
IF[ ]	/* If */
PUSHW[ ]	/* 1 value pushed */
48 
MDAP[1]	/* MoveDirectAbsPt */
ELSE[ ]	/* Else */
PUSHW[ ]	/* 2 values pushed */
48 1 
MIAP[0]	/* MoveIndirectAbsPt */
EIF[ ]	/* EndIf */
PUSHW[ ]	/* 1 value pushed */
0 
RCVT[ ]	/* ReadCVT */
IF[ ]	/* If */
PUSHW[ ]	/* 1 value pushed */
55 
MDAP[1]	/* MoveDirectAbsPt */
ELSE[ ]	/* Else */
PUSHW[ ]	/* 2 values pushed */
55 1 
MIAP[0]	/* MoveIndirectAbsPt */
EIF[ ]	/* EndIf */
PUSHW[ ]	/* 1 value pushed */
15 
SRP0[ ]	/* SetRefPoint0 */
PUSHW[ ]	/* 1 value pushed */
8 
MDRP[11100]	/* MoveDirectRelPt */
PUSHW[ ]	/* 1 value pushed */
14 
MDRP[10000]	/* MoveDirectRelPt */
PUSHW[ ]	/* 1 value pushed */
24 
MDRP[10000]	/* MoveDirectRelPt */
PUSHW[ ]	/* 1 value pushed */
30 
SRP0[ ]	/* SetRefPoint0 */
PUSHW[ ]	/* 1 value pushed */
29 
MDRP[11100]	/* MoveDirectRelPt */
PUSHW[ ]	/* 1 value pushed */
39 
MDRP[10000]	/* MoveDirectRelPt */
PUSHW[ ]	/* 3 values pushed */
42 30 0 
SRP1[ ]	/* SetRefPoint1 */
SRP2[ ]	/* SetRefPoint2 */
IP[ ]	/* InterpolatePts */
PUSHW[ ]	/* 3 values pushed */
44 30 0 
SRP1[ ]	/* SetRefPoint1 */
SRP2[ ]	/* SetRefPoint2 */
IP[ ]	/* InterpolatePts */
PUSHW[ ]	/* 1 value pushed */
47 
MDRP[10000]	/* MoveDirectRelPt */
PUSHW[ ]	/* 1 value pushed */
57 
MDRP[10000]	/* MoveDirectRelPt */
PUSHW[ ]	/* 1 value pushed */
24 
SRP0[ ]	/* SetRefPoint0 */
PUSHW[ ]	/* 1 value pushed */
62 
MDRP[10000]	/* MoveDirectRelPt */
IUP[0]	/* InterpolateUntPts */
IUP[1]	/* InterpolateUntPts */";
};
width = 3040;
}
);
metricLeft = H;
note = M;
unicode = 77;
},
{
glyphname = N;
kernLeft = uni0412;
kernRight = uni042F;
lastChange = "2021-12-13 00:11:51 +0000";
layers = (
{
anchors = (
{
name = bottom;
pos = (1115,0);
},
{
name = top;
pos = (1085,1850);
}
);
layerId = "E4BC606E-CD30-42C5-8BF2-1DD2ABB89119";
shapes = (
{
closed = 1;
nodes = (
(1070,0,l),
(1070,80,l),
(861,80,o),
(830,136,o),
(830,408,cs),
(830,1516,ls),
(830,1706,o),
(867,1740,o),
(1160,1740,cs),
(1421,1740,o),
(1490,1719,o),
(1490,1450,cs),
(1490,430,ls),
(1490,65,o),
(1545,0,o),
(1850,0,cs),
(2150,0,l),
(2150,80,l),
(2003,80,o),
(1940,185,o),
(1940,430,cs),
(1940,1450,ls),
(1940,1770,o),
(1830,1850,o),
(1490,1850,cs),
(100,1849,l),
(100,1770,l),
(335,1770,o),
(380,1708,o),
(380,1356,cs),
(380,430,ls),
(380,146,o),
(330,80,o),
(120,80,c),
(120,0,l)
);
}
);
userData = {
assembly = "PUSHW[ ]	/* 1 value pushed */
0 
CALL[ ]	/* CallFunction */
SVTCA[0]	/* SetFreedomAndProjectionVectorToAxis */
PUSHW[ ]	/* 1 value pushed */
0 
RCVT[ ]	/* ReadCVT */
IF[ ]	/* If */
PUSHW[ ]	/* 1 value pushed */
0 
MDAP[1]	/* MoveDirectAbsPt */
ELSE[ ]	/* Else */
PUSHW[ ]	/* 2 values pushed */
0 7 
MIAP[0]	/* MoveIndirectAbsPt */
EIF[ ]	/* EndIf */
PUSHW[ ]	/* 1 value pushed */
0 
RCVT[ ]	/* ReadCVT */
IF[ ]	/* If */
PUSHW[ ]	/* 1 value pushed */
6 
MDAP[1]	/* MoveDirectAbsPt */
ELSE[ ]	/* Else */
PUSHW[ ]	/* 2 values pushed */
6 7 
MIAP[0]	/* MoveIndirectAbsPt */
EIF[ ]	/* EndIf */
PUSHW[ ]	/* 1 value pushed */
0 
RCVT[ ]	/* ReadCVT */
IF[ ]	/* If */
PUSHW[ ]	/* 1 value pushed */
15 
MDAP[1]	/* MoveDirectAbsPt */
ELSE[ ]	/* Else */
PUSHW[ ]	/* 2 values pushed */
15 7 
MIAP[0]	/* MoveIndirectAbsPt */
EIF[ ]	/* EndIf */
PUSHW[ ]	/* 1 value pushed */
0 
RCVT[ ]	/* ReadCVT */
IF[ ]	/* If */
PUSHW[ ]	/* 1 value pushed */
22 
MDAP[1]	/* MoveDirectAbsPt */
ELSE[ ]	/* Else */
PUSHW[ ]	/* 2 values pushed */
22 7 
MIAP[0]	/* MoveIndirectAbsPt */
EIF[ ]	/* EndIf */
PUSHW[ ]	/* 1 value pushed */
0 
RCVT[ ]	/* ReadCVT */
IF[ ]	/* If */
PUSHW[ ]	/* 1 value pushed */
30 
MDAP[1]	/* MoveDirectAbsPt */
ELSE[ ]	/* Else */
PUSHW[ ]	/* 2 values pushed */
30 1 
MIAP[0]	/* MoveIndirectAbsPt */
EIF[ ]	/* EndIf */
PUSHW[ ]	/* 1 value pushed */
0 
RCVT[ ]	/* ReadCVT */
IF[ ]	/* If */
PUSHW[ ]	/* 1 value pushed */
37 
MDAP[1]	/* MoveDirectAbsPt */
ELSE[ ]	/* Else */
PUSHW[ ]	/* 2 values pushed */
37 1 
MIAP[0]	/* MoveIndirectAbsPt */
EIF[ ]	/* EndIf */
PUSHW[ ]	/* 1 value pushed */
0 
RCVT[ ]	/* ReadCVT */
IF[ ]	/* If */
PUSHW[ ]	/* 1 value pushed */
46 
MDAP[1]	/* MoveDirectAbsPt */
ELSE[ ]	/* Else */
PUSHW[ ]	/* 2 values pushed */
46 1 
MIAP[0]	/* MoveIndirectAbsPt */
EIF[ ]	/* EndIf */
PUSHW[ ]	/* 1 value pushed */
0 
RCVT[ ]	/* ReadCVT */
IF[ ]	/* If */
PUSHW[ ]	/* 1 value pushed */
53 
MDAP[1]	/* MoveDirectAbsPt */
ELSE[ ]	/* Else */
PUSHW[ ]	/* 2 values pushed */
53 1 
MIAP[0]	/* MoveIndirectAbsPt */
EIF[ ]	/* EndIf */
PUSHW[ ]	/* 1 value pushed */
15 
SRP0[ ]	/* SetRefPoint0 */
PUSHW[ ]	/* 1 value pushed */
8 
MDRP[11100]	/* MoveDirectRelPt */
PUSHW[ ]	/* 3 values pushed */
11 30 0 
SRP1[ ]	/* SetRefPoint1 */
SRP2[ ]	/* SetRefPoint2 */
IP[ ]	/* InterpolatePts */
PUSHW[ ]	/* 1 value pushed */
14 
MDRP[10000]	/* MoveDirectRelPt */
PUSHW[ ]	/* 1 value pushed */
24 
MDRP[10000]	/* MoveDirectRelPt */
PUSHW[ ]	/* 1 value pushed */
30 
SRP0[ ]	/* SetRefPoint0 */
PUSHW[ ]	/* 1 value pushed */
29 
MDRP[11100]	/* MoveDirectRelPt */
PUSHW[ ]	/* 1 value pushed */
39 
MDRP[10000]	/* MoveDirectRelPt */
PUSHW[ ]	/* 3 values pushed */
42 30 0 
SRP1[ ]	/* SetRefPoint1 */
SRP2[ ]	/* SetRefPoint2 */
IP[ ]	/* InterpolatePts */
PUSHW[ ]	/* 1 value pushed */
45 
MDRP[10000]	/* MoveDirectRelPt */
PUSHW[ ]	/* 1 value pushed */
55 
MDRP[10000]	/* MoveDirectRelPt */
PUSHW[ ]	/* 1 value pushed */
24 
SRP0[ ]	/* SetRefPoint0 */
PUSHW[ ]	/* 1 value pushed */
60 
MDRP[10000]	/* MoveDirectRelPt */
IUP[0]	/* InterpolateUntPts */
IUP[1]	/* InterpolateUntPts */";
};
width = 2230;
}
);
metricLeft = H;
note = N;
unicode = 78;
},
{
glyphname = O;
kernLeft = uni041E;
kernRight = uni041E;
lastChange = "2021-12-13 00:11:55 +0000";
layers = (
{
anchors = (
{
name = bottom;
pos = (1005,0);
},
{
name = center;
pos = (1005,925);
},
{
name = ogonek;
pos = (1809,10);
},
{
name = top;
pos = (1005,1850);
},
{
name = topleft;
pos = (20,1850);
},
{
name = topright;
pos = (1990,1850);
}
);
layerId = "E4BC606E-CD30-42C5-8BF2-1DD2ABB89119";
shapes = (
{
closed = 1;
nodes = (
(1825,1357,ls),
(1825,1677,o),
(1642,1850,o),
(1325,1850,cs),
(685,1850,ls),
(367,1850,o),
(185,1677,o),
(185,1357,cs),
(185,493,ls),
(185,173,o),
(367,0,o),
(685,0,cs),
(1325,0,ls),
(1642,0,o),
(1825,173,o),
(1825,493,cs)
);
},
{
closed = 1;
nodes = (
(1365,493,ls),
(1365,197,o),
(1293,123,o),
(1005,123,cs),
(717,123,o),
(645,197,o),
(645,493,cs),
(645,1357,ls),
(645,1653,o),
(717,1727,o),
(1005,1727,cs),
(1293,1727,o),
(1365,1653,o),
(1365,1357,cs)
);
}
);
userData = {
assembly = "PUSHW[ ]	/* 1 value pushed */
0 
CALL[ ]	/* CallFunction */
SVTCA[0]	/* SetFreedomAndProjectionVectorToAxis */
PUSHW[ ]	/* 1 value pushed */
0 
RCVT[ ]	/* ReadCVT */
IF[ ]	/* If */
PUSHW[ ]	/* 1 value pushed */
6 
MDAP[1]	/* MoveDirectAbsPt */
ELSE[ ]	/* Else */
PUSHW[ ]	/* 2 values pushed */
6 7 
MIAP[0]	/* MoveIndirectAbsPt */
EIF[ ]	/* EndIf */
PUSHW[ ]	/* 1 value pushed */
0 
RCVT[ ]	/* ReadCVT */
IF[ ]	/* If */
PUSHW[ ]	/* 1 value pushed */
18 
MDAP[1]	/* MoveDirectAbsPt */
ELSE[ ]	/* Else */
PUSHW[ ]	/* 2 values pushed */
18 1 
MIAP[0]	/* MoveIndirectAbsPt */
EIF[ ]	/* EndIf */
PUSHW[ ]	/* 1 value pushed */
26 
MDRP[11100]	/* MoveDirectRelPt */
NPUSHW[ ]	/* 27 values pushed */
7 26 23 26 39 26 55 26 71 26 87 26 103 26 119 26 135 26 151 26 167 26 183 26 199 26 13 
DELTAP1[ ]	/* DeltaExceptionP1 */
NPUSHW[ ]	/* 5 values pushed */
214 26 230 26 2 
DELTAP1[ ]	/* DeltaExceptionP1 */
PUSHW[ ]	/* 1 value pushed */
6 
SRP0[ ]	/* SetRefPoint0 */
PUSHW[ ]	/* 1 value pushed */
31 
MDRP[11100]	/* MoveDirectRelPt */
NPUSHW[ ]	/* 5 values pushed */
217 31 233 31 2 
DELTAP1[ ]	/* DeltaExceptionP1 */
NPUSHW[ ]	/* 27 values pushed */
8 31 24 31 40 31 56 31 72 31 88 31 104 31 120 31 136 31 152 31 168 31 184 31 200 31 13 
DELTAP1[ ]	/* DeltaExceptionP1 */
IUP[0]	/* InterpolateUntPts */
IUP[1]	/* InterpolateUntPts */";
};
width = 2010;
}
);
note = O;
unicode = 79;
},
{
glyphname = Oslash;
lastChange = "2021-12-13 00:18:31 +0000";
layers = (
{
anchors = (
{
name = bottom;
pos = (1005,0);
},
{
name = center;
pos = (1005,925);
},
{
name = ogonek;
pos = (1809,10);
},
{
name = top;
pos = (1005,1850);
},
{
name = topleft;
pos = (20,1850);
},
{
name = topright;
pos = (1990,1850);
}
);
layerId = "E4BC606E-CD30-42C5-8BF2-1DD2ABB89119";
shapes = (
{
closed = 1;
nodes = (
(1825,1357,ls),
(1825,1677,o),
(1642,1850,o),
(1325,1850,cs),
(685,1850,ls),
(367,1850,o),
(185,1677,o),
(185,1357,cs),
(185,493,ls),
(185,173,o),
(367,0,o),
(685,0,cs),
(1325,0,ls),
(1642,0,o),
(1825,173,o),
(1825,493,cs)
);
},
{
closed = 1;
nodes = (
(1365,493,ls),
(1365,197,o),
(1293,123,o),
(1005,123,cs),
(717,123,o),
(645,197,o),
(645,493,cs),
(645,1357,ls),
(645,1653,o),
(717,1727,o),
(1005,1727,cs),
(1293,1727,o),
(1365,1653,o),
(1365,1357,cs)
);
},
{
closed = 1;
nodes = (
(1657,1569,l),
(1526,1678,l),
(365,279,l),
(496,170,l)
);
}
);
width = 2010;
},
{
anchors = (
{
name = bottom;
pos = (1005,0);
},
{
name = center;
pos = (1005,925);
},
{
name = ogonek;
pos = (1809,10);
},
{
name = top;
pos = (1005,1850);
},
{
name = topleft;
pos = (20,1850);
},
{
name = topright;
pos = (1990,1850);
}
);
associatedMasterId = "E4BC606E-CD30-42C5-8BF2-1DD2ABB89119";
layerId = "8E0E6921-2D84-4543-9561-65EC6758549B";
name = "13 Dec 21, 01:18";
shapes = (
{
closed = 1;
nodes = (
(1825,1357,ls),
(1825,1677,o),
(1642,1850,o),
(1325,1850,cs),
(685,1850,ls),
(367,1850,o),
(185,1677,o),
(185,1357,cs),
(185,493,ls),
(185,173,o),
(367,0,o),
(685,0,cs),
(1325,0,ls),
(1642,0,o),
(1825,173,o),
(1825,493,cs)
);
},
{
closed = 1;
nodes = (
(1365,493,ls),
(1365,197,o),
(1293,123,o),
(1005,123,cs),
(717,123,o),
(645,197,o),
(645,493,cs),
(645,1357,ls),
(645,1653,o),
(717,1727,o),
(1005,1727,cs),
(1293,1727,o),
(1365,1653,o),
(1365,1357,cs)
);
},
{
closed = 1;
nodes = (
(1923,1886,l),
(1792,1995,l),
(89,-35,l),
(220,-144,l)
);
}
);
width = 2010;
}
);
unicode = 216;
},
{
glyphname = OE;
lastChange = "2021-12-13 00:19:46 +0000";
layers = (
{
anchors = (
{
name = bottom;
pos = (1494,0);
},
{
name = top;
pos = (1482,1850);
}
);
layerId = "E4BC606E-CD30-42C5-8BF2-1DD2ABB89119";
shapes = (
{
closed = 1;
nodes = (
(2513,0,l),
(2463,570,l),
(2363,570,l),
(2329,264,o),
(2196,120,o),
(1936,120,cs),
(1751,120,o),
(1712,175,o),
(1712,493,cs),
(1712,1357,ls),
(1712,1675,o),
(1751,1730,o),
(1936,1730,cs),
(2196,1730,o),
(2329,1586,o),
(2363,1280,c),
(2463,1280,l),
(2513,1850,l),
(635,1850,ls),
(324,1850,o),
(185,1702,o),
(185,1380,cs),
(185,470,ls),
(185,148,o),
(324,0,o),
(635,0,cs)
);
},
{
closed = 1;
nodes = (
(699,110,o),
(635,178,o),
(635,470,cs),
(635,1380,ls),
(635,1672,o),
(699,1740,o),
(965,1740,cs),
(1212,1740,o),
(1276,1672,o),
(1276,1380,cs),
(1276,470,ls),
(1276,178,o),
(1212,110,o),
(965,110,cs)
);
},
{
closed = 1;
nodes = (
(2200,854,l),
(2200,994,l),
(1468,994,l),
(1468,854,l)
);
}
);
width = 2618;
}
);
metricLeft = O;
metricRight = E;
unicode = 338;
},
{
glyphname = P;
kernLeft = uni0412;
kernRight = uni0420;
lastChange = "2021-12-11 16:08:47 +0000";
layers = (
{
anchors = (
{
name = bottom;
pos = (981,0);
},
{
name = top;
pos = (981,1850);
}
);
layerId = "E4BC606E-CD30-42C5-8BF2-1DD2ABB89119";
shapes = (
{
closed = 1;
nodes = (
(1656,750,o),
(1810,882,o),
(1810,1170,cs),
(1810,1450,ls),
(1810,1710,o),
(1639,1850,o),
(1340,1850,cs),
(100,1850,l),
(100,1771,l),
(338,1771,o),
(380,1709,o),
(380,1356,cs),
(380,494,ls),
(380,141,o),
(338,79,o),
(100,79,c),
(100,0,l),
(1165,0,l),
(1165,79,l),
(863,79,o),
(820,119,o),
(820,400,cs),
(820,750,l),
(1320,750,ls)
);
},
{
closed = 1;
nodes = (
(820,1450,ls),
(820,1750,o),
(820,1750,o),
(1040,1750,cs),
(1285,1750,o),
(1370,1690,o),
(1370,1450,cs),
(1370,1170,ls),
(1370,951,o),
(1282,850,o),
(1040,850,cs),
(820,850,l)
);
}
);
userData = {
assembly = "PUSHW[ ]	/* 1 value pushed */
0 
CALL[ ]	/* CallFunction */
SVTCA[0]	/* SetFreedomAndProjectionVectorToAxis */
PUSHW[ ]	/* 1 value pushed */
0 
RCVT[ ]	/* ReadCVT */
IF[ ]	/* If */
PUSHW[ ]	/* 1 value pushed */
0 
MDAP[1]	/* MoveDirectAbsPt */
ELSE[ ]	/* Else */
PUSHW[ ]	/* 2 values pushed */
0 7 
MIAP[0]	/* MoveIndirectAbsPt */
EIF[ ]	/* EndIf */
PUSHW[ ]	/* 1 value pushed */
0 
RCVT[ ]	/* ReadCVT */
IF[ ]	/* If */
PUSHW[ ]	/* 1 value pushed */
7 
MDAP[1]	/* MoveDirectAbsPt */
ELSE[ ]	/* Else */
PUSHW[ ]	/* 2 values pushed */
7 7 
MIAP[0]	/* MoveIndirectAbsPt */
EIF[ ]	/* EndIf */
PUSHW[ ]	/* 1 value pushed */
0 
RCVT[ ]	/* ReadCVT */
IF[ ]	/* If */
PUSHW[ ]	/* 1 value pushed */
24 
MDAP[1]	/* MoveDirectAbsPt */
ELSE[ ]	/* Else */
PUSHW[ ]	/* 2 values pushed */
24 1 
MIAP[0]	/* MoveIndirectAbsPt */
EIF[ ]	/* EndIf */
PUSHW[ ]	/* 1 value pushed */
0 
RCVT[ ]	/* ReadCVT */
IF[ ]	/* If */
PUSHW[ ]	/* 1 value pushed */
31 
MDAP[1]	/* MoveDirectAbsPt */
ELSE[ ]	/* Else */
PUSHW[ ]	/* 2 values pushed */
31 1 
MIAP[0]	/* MoveIndirectAbsPt */
EIF[ ]	/* EndIf */
PUSHW[ ]	/* 3 values pushed */
40 19 3 
CALL[ ]	/* CallFunction */
PUSHW[ ]	/* 1 value pushed */
24 
SRP0[ ]	/* SetRefPoint0 */
PUSHW[ ]	/* 1 value pushed */
23 
MDRP[11100]	/* MoveDirectRelPt */
PUSHW[ ]	/* 1 value pushed */
33 
MDRP[10000]	/* MoveDirectRelPt */
PUSHW[ ]	/* 1 value pushed */
0 
SRP0[ ]	/* SetRefPoint0 */
PUSHW[ ]	/* 1 value pushed */
38 
MDRP[11100]	/* MoveDirectRelPt */
PUSHW[ ]	/* 1 value pushed */
45 
MDRP[10000]	/* MoveDirectRelPt */
IUP[0]	/* InterpolateUntPts */
IUP[1]	/* InterpolateUntPts */";
};
width = 1962;
}
);
note = P;
unicode = 80;
},
{
glyphname = Thorn;
lastChange = "2021-12-13 00:23:05 +0000";
layers = (
{
anchors = (
{
name = bottom;
pos = (981,0);
},
{
name = top;
pos = (981,1850);
}
);
layerId = "E4BC606E-CD30-42C5-8BF2-1DD2ABB89119";
shapes = (
{
closed = 1;
nodes = (
(1165,0,l),
(1165,79,l),
(863,79,o),
(820,110,o),
(820,330,cs),
(820,410,l),
(1320,410,ls),
(1656,410,o),
(1810,511,o),
(1810,730,cs),
(1810,1120,ls),
(1810,1342,o),
(1656,1440,o),
(1320,1440,cs),
(820,1440,l),
(820,1520,ls),
(820,1740,o),
(863,1771,o),
(1165,1771,c),
(1165,1850,l),
(100,1850,l),
(100,1771,l),
(338,1771,o),
(380,1719,o),
(380,1426,cs),
(380,424,ls),
(380,131,o),
(338,79,o),
(100,79,c),
(100,0,l)
);
},
{
closed = 1;
nodes = (
(820,1340,l),
(1040,1340,ls),
(1282,1340,o),
(1370,1268,o),
(1370,1040,cs),
(1370,740,ls),
(1370,583,o),
(1282,510,o),
(1040,510,cs),
(820,510,l)
);
}
);
width = 1912;
}
);
unicode = 222;
},
{
glyphname = Q;
kernLeft = uni041E;
kernRight = uni041E;
lastChange = "2021-12-17 23:44:10 +0000";
layers = (
{
anchors = (
{
name = bottom;
pos = (1005,0);
},
{
name = center;
pos = (1005,925);
},
{
name = ogonek;
pos = (1809,10);
},
{
name = top;
pos = (1005,1850);
},
{
name = topleft;
pos = (20,1850);
},
{
name = topright;
pos = (1990,1850);
}
);
layerId = "E4BC606E-CD30-42C5-8BF2-1DD2ABB89119";
shapes = (
{
closed = 1;
nodes = (
(1825,1357,ls),
(1825,1677,o),
(1642,1850,o),
(1325,1850,cs),
(685,1850,ls),
(367,1850,o),
(185,1677,o),
(185,1357,cs),
(185,493,ls),
(185,173,o),
(367,0,o),
(685,0,cs),
(1325,0,ls),
(1642,0,o),
(1825,173,o),
(1825,493,cs)
);
},
{
closed = 1;
nodes = (
(1365,493,ls),
(1365,197,o),
(1293,123,o),
(1005,123,cs),
(717,123,o),
(645,197,o),
(645,493,cs),
(645,1357,ls),
(645,1653,o),
(717,1727,o),
(1005,1727,cs),
(1293,1727,o),
(1365,1653,o),
(1365,1357,cs)
);
},
{
closed = 1;
nodes = (
(1013,76,l),
(893,75,l),
(893,-206,ls),
(893,-604,o),
(1122,-700,o),
(1306,-700,cs),
(1483,-700,o),
(1631,-612,o),
(1631,-434,cs),
(1631,-293,o),
(1538,-184,o),
(1382,-184,cs),
(1169,-184,o),
(1203,-388,o),
(1096,-388,cs),
(1013,-388,o),
(1013,-263,o),
(1013,-211,cs)
);
}
);
userData = {
assembly = "PUSHW[ ]	/* 1 value pushed */
0 
CALL[ ]	/* CallFunction */
SVTCA[0]	/* SetFreedomAndProjectionVectorToAxis */
PUSHW[ ]	/* 1 value pushed */
0 
RCVT[ ]	/* ReadCVT */
IF[ ]	/* If */
PUSHW[ ]	/* 1 value pushed */
5 
MDAP[1]	/* MoveDirectAbsPt */
ELSE[ ]	/* Else */
PUSHW[ ]	/* 2 values pushed */
5 7 
MIAP[0]	/* MoveIndirectAbsPt */
EIF[ ]	/* EndIf */
PUSHW[ ]	/* 1 value pushed */
0 
RCVT[ ]	/* ReadCVT */
IF[ ]	/* If */
PUSHW[ ]	/* 1 value pushed */
18 
MDAP[1]	/* MoveDirectAbsPt */
ELSE[ ]	/* Else */
PUSHW[ ]	/* 2 values pushed */
18 1 
MIAP[0]	/* MoveIndirectAbsPt */
EIF[ ]	/* EndIf */
PUSHW[ ]	/* 1 value pushed */
0 
RCVT[ ]	/* ReadCVT */
IF[ ]	/* If */
PUSHW[ ]	/* 1 value pushed */
21 
MDAP[1]	/* MoveDirectAbsPt */
ELSE[ ]	/* Else */
PUSHW[ ]	/* 2 values pushed */
21 1 
MIAP[0]	/* MoveIndirectAbsPt */
EIF[ ]	/* EndIf */
PUSHW[ ]	/* 1 value pushed */
30 
MDRP[11100]	/* MoveDirectRelPt */
NPUSHW[ ]	/* 27 values pushed */
7 30 23 30 39 30 55 30 71 30 87 30 103 30 119 30 135 30 151 30 167 30 183 30 199 30 13 
DELTAP1[ ]	/* DeltaExceptionP1 */
NPUSHW[ ]	/* 5 values pushed */
214 30 230 30 2 
DELTAP1[ ]	/* DeltaExceptionP1 */
PUSHW[ ]	/* 3 values pushed */
34 21 5 
SRP1[ ]	/* SetRefPoint1 */
SRP2[ ]	/* SetRefPoint2 */
IP[ ]	/* InterpolatePts */
PUSHW[ ]	/* 3 values pushed */
35 21 5 
SRP1[ ]	/* SetRefPoint1 */
SRP2[ ]	/* SetRefPoint2 */
IP[ ]	/* InterpolatePts */
PUSHW[ ]	/* 1 value pushed */
5 
SRP0[ ]	/* SetRefPoint0 */
PUSHW[ ]	/* 1 value pushed */
39 
MDRP[11100]	/* MoveDirectRelPt */
NPUSHW[ ]	/* 5 values pushed */
217 39 233 39 2 
DELTAP1[ ]	/* DeltaExceptionP1 */
NPUSHW[ ]	/* 27 values pushed */
8 39 24 39 40 39 56 39 72 39 88 39 104 39 120 39 136 39 152 39 168 39 184 39 200 39 13 
DELTAP1[ ]	/* DeltaExceptionP1 */
IUP[0]	/* InterpolateUntPts */
IUP[1]	/* InterpolateUntPts */";
};
width = 2010;
}
);
note = Q;
unicode = 81;
},
{
glyphname = R;
kernLeft = uni0412;
kernRight = uni0410;
lastChange = "2021-12-11 16:11:54 +0000";
layers = (
{
anchors = (
{
name = bottom;
pos = (1079,0);
},
{
name = center;
pos = (597,925);
},
{
name = top;
pos = (1079,1850);
}
);
layerId = "E4BC606E-CD30-42C5-8BF2-1DD2ABB89119";
shapes = (
{
closed = 1;
nodes = (
(1667,870,o),
(1830,1002,o),
(1830,1290,cs),
(1830,1450,ls),
(1830,1710,o),
(1659,1850,o),
(1360,1850,cs),
(100,1850,l),
(100,1771,l),
(338,1771,o),
(380,1709,o),
(380,1356,cs),
(380,494,ls),
(380,141,o),
(338,79,o),
(100,79,c),
(100,0,l),
(1165,0,l),
(1165,79,l),
(863,79,o),
(820,119,o),
(820,400,cs),
(820,870,l),
(1310,870,ls)
);
},
{
closed = 1;
nodes = (
(820,1450,ls),
(820,1750,o),
(820,1750,o),
(1040,1750,cs),
(1305,1750,o),
(1390,1690,o),
(1390,1450,cs),
(1390,1290,ls),
(1390,1071,o),
(1302,970,o),
(1040,970,cs),
(820,970,l)
);
},
{
closed = 1;
nodes = (
(1040,870,l),
(1306,870,o),
(1389,792,o),
(1390,560,cs),
(1391,348,ls),
(1392,91,o),
(1485,0,o),
(1750,0,cs),
(2050,0,l),
(2050,80,l),
(1851,80,o),
(1840,104,o),
(1840,540,cs),
(1840,860,o),
(1710,940,o),
(1310,940,c),
(1039,940,l)
);
}
);
userData = {
assembly = "PUSHW[ ]	/* 1 value pushed */
0 
CALL[ ]	/* CallFunction */
SVTCA[0]	/* SetFreedomAndProjectionVectorToAxis */
PUSHW[ ]	/* 1 value pushed */
0 
RCVT[ ]	/* ReadCVT */
IF[ ]	/* If */
PUSHW[ ]	/* 1 value pushed */
6 
MDAP[1]	/* MoveDirectAbsPt */
ELSE[ ]	/* Else */
PUSHW[ ]	/* 2 values pushed */
6 7 
MIAP[0]	/* MoveIndirectAbsPt */
EIF[ ]	/* EndIf */
PUSHW[ ]	/* 1 value pushed */
0 
RCVT[ ]	/* ReadCVT */
IF[ ]	/* If */
PUSHW[ ]	/* 1 value pushed */
13 
MDAP[1]	/* MoveDirectAbsPt */
ELSE[ ]	/* Else */
PUSHW[ ]	/* 2 values pushed */
13 7 
MIAP[0]	/* MoveIndirectAbsPt */
EIF[ ]	/* EndIf */
PUSHW[ ]	/* 1 value pushed */
0 
RCVT[ ]	/* ReadCVT */
IF[ ]	/* If */
PUSHW[ ]	/* 1 value pushed */
36 
MDAP[1]	/* MoveDirectAbsPt */
ELSE[ ]	/* Else */
PUSHW[ ]	/* 2 values pushed */
36 1 
MIAP[0]	/* MoveIndirectAbsPt */
EIF[ ]	/* EndIf */
PUSHW[ ]	/* 1 value pushed */
0 
RCVT[ ]	/* ReadCVT */
IF[ ]	/* If */
PUSHW[ ]	/* 1 value pushed */
50 
MDAP[1]	/* MoveDirectAbsPt */
ELSE[ ]	/* Else */
PUSHW[ ]	/* 2 values pushed */
50 1 
MIAP[0]	/* MoveIndirectAbsPt */
EIF[ ]	/* EndIf */
PUSHW[ ]	/* 1 value pushed */
0 
RCVT[ ]	/* ReadCVT */
IF[ ]	/* If */
PUSHW[ ]	/* 1 value pushed */
57 
MDAP[1]	/* MoveDirectAbsPt */
ELSE[ ]	/* Else */
PUSHW[ ]	/* 2 values pushed */
57 1 
MIAP[0]	/* MoveIndirectAbsPt */
EIF[ ]	/* EndIf */
PUSHW[ ]	/* 3 values pushed */
60 45 3 
CALL[ ]	/* CallFunction */
PUSHW[ ]	/* 1 value pushed */
57 
SRP0[ ]	/* SetRefPoint0 */
PUSHW[ ]	/* 1 value pushed */
0 
MDRP[11100]	/* MoveDirectRelPt */
PUSHW[ ]	/* 1 value pushed */
6 
SRP0[ ]	/* SetRefPoint0 */
PUSHW[ ]	/* 1 value pushed */
5 
MDRP[11100]	/* MoveDirectRelPt */
PUSHW[ ]	/* 3 values pushed */
27 45 60 
SRP1[ ]	/* SetRefPoint1 */
SRP2[ ]	/* SetRefPoint2 */
IP[ ]	/* InterpolatePts */
PUSHW[ ]	/* 1 value pushed */
0 
SRP0[ ]	/* SetRefPoint0 */
PUSHW[ ]	/* 1 value pushed */
35 
MDRP[10000]	/* MoveDirectRelPt */
PUSHW[ ]	/* 1 value pushed */
49 
MDRP[10000]	/* MoveDirectRelPt */
PUSHW[ ]	/* 1 value pushed */
5 
SRP0[ ]	/* SetRefPoint0 */
PUSHW[ ]	/* 1 value pushed */
65 
MDRP[10000]	/* MoveDirectRelPt */
IUP[0]	/* InterpolateUntPts */
IUP[1]	/* InterpolateUntPts */";
};
width = 2094;
}
);
note = R;
unicode = 82;
},
{
glyphname = S;
kernLeft = uni041E;
kernRight = uni041E;
lastChange = "2021-12-11 16:18:37 +0000";
layers = (
{
anchors = (
{
name = top;
pos = (950,1850);
}
);
layerId = "E4BC606E-CD30-42C5-8BF2-1DD2ABB89119";
shapes = (
{
closed = 1;
nodes = (
(1205,0,ls),
(1522,0,o),
(1705,138,o),
(1705,393,cs),
(1705,627,ls),
(1705,850,o),
(1559,984,o),
(1318,984,cs),
(957,984,ls),
(712,984,o),
(655,1034,o),
(655,1251,cs),
(655,1457,ls),
(655,1673,o),
(726,1727,o),
(965,1727,cs),
(1223,1727,o),
(1295,1734,o),
(1295,1670,cs),
(1295,1625,o),
(1233,1596,o),
(1233,1469,cs),
(1233,1339,o),
(1331,1252,o),
(1464,1252,cs),
(1615,1252,o),
(1705,1354,o),
(1705,1508,cs),
(1705,1730,o),
(1537,1850,o),
(1225,1850,cs),
(685,1850,ls),
(368,1850,o),
(185,1712,o),
(185,1457,cs),
(185,1223,ls),
(185,1000,o),
(331,864,o),
(572,864,cs),
(933,864,ls),
(1178,864,o),
(1235,816,o),
(1235,599,cs),
(1235,393,ls),
(1235,177,o),
(1164,123,o),
(925,123,cs),
(667,123,o),
(595,116,o),
(595,180,cs),
(595,225,o),
(657,254,o),
(657,381,cs),
(657,511,o),
(559,598,o),
(426,598,cs),
(275,598,o),
(185,496,o),
(185,342,cs),
(185,120,o),
(353,0,o),
(665,0,cs)
);
}
);
userData = {
assembly = "PUSHW[ ]	/* 1 value pushed */
0 
CALL[ ]	/* CallFunction */
SVTCA[0]	/* SetFreedomAndProjectionVectorToAxis */
PUSHW[ ]	/* 1 value pushed */
0 
RCVT[ ]	/* ReadCVT */
IF[ ]	/* If */
PUSHW[ ]	/* 1 value pushed */
45 
MDAP[1]	/* MoveDirectAbsPt */
ELSE[ ]	/* Else */
PUSHW[ ]	/* 2 values pushed */
45 7 
MIAP[0]	/* MoveIndirectAbsPt */
EIF[ ]	/* EndIf */
PUSHW[ ]	/* 1 value pushed */
0 
RCVT[ ]	/* ReadCVT */
IF[ ]	/* If */
PUSHW[ ]	/* 1 value pushed */
19 
MDAP[1]	/* MoveDirectAbsPt */
ELSE[ ]	/* Else */
PUSHW[ ]	/* 2 values pushed */
19 1 
MIAP[0]	/* MoveIndirectAbsPt */
EIF[ ]	/* EndIf */
PUSHW[ ]	/* 3 values pushed */
7 33 3 
CALL[ ]	/* CallFunction */
PUSHW[ ]	/* 1 value pushed */
45 
SRP0[ ]	/* SetRefPoint0 */
PUSHW[ ]	/* 1 value pushed */
2 
MDRP[11100]	/* MoveDirectRelPt */
NPUSHW[ ]	/* 5 values pushed */
217 2 233 2 2 
DELTAP1[ ]	/* DeltaExceptionP1 */
NPUSHW[ ]	/* 27 values pushed */
8 2 24 2 40 2 56 2 72 2 88 2 104 2 120 2 136 2 152 2 168 2 184 2 200 2 13 
DELTAP1[ ]	/* DeltaExceptionP1 */
PUSHW[ ]	/* 1 value pushed */
19 
SRP0[ ]	/* SetRefPoint0 */
PUSHW[ ]	/* 1 value pushed */
28 
MDRP[11100]	/* MoveDirectRelPt */
NPUSHW[ ]	/* 27 values pushed */
7 28 23 28 39 28 55 28 71 28 87 28 103 28 119 28 135 28 151 28 167 28 183 28 199 28 13 
DELTAP1[ ]	/* DeltaExceptionP1 */
NPUSHW[ ]	/* 5 values pushed */
214 28 230 28 2 
DELTAP1[ ]	/* DeltaExceptionP1 */
IUP[0]	/* InterpolateUntPts */
IUP[1]	/* InterpolateUntPts */";
};
width = 1890;
},
{
anchors = (
{
name = top;
pos = (950,1850);
}
);
associatedMasterId = "E4BC606E-CD30-42C5-8BF2-1DD2ABB89119";
layerId = "EEA50293-8707-4228-95DC-9F901FC79016";
name = "11 Dec 21, 17:16";
shapes = (
{
closed = 1;
nodes = (
(1205,0,ls),
(1522,0,o),
(1705,173,o),
(1705,493,cs),
(1705,931,l),
(1235,931,l),
(1235,493,ls),
(1235,197,o),
(1164,123,o),
(925,123,cs),
(667,123,o),
(595,116,o),
(595,180,cs),
(595,225,o),
(657,254,o),
(657,381,cs),
(657,511,o),
(559,598,o),
(426,598,cs),
(275,598,o),
(185,496,o),
(185,342,cs),
(185,120,o),
(353,0,o),
(665,0,cs)
);
},
{
closed = 1;
nodes = (
(1705,864,l),
(1705,984,l),
(185,984,l),
(185,864,l)
);
},
{
closed = 1;
nodes = (
(655,931,l),
(655,1357,ls),
(655,1653,o),
(726,1727,o),
(965,1727,cs),
(1223,1727,o),
(1295,1734,o),
(1295,1670,cs),
(1295,1625,o),
(1233,1596,o),
(1233,1469,cs),
(1233,1339,o),
(1331,1252,o),
(1464,1252,cs),
(1615,1252,o),
(1705,1354,o),
(1705,1508,cs),
(1705,1730,o),
(1537,1850,o),
(1225,1850,cs),
(685,1850,ls),
(368,1850,o),
(185,1677,o),
(185,1357,cs),
(185,931,l)
);
}
);
userData = {
assembly = "PUSHW[ ]	/* 1 value pushed */
0 
CALL[ ]	/* CallFunction */
SVTCA[0]	/* SetFreedomAndProjectionVectorToAxis */
PUSHW[ ]	/* 1 value pushed */
0 
RCVT[ ]	/* ReadCVT */
IF[ ]	/* If */
PUSHW[ ]	/* 1 value pushed */
45 
MDAP[1]	/* MoveDirectAbsPt */
ELSE[ ]	/* Else */
PUSHW[ ]	/* 2 values pushed */
45 7 
MIAP[0]	/* MoveIndirectAbsPt */
EIF[ ]	/* EndIf */
PUSHW[ ]	/* 1 value pushed */
0 
RCVT[ ]	/* ReadCVT */
IF[ ]	/* If */
PUSHW[ ]	/* 1 value pushed */
19 
MDAP[1]	/* MoveDirectAbsPt */
ELSE[ ]	/* Else */
PUSHW[ ]	/* 2 values pushed */
19 1 
MIAP[0]	/* MoveIndirectAbsPt */
EIF[ ]	/* EndIf */
PUSHW[ ]	/* 3 values pushed */
7 33 3 
CALL[ ]	/* CallFunction */
PUSHW[ ]	/* 1 value pushed */
45 
SRP0[ ]	/* SetRefPoint0 */
PUSHW[ ]	/* 1 value pushed */
2 
MDRP[11100]	/* MoveDirectRelPt */
NPUSHW[ ]	/* 5 values pushed */
217 2 233 2 2 
DELTAP1[ ]	/* DeltaExceptionP1 */
NPUSHW[ ]	/* 27 values pushed */
8 2 24 2 40 2 56 2 72 2 88 2 104 2 120 2 136 2 152 2 168 2 184 2 200 2 13 
DELTAP1[ ]	/* DeltaExceptionP1 */
PUSHW[ ]	/* 1 value pushed */
19 
SRP0[ ]	/* SetRefPoint0 */
PUSHW[ ]	/* 1 value pushed */
28 
MDRP[11100]	/* MoveDirectRelPt */
NPUSHW[ ]	/* 27 values pushed */
7 28 23 28 39 28 55 28 71 28 87 28 103 28 119 28 135 28 151 28 167 28 183 28 199 28 13 
DELTAP1[ ]	/* DeltaExceptionP1 */
NPUSHW[ ]	/* 5 values pushed */
214 28 230 28 2 
DELTAP1[ ]	/* DeltaExceptionP1 */
IUP[0]	/* InterpolateUntPts */
IUP[1]	/* InterpolateUntPts */";
};
width = 1890;
},
{
anchors = (
{
name = top;
pos = (950,1850);
}
);
associatedMasterId = "E4BC606E-CD30-42C5-8BF2-1DD2ABB89119";
layerId = "095E8614-4AFD-4C76-AB7B-C35F7CFBCAFD";
name = "11 Dec 21, 17:17";
shapes = (
{
closed = 1;
nodes = (
(1205,0,ls),
(1522,0,o),
(1705,174,o),
(1705,493,cs),
(1705,725,ls),
(1705,886,o),
(1604,984,o),
(1438,984,cs),
(847,984,l),
(691,984,o),
(655,1023,o),
(655,1191,c),
(655,1357,ls),
(655,1653,o),
(726,1727,o),
(965,1727,cs),
(1223,1727,o),
(1295,1734,o),
(1295,1670,cs),
(1295,1625,o),
(1233,1596,o),
(1233,1469,cs),
(1233,1339,o),
(1331,1252,o),
(1464,1252,cs),
(1615,1252,o),
(1705,1354,o),
(1705,1508,cs),
(1705,1730,o),
(1537,1850,o),
(1225,1850,cs),
(685,1850,ls),
(368,1850,o),
(185,1677,o),
(185,1357,cs),
(185,1123,l),
(185,962,o),
(286,864,o),
(452,864,c),
(1043,864,ls),
(1199,864,o),
(1235,825,o),
(1235,657,cs),
(1235,493,ls),
(1235,195,o),
(1164,123,o),
(925,123,cs),
(667,123,o),
(595,116,o),
(595,180,cs),
(595,225,o),
(657,254,o),
(657,381,cs),
(657,511,o),
(559,598,o),
(426,598,cs),
(275,598,o),
(185,496,o),
(185,342,cs),
(185,120,o),
(353,0,o),
(665,0,cs)
);
}
);
userData = {
assembly = "PUSHW[ ]	/* 1 value pushed */
0 
CALL[ ]	/* CallFunction */
SVTCA[0]	/* SetFreedomAndProjectionVectorToAxis */
PUSHW[ ]	/* 1 value pushed */
0 
RCVT[ ]	/* ReadCVT */
IF[ ]	/* If */
PUSHW[ ]	/* 1 value pushed */
45 
MDAP[1]	/* MoveDirectAbsPt */
ELSE[ ]	/* Else */
PUSHW[ ]	/* 2 values pushed */
45 7 
MIAP[0]	/* MoveIndirectAbsPt */
EIF[ ]	/* EndIf */
PUSHW[ ]	/* 1 value pushed */
0 
RCVT[ ]	/* ReadCVT */
IF[ ]	/* If */
PUSHW[ ]	/* 1 value pushed */
19 
MDAP[1]	/* MoveDirectAbsPt */
ELSE[ ]	/* Else */
PUSHW[ ]	/* 2 values pushed */
19 1 
MIAP[0]	/* MoveIndirectAbsPt */
EIF[ ]	/* EndIf */
PUSHW[ ]	/* 3 values pushed */
7 33 3 
CALL[ ]	/* CallFunction */
PUSHW[ ]	/* 1 value pushed */
45 
SRP0[ ]	/* SetRefPoint0 */
PUSHW[ ]	/* 1 value pushed */
2 
MDRP[11100]	/* MoveDirectRelPt */
NPUSHW[ ]	/* 5 values pushed */
217 2 233 2 2 
DELTAP1[ ]	/* DeltaExceptionP1 */
NPUSHW[ ]	/* 27 values pushed */
8 2 24 2 40 2 56 2 72 2 88 2 104 2 120 2 136 2 152 2 168 2 184 2 200 2 13 
DELTAP1[ ]	/* DeltaExceptionP1 */
PUSHW[ ]	/* 1 value pushed */
19 
SRP0[ ]	/* SetRefPoint0 */
PUSHW[ ]	/* 1 value pushed */
28 
MDRP[11100]	/* MoveDirectRelPt */
NPUSHW[ ]	/* 27 values pushed */
7 28 23 28 39 28 55 28 71 28 87 28 103 28 119 28 135 28 151 28 167 28 183 28 199 28 13 
DELTAP1[ ]	/* DeltaExceptionP1 */
NPUSHW[ ]	/* 5 values pushed */
214 28 230 28 2 
DELTAP1[ ]	/* DeltaExceptionP1 */
IUP[0]	/* InterpolateUntPts */
IUP[1]	/* InterpolateUntPts */";
};
width = 1890;
}
);
note = S;
unicode = 83;
},
{
glyphname = Germandbls;
lastChange = "2021-12-13 00:49:56 +0000";
layers = (
{
anchors = (
{
name = bottom;
pos = (1079,0);
},
{
name = center;
pos = (597,925);
},
{
name = top;
pos = (1079,1850);
}
);
layerId = "E4BC606E-CD30-42C5-8BF2-1DD2ABB89119";
shapes = (
{
closed = 1;
nodes = (
(1132,1020,l),
(1132,920,l),
(1190,920,ls),
(1415,920,o),
(1490,845,o),
(1490,620,cs),
(1490,400,ls),
(1490,174,o),
(1425,98,o),
(1230,100,cs),
(1150,101,l),
(1150,0,l),
(1580,0,ls),
(1809,0,o),
(1940,140,o),
(1940,400,cs),
(1940,620,ls),
(1940,880,o),
(1794,1020,o),
(1580,1020,cs)
);
},
{
closed = 1;
nodes = (
(1624,952,l),
(1839,1627,ls),
(1884,1769,o),
(1899,1771,o),
(1967,1770,c),
(1967,1850,l),
(100,1850,l),
(100,1771,l),
(338,1771,o),
(380,1709,o),
(380,1356,cs),
(380,494,ls),
(380,141,o),
(338,79,o),
(100,79,c),
(100,0,l),
(940,0,l),
(940,101,l),
(820,105,o),
(820,138,o),
(820,400,cs),
(820,1450,ls),
(820,1750,o),
(840,1750,o),
(1060,1750,cs),
(1458,1750,o),
(1432,1732,o),
(1399,1627,cs),
(1184,952,l)
);
}
);
width = 2072;
}
);
unicode = 7838;
},
{
glyphname = T;
kernLeft = uni0422;
kernRight = T;
lastChange = "2021-12-16 23:19:22 +0000";
layers = (
{
anchors = (
{
name = bottom;
pos = (951,0);
},
{
name = center;
pos = (951,925);
},
{
name = top;
pos = (951,1850);
}
);
background = {
shapes = (
{
closed = 0;
nodes = (
(431,1771,l),
(686,1771,o),
(731,1709,o),
(731,1357,cs),
(731,493,ls),
(731,176,o),
(692,120,o),
(510,120,cs),
(307,120,o),
(179,264,o),
(140,570,c),
(40,570,l)
);
}
);
};
layerId = "E4BC606E-CD30-42C5-8BF2-1DD2ABB89119";
shapes = (
{
closed = 1;
nodes = (
(1471,0,l),
(1471,79,l),
(1216,79,o),
(1171,141,o),
(1171,493,cs),
(1171,1357,ls),
(1171,1674,o),
(1205,1730,o),
(1362,1730,cs),
(1549,1730,o),
(1668,1586,o),
(1702,1280,c),
(1802,1280,l),
(1852,1850,l),
(50,1850,l),
(100,1280,l),
(200,1280,l),
(234,1586,o),
(353,1730,o),
(540,1730,cs),
(697,1730,o),
(731,1674,o),
(731,1357,cs),
(731,493,ls),
(731,141,o),
(686,79,o),
(431,79,c),
(431,0,l)
);
}
);
userData = {
assembly = "PUSHW[ ]	/* 1 value pushed */
0 
CALL[ ]	/* CallFunction */
SVTCA[0]	/* SetFreedomAndProjectionVectorToAxis */
PUSHW[ ]	/* 1 value pushed */
0 
RCVT[ ]	/* ReadCVT */
IF[ ]	/* If */
PUSHW[ ]	/* 1 value pushed */
0 
MDAP[1]	/* MoveDirectAbsPt */
ELSE[ ]	/* Else */
PUSHW[ ]	/* 2 values pushed */
0 7 
MIAP[0]	/* MoveIndirectAbsPt */
EIF[ ]	/* EndIf */
PUSHW[ ]	/* 1 value pushed */
0 
RCVT[ ]	/* ReadCVT */
IF[ ]	/* If */
PUSHW[ ]	/* 1 value pushed */
6 
MDAP[1]	/* MoveDirectAbsPt */
ELSE[ ]	/* Else */
PUSHW[ ]	/* 2 values pushed */
6 7 
MIAP[0]	/* MoveIndirectAbsPt */
EIF[ ]	/* EndIf */
PUSHW[ ]	/* 1 value pushed */
0 
RCVT[ ]	/* ReadCVT */
IF[ ]	/* If */
PUSHW[ ]	/* 1 value pushed */
22 
MDAP[1]	/* MoveDirectAbsPt */
ELSE[ ]	/* Else */
PUSHW[ ]	/* 2 values pushed */
22 1 
MIAP[0]	/* MoveIndirectAbsPt */
EIF[ ]	/* EndIf */
PUSHW[ ]	/* 1 value pushed */
0 
RCVT[ ]	/* ReadCVT */
IF[ ]	/* If */
PUSHW[ ]	/* 1 value pushed */
29 
MDAP[1]	/* MoveDirectAbsPt */
ELSE[ ]	/* Else */
PUSHW[ ]	/* 2 values pushed */
29 1 
MIAP[0]	/* MoveIndirectAbsPt */
EIF[ ]	/* EndIf */
PUSHW[ ]	/* 1 value pushed */
6 
SRP0[ ]	/* SetRefPoint0 */
PUSHW[ ]	/* 1 value pushed */
16 
MDRP[11100]	/* MoveDirectRelPt */
NPUSHW[ ]	/* 5 values pushed */
217 16 233 16 2 
DELTAP1[ ]	/* DeltaExceptionP1 */
NPUSHW[ ]	/* 27 values pushed */
8 16 24 16 40 16 56 16 72 16 88 16 104 16 120 16 136 16 152 16 168 16 184 16 200 16 13 
DELTAP1[ ]	/* DeltaExceptionP1 */
PUSHW[ ]	/* 1 value pushed */
22 
SRP0[ ]	/* SetRefPoint0 */
PUSHW[ ]	/* 1 value pushed */
21 
MDRP[11100]	/* MoveDirectRelPt */
PUSHW[ ]	/* 1 value pushed */
31 
MDRP[10000]	/* MoveDirectRelPt */
PUSHW[ ]	/* 1 value pushed */
16 
SRP0[ ]	/* SetRefPoint0 */
PUSHW[ ]	/* 1 value pushed */
36 
MDRP[10000]	/* MoveDirectRelPt */
SVTCA[1]	/* SetFreedomAndProjectionVectorToAxis */
PUSHW[ ]	/* 1 value pushed */
46 
MDAP[1]	/* MoveDirectAbsPt */
PUSHW[ ]	/* 1 value pushed */
9 
MDAP[1]	/* MoveDirectAbsPt */
PUSHW[ ]	/* 1 value pushed */
8 
MDRP[11100]	/* MoveDirectRelPt */
PUSHW[ ]	/* 1 value pushed */
46 
SRP0[ ]	/* SetRefPoint0 */
PUSHW[ ]	/* 1 value pushed */
44 
MDRP[10000]	/* MoveDirectRelPt */
PUSHW[ ]	/* 1 value pushed */
44 
MDAP[1]	/* MoveDirectAbsPt */
PUSHW[ ]	/* 3 values pushed */
22 44 8 
SRP1[ ]	/* SetRefPoint1 */
SRP2[ ]	/* SetRefPoint2 */
IP[ ]	/* InterpolatePts */
PUSHW[ ]	/* 3 values pushed */
30 44 8 
SRP1[ ]	/* SetRefPoint1 */
SRP2[ ]	/* SetRefPoint2 */
IP[ ]	/* InterpolatePts */
PUSHW[ ]	/* 1 value pushed */
43 
MDRP[11100]	/* MoveDirectRelPt */
PUSHW[ ]	/* 1 value pushed */
8 
SRP0[ ]	/* SetRefPoint0 */
PUSHW[ ]	/* 1 value pushed */
47 
MDRP[11100]	/* MoveDirectRelPt */
IUP[0]	/* InterpolateUntPts */
IUP[1]	/* InterpolateUntPts */";
};
width = 1902;
}
);
note = T;
unicode = 84;
},
{
glyphname = U;
kernLeft = uni0423;
kernRight = uni0411;
lastChange = "2021-12-13 00:12:06 +0000";
layers = (
{
anchors = (
{
name = bottom;
pos = (1115,0);
},
{
name = ogonek;
pos = (2007,10);
},
{
name = top;
pos = (1105,1850);
},
{
name = topright;
pos = (2210,1850);
}
);
background = {
shapes = (
{
closed = 1;
nodes = (
(981,0,l),
(981,80,l),
(763,80,o),
(731,136,o),
(731,408,cs),
(731,1516,ls),
(731,1706,o),
(769,1740,o),
(1071,1740,cs),
(1340,1740,o),
(1411,1719,o),
(1411,1450,cs),
(1411,430,ls),
(1411,65,o),
(1464,0,o),
(1761,0,cs),
(2061,0,l),
(2061,80,l),
(1914,80,o),
(1851,185,o),
(1851,430,cs),
(1851,1450,ls),
(1851,1770,o),
(1741,1850,o),
(1401,1850,cs),
(11,1849,l),
(11,1770,l),
(246,1770,o),
(291,1708,o),
(291,1356,cs),
(291,430,ls),
(291,146,o),
(241,80,o),
(31,80,c),
(31,0,l)
);
}
);
};
layerId = "E4BC606E-CD30-42C5-8BF2-1DD2ABB89119";
shapes = (
{
closed = 1;
nodes = (
(2130,1,l),
(2130,80,l),
(1895,80,o),
(1850,142,o),
(1850,494,cs),
(1850,1420,ls),
(1850,1704,o),
(1900,1770,o),
(2110,1770,c),
(2110,1850,l),
(1210,1850,l),
(1210,1770,l),
(1376,1770,o),
(1400,1714,o),
(1400,1442,cs),
(1400,334,ls),
(1400,144,o),
(1363,110,o),
(1070,110,cs),
(817,110,o),
(750,131,o),
(750,400,cs),
(750,1420,ls),
(750,1704,o),
(794,1770,o),
(980,1770,c),
(980,1850,l),
(80,1850,l),
(80,1770,l),
(227,1770,o),
(290,1665,o),
(290,1420,cs),
(290,400,ls),
(290,80,o),
(400,0,o),
(740,0,cs)
);
}
);
userData = {
assembly = "PUSHW[ ]	/* 1 value pushed */
0 
CALL[ ]	/* CallFunction */
SVTCA[0]	/* SetFreedomAndProjectionVectorToAxis */
PUSHW[ ]	/* 1 value pushed */
0 
RCVT[ ]	/* ReadCVT */
IF[ ]	/* If */
PUSHW[ ]	/* 1 value pushed */
0 
MDAP[1]	/* MoveDirectAbsPt */
ELSE[ ]	/* Else */
PUSHW[ ]	/* 2 values pushed */
0 7 
MIAP[0]	/* MoveIndirectAbsPt */
EIF[ ]	/* EndIf */
PUSHW[ ]	/* 1 value pushed */
0 
RCVT[ ]	/* ReadCVT */
IF[ ]	/* If */
PUSHW[ ]	/* 1 value pushed */
16 
MDAP[1]	/* MoveDirectAbsPt */
ELSE[ ]	/* Else */
PUSHW[ ]	/* 2 values pushed */
16 7 
MIAP[0]	/* MoveIndirectAbsPt */
EIF[ ]	/* EndIf */
PUSHW[ ]	/* 1 value pushed */
0 
RCVT[ ]	/* ReadCVT */
IF[ ]	/* If */
PUSHW[ ]	/* 1 value pushed */
26 
MDAP[1]	/* MoveDirectAbsPt */
ELSE[ ]	/* Else */
PUSHW[ ]	/* 2 values pushed */
26 1 
MIAP[0]	/* MoveIndirectAbsPt */
EIF[ ]	/* EndIf */
PUSHW[ ]	/* 1 value pushed */
8 
MDRP[11100]	/* MoveDirectRelPt */
NPUSHW[ ]	/* 27 values pushed */
7 8 23 8 39 8 55 8 71 8 87 8 103 8 119 8 135 8 151 8 167 8 183 8 199 8 13 
DELTAP1[ ]	/* DeltaExceptionP1 */
NPUSHW[ ]	/* 5 values pushed */
214 8 230 8 2 
DELTAP1[ ]	/* DeltaExceptionP1 */
PUSHW[ ]	/* 1 value pushed */
16 
SRP0[ ]	/* SetRefPoint0 */
PUSHW[ ]	/* 1 value pushed */
18 
MDRP[11100]	/* MoveDirectRelPt */
PUSHW[ ]	/* 1 value pushed */
35 
MDRP[10000]	/* MoveDirectRelPt */
IUP[0]	/* InterpolateUntPts */
IUP[1]	/* InterpolateUntPts */";
};
width = 2230;
}
);
note = U;
unicode = 85;
},
{
glyphname = V;
kernLeft = uni0423;
kernRight = uni0411;
lastChange = "2021-12-11 16:24:30 +0000";
layers = (
{
layerId = "E4BC606E-CD30-42C5-8BF2-1DD2ABB89119";
shapes = (
{
closed = 1;
nodes = (
(1341,0,ls),
(1650,0,o),
(1791,148,o),
(1791,470,cs),
(1791,1420,ls),
(1791,1665,o),
(1854,1770,o),
(2001,1770,c),
(2001,1850,l),
(1701,1850,ls),
(1386,1850,o),
(1341,1806,o),
(1341,1500,cs),
(1341,470,ls),
(1341,178,o),
(1284,110,o),
(1040,110,cs),
(797,110,o),
(740,178,o),
(740,470,cs),
(740,1500,ls),
(740,1806,o),
(695,1850,o),
(380,1850,cs),
(80,1850,l),
(80,1770,l),
(227,1770,o),
(290,1665,o),
(290,1420,cs),
(290,470,ls),
(290,148,o),
(431,0,o),
(740,0,cs)
);
}
);
userData = {
assembly = "PUSHW[ ]	/* 1 value pushed */
0 
CALL[ ]	/* CallFunction */
SVTCA[0]	/* SetFreedomAndProjectionVectorToAxis */
PUSHW[ ]	/* 1 value pushed */
0 
RCVT[ ]	/* ReadCVT */
IF[ ]	/* If */
PUSHW[ ]	/* 1 value pushed */
0 
MDAP[1]	/* MoveDirectAbsPt */
ELSE[ ]	/* Else */
PUSHW[ ]	/* 2 values pushed */
0 7 
MIAP[0]	/* MoveIndirectAbsPt */
EIF[ ]	/* EndIf */
PUSHW[ ]	/* 1 value pushed */
0 
RCVT[ ]	/* ReadCVT */
IF[ ]	/* If */
PUSHW[ ]	/* 1 value pushed */
16 
MDAP[1]	/* MoveDirectAbsPt */
ELSE[ ]	/* Else */
PUSHW[ ]	/* 2 values pushed */
16 7 
MIAP[0]	/* MoveIndirectAbsPt */
EIF[ ]	/* EndIf */
PUSHW[ ]	/* 1 value pushed */
0 
RCVT[ ]	/* ReadCVT */
IF[ ]	/* If */
PUSHW[ ]	/* 1 value pushed */
26 
MDAP[1]	/* MoveDirectAbsPt */
ELSE[ ]	/* Else */
PUSHW[ ]	/* 2 values pushed */
26 1 
MIAP[0]	/* MoveIndirectAbsPt */
EIF[ ]	/* EndIf */
PUSHW[ ]	/* 1 value pushed */
8 
MDRP[11100]	/* MoveDirectRelPt */
NPUSHW[ ]	/* 27 values pushed */
7 8 23 8 39 8 55 8 71 8 87 8 103 8 119 8 135 8 151 8 167 8 183 8 199 8 13 
DELTAP1[ ]	/* DeltaExceptionP1 */
NPUSHW[ ]	/* 5 values pushed */
214 8 230 8 2 
DELTAP1[ ]	/* DeltaExceptionP1 */
PUSHW[ ]	/* 1 value pushed */
16 
SRP0[ ]	/* SetRefPoint0 */
PUSHW[ ]	/* 1 value pushed */
18 
MDRP[11100]	/* MoveDirectRelPt */
PUSHW[ ]	/* 1 value pushed */
35 
MDRP[10000]	/* MoveDirectRelPt */
IUP[0]	/* InterpolateUntPts */
IUP[1]	/* InterpolateUntPts */";
};
width = 2081;
}
);
note = V;
unicode = 86;
},
{
glyphname = W;
kernLeft = uni0412;
kernRight = uni042F;
lastChange = "2021-12-11 16:27:08 +0000";
layers = (
{
anchors = (
{
name = bottom;
pos = (1530,0);
},
{
name = top;
pos = (1530,1850);
}
);
background = {
shapes = (
{
closed = 0;
nodes = (
(3010,1,l),
(3010,80,l),
(2775,80,o),
(2730,142,o),
(2730,494,cs),
(2730,1420,ls),
(2730,1704,o),
(2779,1770,o),
(2990,1770,c),
(2990,1850,l),
(2640,1850,ls),
(2342,1850,o),
(2290,1785,o),
(2290,1420,cs),
(2290,334,ls)
);
}
);
};
layerId = "E4BC606E-CD30-42C5-8BF2-1DD2ABB89119";
shapes = (
{
closed = 1;
nodes = (
(1105,1850,l),
(1105,1770,l),
(1288,1770,o),
(1315,1722,o),
(1315,1450,cs),
(1315,65,l),
(1745,65,l),
(1745,1450,ls),
(1745,1722,o),
(1772,1770,o),
(1955,1770,c),
(1955,1850,l)
);
},
{
closed = 1;
nodes = (
(2620,0,o),
(2730,80,o),
(2730,400,cs),
(2730,1420,ls),
(2730,1665,o),
(2793,1770,o),
(2940,1770,c),
(2940,1850,l),
(2640,1850,ls),
(2343,1850,o),
(2290,1785,o),
(2290,1420,cs),
(2290,400,ls),
(2290,131,o),
(2216,110,o),
(1830,110,cs),
(1230,110,ls),
(844,110,o),
(770,131,o),
(770,400,cs),
(770,1420,ls),
(770,1785,o),
(717,1850,o),
(420,1850,cs),
(120,1850,l),
(120,1770,l),
(267,1770,o),
(330,1665,o),
(330,1420,cs),
(330,400,ls),
(330,80,o),
(440,0,o),
(780,0,cs),
(2280,0,ls)
);
}
);
userData = {
assembly = "PUSHW[ ]	/* 1 value pushed */
0 
CALL[ ]	/* CallFunction */
SVTCA[0]	/* SetFreedomAndProjectionVectorToAxis */
PUSHW[ ]	/* 1 value pushed */
0 
RCVT[ ]	/* ReadCVT */
IF[ ]	/* If */
PUSHW[ ]	/* 1 value pushed */
7 
MDAP[1]	/* MoveDirectAbsPt */
ELSE[ ]	/* Else */
PUSHW[ ]	/* 2 values pushed */
7 7 
MIAP[0]	/* MoveIndirectAbsPt */
EIF[ ]	/* EndIf */
PUSHW[ ]	/* 1 value pushed */
0 
RCVT[ ]	/* ReadCVT */
IF[ ]	/* If */
PUSHW[ ]	/* 1 value pushed */
14 
MDAP[1]	/* MoveDirectAbsPt */
ELSE[ ]	/* Else */
PUSHW[ ]	/* 2 values pushed */
14 7 
MIAP[0]	/* MoveIndirectAbsPt */
EIF[ ]	/* EndIf */
PUSHW[ ]	/* 1 value pushed */
0 
RCVT[ ]	/* ReadCVT */
IF[ ]	/* If */
PUSHW[ ]	/* 1 value pushed */
25 
MDAP[1]	/* MoveDirectAbsPt */
ELSE[ ]	/* Else */
PUSHW[ ]	/* 2 values pushed */
25 7 
MIAP[0]	/* MoveIndirectAbsPt */
EIF[ ]	/* EndIf */
PUSHW[ ]	/* 1 value pushed */
0 
RCVT[ ]	/* ReadCVT */
IF[ ]	/* If */
PUSHW[ ]	/* 1 value pushed */
32 
MDAP[1]	/* MoveDirectAbsPt */
ELSE[ ]	/* Else */
PUSHW[ ]	/* 2 values pushed */
32 7 
MIAP[0]	/* MoveIndirectAbsPt */
EIF[ ]	/* EndIf */
PUSHW[ ]	/* 1 value pushed */
0 
RCVT[ ]	/* ReadCVT */
IF[ ]	/* If */
PUSHW[ ]	/* 1 value pushed */
0 
MDAP[1]	/* MoveDirectAbsPt */
ELSE[ ]	/* Else */
PUSHW[ ]	/* 2 values pushed */
0 1 
MIAP[0]	/* MoveIndirectAbsPt */
EIF[ ]	/* EndIf */
PUSHW[ ]	/* 1 value pushed */
0 
RCVT[ ]	/* ReadCVT */
IF[ ]	/* If */
PUSHW[ ]	/* 1 value pushed */
40 
MDAP[1]	/* MoveDirectAbsPt */
ELSE[ ]	/* Else */
PUSHW[ ]	/* 2 values pushed */
40 1 
MIAP[0]	/* MoveIndirectAbsPt */
EIF[ ]	/* EndIf */
PUSHW[ ]	/* 1 value pushed */
0 
RCVT[ ]	/* ReadCVT */
IF[ ]	/* If */
PUSHW[ ]	/* 1 value pushed */
47 
MDAP[1]	/* MoveDirectAbsPt */
ELSE[ ]	/* Else */
PUSHW[ ]	/* 2 values pushed */
47 1 
MIAP[0]	/* MoveIndirectAbsPt */
EIF[ ]	/* EndIf */
PUSHW[ ]	/* 1 value pushed */
0 
RCVT[ ]	/* ReadCVT */
IF[ ]	/* If */
PUSHW[ ]	/* 1 value pushed */
56 
MDAP[1]	/* MoveDirectAbsPt */
ELSE[ ]	/* Else */
PUSHW[ ]	/* 2 values pushed */
56 1 
MIAP[0]	/* MoveIndirectAbsPt */
EIF[ ]	/* EndIf */
PUSHW[ ]	/* 1 value pushed */
0 
SRP0[ ]	/* SetRefPoint0 */
PUSHW[ ]	/* 1 value pushed */
1 
MDRP[11100]	/* MoveDirectRelPt */
PUSHW[ ]	/* 1 value pushed */
7 
SRP0[ ]	/* SetRefPoint0 */
PUSHW[ ]	/* 1 value pushed */
6 
MDRP[11100]	/* MoveDirectRelPt */
PUSHW[ ]	/* 1 value pushed */
16 
MDRP[10000]	/* MoveDirectRelPt */
PUSHW[ ]	/* 3 values pushed */
19 0 7 
SRP1[ ]	/* SetRefPoint1 */
SRP2[ ]	/* SetRefPoint2 */
IP[ ]	/* InterpolatePts */
PUSHW[ ]	/* 3 values pushed */
21 0 7 
SRP1[ ]	/* SetRefPoint1 */
SRP2[ ]	/* SetRefPoint2 */
IP[ ]	/* InterpolatePts */
PUSHW[ ]	/* 1 value pushed */
24 
MDRP[10000]	/* MoveDirectRelPt */
PUSHW[ ]	/* 1 value pushed */
34 
MDRP[10000]	/* MoveDirectRelPt */
PUSHW[ ]	/* 1 value pushed */
1 
SRP0[ ]	/* SetRefPoint0 */
PUSHW[ ]	/* 1 value pushed */
39 
MDRP[10000]	/* MoveDirectRelPt */
PUSHW[ ]	/* 1 value pushed */
49 
MDRP[10000]	/* MoveDirectRelPt */
PUSHW[ ]	/* 1 value pushed */
55 
MDRP[10000]	/* MoveDirectRelPt */
IUP[0]	/* InterpolateUntPts */
IUP[1]	/* InterpolateUntPts */";
};
width = 3060;
}
);
note = W;
unicode = 87;
},
{
glyphname = X;
kernLeft = uni0412;
kernRight = uni042F;
lastChange = "2021-12-17 23:43:50 +0000";
layers = (
{
layerId = "E4BC606E-CD30-42C5-8BF2-1DD2ABB89119";
shapes = (
{
closed = 1;
nodes = (
(1290,900,l),
(1630,900,o),
(1740,1003,o),
(1740,1310,cs),
(1740,1751,o),
(1751,1770,o),
(1950,1770,c),
(1950,1850,l),
(1650,1850,ls),
(1385,1850,o),
(1292,1759,o),
(1291,1502,cs),
(1290,1310,ls),
(1290,1004,o),
(1267,970,o),
(1010,970,cs),
(765,970,o),
(730,1004,o),
(730,1310,cs),
(729,1502,ls),
(728,1759,o),
(635,1850,o),
(370,1850,cs),
(70,1850,l),
(70,1770,l),
(269,1770,o),
(280,1751,o),
(280,1310,cs),
(280,1003,o),
(401,900,o),
(730,900,c)
);
},
{
closed = 1;
nodes = (
(370,0,ls),
(635,0,o),
(728,91,o),
(729,348,cs),
(730,540,ls),
(730,844,o),
(765,870,o),
(1010,870,cs),
(1267,870,o),
(1290,845,o),
(1290,540,cs),
(1291,348,ls),
(1292,91,o),
(1385,0,o),
(1650,0,cs),
(1950,0,l),
(1950,80,l),
(1751,80,o),
(1740,104,o),
(1740,540,cs),
(1740,860,o),
(1630,940,o),
(1290,940,c),
(730,940,l),
(401,940,o),
(280,860,o),
(280,540,cs),
(280,104,o),
(269,80,o),
(70,80,c),
(70,0,l)
);
}
);
userData = {
assembly = "PUSHW[ ]	/* 1 value pushed */
0 
CALL[ ]	/* CallFunction */
SVTCA[0]	/* SetFreedomAndProjectionVectorToAxis */
PUSHW[ ]	/* 1 value pushed */
0 
RCVT[ ]	/* ReadCVT */
IF[ ]	/* If */
PUSHW[ ]	/* 1 value pushed */
14 
MDAP[1]	/* MoveDirectAbsPt */
ELSE[ ]	/* Else */
PUSHW[ ]	/* 2 values pushed */
14 7 
MIAP[0]	/* MoveIndirectAbsPt */
EIF[ ]	/* EndIf */
PUSHW[ ]	/* 1 value pushed */
0 
RCVT[ ]	/* ReadCVT */
IF[ ]	/* If */
PUSHW[ ]	/* 1 value pushed */
31 
MDAP[1]	/* MoveDirectAbsPt */
ELSE[ ]	/* Else */
PUSHW[ ]	/* 2 values pushed */
31 7 
MIAP[0]	/* MoveIndirectAbsPt */
EIF[ ]	/* EndIf */
PUSHW[ ]	/* 1 value pushed */
0 
RCVT[ ]	/* ReadCVT */
IF[ ]	/* If */
PUSHW[ ]	/* 1 value pushed */
0 
MDAP[1]	/* MoveDirectAbsPt */
ELSE[ ]	/* Else */
PUSHW[ ]	/* 2 values pushed */
0 1 
MIAP[0]	/* MoveIndirectAbsPt */
EIF[ ]	/* EndIf */
PUSHW[ ]	/* 1 value pushed */
0 
RCVT[ ]	/* ReadCVT */
IF[ ]	/* If */
PUSHW[ ]	/* 1 value pushed */
46 
MDAP[1]	/* MoveDirectAbsPt */
ELSE[ ]	/* Else */
PUSHW[ ]	/* 2 values pushed */
46 1 
MIAP[0]	/* MoveIndirectAbsPt */
EIF[ ]	/* EndIf */
PUSHW[ ]	/* 3 values pushed */
23 55 3 
CALL[ ]	/* CallFunction */
PUSHW[ ]	/* 1 value pushed */
0 
SRP0[ ]	/* SetRefPoint0 */
PUSHW[ ]	/* 1 value pushed */
1 
MDRP[11100]	/* MoveDirectRelPt */
PUSHW[ ]	/* 3 values pushed */
7 55 23 
SRP1[ ]	/* SetRefPoint1 */
SRP2[ ]	/* SetRefPoint2 */
IP[ ]	/* InterpolatePts */
PUSHW[ ]	/* 1 value pushed */
14 
SRP0[ ]	/* SetRefPoint0 */
PUSHW[ ]	/* 1 value pushed */
13 
MDRP[11100]	/* MoveDirectRelPt */
PUSHW[ ]	/* 1 value pushed */
33 
MDRP[10000]	/* MoveDirectRelPt */
PUSHW[ ]	/* 3 values pushed */
39 55 23 
SRP1[ ]	/* SetRefPoint1 */
SRP2[ ]	/* SetRefPoint2 */
IP[ ]	/* InterpolatePts */
PUSHW[ ]	/* 1 value pushed */
1 
SRP0[ ]	/* SetRefPoint0 */
PUSHW[ ]	/* 1 value pushed */
45 
MDRP[10000]	/* MoveDirectRelPt */
IUP[0]	/* InterpolateUntPts */
IUP[1]	/* InterpolateUntPts */";
};
width = 2020;
}
);
note = X;
unicode = 88;
},
{
glyphname = Y;
kernLeft = uni0423;
kernRight = uni0411;
lastChange = "2021-12-11 16:29:48 +0000";
layers = (
{
anchors = (
{
name = bottom;
pos = (1083,0);
},
{
name = top;
pos = (1083,1850);
},
{
name = topleft;
pos = (40,1850);
}
);
layerId = "E4BC606E-CD30-42C5-8BF2-1DD2ABB89119";
shapes = (
{
closed = 1;
nodes = (
(1678,-702,o),
(1880,-502,o),
(1880,-131,cs),
(1880,1420,ls),
(1880,1704,o),
(1920,1770,o),
(2090,1770,c),
(2090,1850,l),
(1240,1850,l),
(1240,1770,l),
(1406,1770,o),
(1430,1714,o),
(1430,1442,cs),
(1430,-231,ls),
(1430,-509,o),
(1367,-578,o),
(1081,-578,cs),
(809,-578,o),
(741,-584,o),
(741,-520,cs),
(741,-477,o),
(803,-450,o),
(803,-329,cs),
(803,-205,o),
(705,-122,o),
(572,-122,cs),
(421,-122,o),
(331,-220,o),
(331,-368,cs),
(331,-584,o),
(499,-699,o),
(811,-700,cs),
(1330,-701,ls)
);
},
{
closed = 1;
nodes = (
(1536,40,l),
(1536,173,l),
(1080,173,l),
(784,173,o),
(710,245,o),
(710,533,cs),
(710,1420,ls),
(710,1704,o),
(754,1770,o),
(940,1770,c),
(940,1850,l),
(100,1850,l),
(100,1770,l),
(212,1770,o),
(260,1665,o),
(260,1420,cs),
(260,533,ls),
(260,213,o),
(442,40,o),
(760,40,cs)
);
}
);
userData = {
assembly = "PUSHW[ ]	/* 1 value pushed */
0 
CALL[ ]	/* CallFunction */
SVTCA[0]	/* SetFreedomAndProjectionVectorToAxis */
PUSHW[ ]	/* 1 value pushed */
0 
RCVT[ ]	/* ReadCVT */
IF[ ]	/* If */
PUSHW[ ]	/* 1 value pushed */
0 
MDAP[1]	/* MoveDirectAbsPt */
ELSE[ ]	/* Else */
PUSHW[ ]	/* 2 values pushed */
0 7 
MIAP[0]	/* MoveIndirectAbsPt */
EIF[ ]	/* EndIf */
PUSHW[ ]	/* 1 value pushed */
0 
RCVT[ ]	/* ReadCVT */
IF[ ]	/* If */
PUSHW[ ]	/* 1 value pushed */
13 
MDAP[1]	/* MoveDirectAbsPt */
ELSE[ ]	/* Else */
PUSHW[ ]	/* 2 values pushed */
13 7 
MIAP[0]	/* MoveIndirectAbsPt */
EIF[ ]	/* EndIf */
PUSHW[ ]	/* 1 value pushed */
0 
RCVT[ ]	/* ReadCVT */
IF[ ]	/* If */
PUSHW[ ]	/* 1 value pushed */
20 
MDAP[1]	/* MoveDirectAbsPt */
ELSE[ ]	/* Else */
PUSHW[ ]	/* 2 values pushed */
20 7 
MIAP[0]	/* MoveIndirectAbsPt */
EIF[ ]	/* EndIf */
PUSHW[ ]	/* 1 value pushed */
0 
RCVT[ ]	/* ReadCVT */
IF[ ]	/* If */
PUSHW[ ]	/* 1 value pushed */
30 
MDAP[1]	/* MoveDirectAbsPt */
ELSE[ ]	/* Else */
PUSHW[ ]	/* 2 values pushed */
30 1 
MIAP[0]	/* MoveIndirectAbsPt */
EIF[ ]	/* EndIf */
PUSHW[ ]	/* 3 values pushed */
9 42 3 
CALL[ ]	/* CallFunction */
PUSHW[ ]	/* 1 value pushed */
13 
SRP0[ ]	/* SetRefPoint0 */
PUSHW[ ]	/* 1 value pushed */
12 
MDRP[11100]	/* MoveDirectRelPt */
PUSHW[ ]	/* 1 value pushed */
22 
MDRP[10000]	/* MoveDirectRelPt */
PUSHW[ ]	/* 1 value pushed */
30 
SRP0[ ]	/* SetRefPoint0 */
PUSHW[ ]	/* 1 value pushed */
39 
MDRP[11100]	/* MoveDirectRelPt */
NPUSHW[ ]	/* 27 values pushed */
7 39 23 39 39 39 55 39 71 39 87 39 103 39 119 39 135 39 151 39 167 39 183 39 199 39 13 
DELTAP1[ ]	/* DeltaExceptionP1 */
NPUSHW[ ]	/* 5 values pushed */
214 39 230 39 2 
DELTAP1[ ]	/* DeltaExceptionP1 */
PUSHW[ ]	/* 1 value pushed */
22 
SRP0[ ]	/* SetRefPoint0 */
PUSHW[ ]	/* 1 value pushed */
51 
MDRP[10000]	/* MoveDirectRelPt */
IUP[0]	/* InterpolateUntPts */
IUP[1]	/* InterpolateUntPts */";
};
width = 2155;
}
);
note = Y;
unicode = 89;
},
{
glyphname = Z;
kernLeft = uni0412;
kernRight = uni0421;
lastChange = "2021-12-13 00:51:57 +0000";
layers = (
{
anchors = (
{
name = top;
pos = (990,1850);
}
);
layerId = "E4BC606E-CD30-42C5-8BF2-1DD2ABB89119";
shapes = (
{
closed = 1;
nodes = (
(1730,0,l),
(1680,600,l),
(1594,600,l),
(1538,213,o),
(1348,123,o),
(1155,123,cs),
(945,123,ls),
(725,123,o),
(725,123,o),
(725,333,cs),
(725,598,ls),
(725,815,o),
(782,866,o),
(1027,865,cs),
(1278,864,ls),
(1519,863,o),
(1665,1000,o),
(1665,1223,cs),
(1665,1457,ls),
(1665,1723,o),
(1683,1771,o),
(1775,1771,c),
(1775,1850,l),
(190,1850,l),
(240,1250,l),
(326,1250,l),
(426,1637,o),
(594,1727,o),
(765,1727,cs),
(975,1727,ls),
(1195,1727,o),
(1195,1727,o),
(1195,1517,cs),
(1195,1251,ls),
(1195,1034,o),
(1138,983,o),
(893,984,cs),
(642,985,ls),
(401,986,o),
(255,849,o),
(255,626,cs),
(255,393,ls),
(255,127,o),
(237,79,o),
(145,79,c),
(145,0,l)
);
}
);
userData = {
assembly = "PUSHW[ ]	/* 1 value pushed */
0 
CALL[ ]	/* CallFunction */
SVTCA[0]	/* SetFreedomAndProjectionVectorToAxis */
PUSHW[ ]	/* 1 value pushed */
0 
RCVT[ ]	/* ReadCVT */
IF[ ]	/* If */
PUSHW[ ]	/* 1 value pushed */
22 
MDAP[1]	/* MoveDirectAbsPt */
ELSE[ ]	/* Else */
PUSHW[ ]	/* 2 values pushed */
22 7 
MIAP[0]	/* MoveIndirectAbsPt */
EIF[ ]	/* EndIf */
PUSHW[ ]	/* 1 value pushed */
0 
RCVT[ ]	/* ReadCVT */
IF[ ]	/* If */
PUSHW[ ]	/* 1 value pushed */
10 
MDAP[1]	/* MoveDirectAbsPt */
ELSE[ ]	/* Else */
PUSHW[ ]	/* 2 values pushed */
10 1 
MIAP[0]	/* MoveIndirectAbsPt */
EIF[ ]	/* EndIf */
PUSHW[ ]	/* 1 value pushed */
0 
MDRP[11100]	/* MoveDirectRelPt */
PUSHW[ ]	/* 1 value pushed */
22 
SRP0[ ]	/* SetRefPoint0 */
PUSHW[ ]	/* 1 value pushed */
12 
MDRP[11100]	/* MoveDirectRelPt */
SVTCA[1]	/* SetFreedomAndProjectionVectorToAxis */
PUSHW[ ]	/* 1 value pushed */
24 
MDAP[1]	/* MoveDirectAbsPt */
PUSHW[ ]	/* 1 value pushed */
8 
MDAP[1]	/* MoveDirectAbsPt */
PUSHW[ ]	/* 1 value pushed */
24 
SRP0[ ]	/* SetRefPoint0 */
PUSHW[ ]	/* 1 value pushed */
21 
MDRP[10000]	/* MoveDirectRelPt */
PUSHW[ ]	/* 1 value pushed */
21 
MDAP[1]	/* MoveDirectAbsPt */
PUSHW[ ]	/* 1 value pushed */
8 
SRP0[ ]	/* SetRefPoint0 */
PUSHW[ ]	/* 1 value pushed */
9 
MDRP[11100]	/* MoveDirectRelPt */
PUSHW[ ]	/* 3 values pushed */
0 21 9 
SRP1[ ]	/* SetRefPoint1 */
SRP2[ ]	/* SetRefPoint2 */
IP[ ]	/* InterpolatePts */
PUSHW[ ]	/* 3 values pushed */
12 21 9 
SRP1[ ]	/* SetRefPoint1 */
SRP2[ ]	/* SetRefPoint2 */
IP[ ]	/* InterpolatePts */
PUSHW[ ]	/* 1 value pushed */
21 
SRP0[ ]	/* SetRefPoint0 */
PUSHW[ ]	/* 1 value pushed */
20 
MDRP[11100]	/* MoveDirectRelPt */
PUSHW[ ]	/* 1 value pushed */
9 
SRP0[ ]	/* SetRefPoint0 */
PUSHW[ ]	/* 1 value pushed */
25 
MDRP[11100]	/* MoveDirectRelPt */
IUP[0]	/* InterpolateUntPts */
IUP[1]	/* InterpolateUntPts */";
};
width = 1920;
}
);
note = Z;
unicode = 90;
},
{
glyphname = a;
kernLeft = o;
kernRight = uni0430;
lastChange = "2021-12-16 23:17:49 +0000";
layers = (
{
anchors = (
{
name = bottom;
pos = (883,0);
},
{
name = ogonek;
pos = (1617,10);
},
{
name = top;
pos = (883,1500);
}
);
background = {
shapes = (
{
closed = 1;
nodes = (
(1723,0,l),
(1723,80,l),
(1529,80,o),
(1523,112,o),
(1523,400,cs),
(1523,1100,ls),
(1523,1388,o),
(1529,1420,o),
(1723,1420,c),
(1723,1500,l),
(553,1500,ls),
(290,1500,o),
(143,1360,o),
(143,1100,cs),
(143,400,ls),
(143,140,o),
(293,0,o),
(553,0,cs)
);
},
{
closed = 1;
nodes = (
(611,100,o),
(553,160,o),
(553,400,cs),
(553,1100,ls),
(553,1340,o),
(618,1400,o),
(823,1400,cs),
(1103,1400,o),
(1123,1400,o),
(1123,1130,cs),
(1123,370,ls),
(1123,100,o),
(1123,100,o),
(843,100,cs)
);
}
);
};
layerId = "E4BC606E-CD30-42C5-8BF2-1DD2ABB89119";
shapes = (
{
closed = 1;
nodes = (
(1723,0,l),
(1723,80,l),
(1529,80,o),
(1523,102,o),
(1523,300,cs),
(1523,1100,ls),
(1523,1360,o),
(1373,1500,o),
(1113,1500,cs),
(694,1500,ls),
(375,1500,o),
(204,1380,o),
(204,1158,cs),
(204,1034,o),
(290,952,o),
(420,952,cs),
(538,952,o),
(616,1031,o),
(616,1149,cs),
(616,1276,o),
(564,1305,o),
(564,1350,cs),
(564,1406,o),
(618,1400,o),
(869,1400,cs),
(1054,1400,o),
(1123,1340,o),
(1123,1100,cs),
(1123,771,l),
(590,771,ls),
(319,771,o),
(196,671,o),
(196,450,cs),
(196,298,ls),
(196,104,o),
(334,0,o),
(553,0,cs)
);
},
{
closed = 1;
nodes = (
(1123,300,ls),
(1123,100,o),
(1123,100,o),
(843,100,cs),
(660,100,o),
(606,146,o),
(606,325,cs),
(606,440,ls),
(606,599,o),
(701,671,o),
(913,671,cs),
(1123,671,l)
);
}
);
userData = {
assembly = "PUSHW[ ]	/* 1 value pushed */
0 
CALL[ ]	/* CallFunction */
SVTCA[0]	/* SetFreedomAndProjectionVectorToAxis */
PUSHW[ ]	/* 1 value pushed */
0 
RCVT[ ]	/* ReadCVT */
IF[ ]	/* If */
PUSHW[ ]	/* 1 value pushed */
5 
MDAP[1]	/* MoveDirectAbsPt */
ELSE[ ]	/* Else */
PUSHW[ ]	/* 2 values pushed */
5 5 
MIAP[0]	/* MoveIndirectAbsPt */
EIF[ ]	/* EndIf */
PUSHW[ ]	/* 1 value pushed */
0 
RCVT[ ]	/* ReadCVT */
IF[ ]	/* If */
PUSHW[ ]	/* 1 value pushed */
15 
MDAP[1]	/* MoveDirectAbsPt */
ELSE[ ]	/* Else */
PUSHW[ ]	/* 2 values pushed */
15 1 
MIAP[0]	/* MoveIndirectAbsPt */
EIF[ ]	/* EndIf */
PUSHW[ ]	/* 1 value pushed */
0 
RCVT[ ]	/* ReadCVT */
IF[ ]	/* If */
PUSHW[ ]	/* 1 value pushed */
22 
MDAP[1]	/* MoveDirectAbsPt */
ELSE[ ]	/* Else */
PUSHW[ ]	/* 2 values pushed */
22 1 
MIAP[0]	/* MoveIndirectAbsPt */
EIF[ ]	/* EndIf */
PUSHW[ ]	/* 3 values pushed */
47 48 3 
CALL[ ]	/* CallFunction */
PUSHW[ ]	/* 3 values pushed */
34 57 3 
CALL[ ]	/* CallFunction */
PUSHW[ ]	/* 1 value pushed */
15 
SRP0[ ]	/* SetRefPoint0 */
PUSHW[ ]	/* 1 value pushed */
14 
MDRP[11100]	/* MoveDirectRelPt */
PUSHW[ ]	/* 1 value pushed */
5 
SRP0[ ]	/* SetRefPoint0 */
PUSHW[ ]	/* 1 value pushed */
37 
MDRP[11100]	/* MoveDirectRelPt */
NPUSHW[ ]	/* 5 values pushed */
217 37 233 37 2 
DELTAP1[ ]	/* DeltaExceptionP1 */
NPUSHW[ ]	/* 27 values pushed */
8 37 24 37 40 37 56 37 72 37 88 37 104 37 120 37 136 37 152 37 168 37 184 37 200 37 13 
DELTAP1[ ]	/* DeltaExceptionP1 */
PUSHW[ ]	/* 1 value pushed */
14 
SRP0[ ]	/* SetRefPoint0 */
PUSHW[ ]	/* 1 value pushed */
54 
MDRP[10000]	/* MoveDirectRelPt */
IUP[0]	/* InterpolateUntPts */
IUP[1]	/* InterpolateUntPts */";
};
width = 1775;
}
);
note = a;
unicode = 97;
},
{
glyphname = a.ss01;
kernLeft = o;
kernRight = uni0430;
lastChange = "2021-12-16 23:21:03 +0000";
layers = (
{
anchors = (
{
name = bottom;
pos = (918,0);
},
{
name = ogonek;
pos = (1660,10);
},
{
name = top;
pos = (918,1500);
}
);
background = {
shapes = (
{
closed = 1;
nodes = (
(1723,0,l),
(1723,80,l),
(1529,80,o),
(1523,112,o),
(1523,400,cs),
(1523,1100,ls),
(1523,1388,o),
(1529,1420,o),
(1723,1420,c),
(1723,1500,l),
(553,1500,ls),
(290,1500,o),
(143,1360,o),
(143,1100,cs),
(143,400,ls),
(143,140,o),
(293,0,o),
(553,0,cs)
);
},
{
closed = 1;
nodes = (
(611,100,o),
(553,160,o),
(553,400,cs),
(553,1100,ls),
(553,1340,o),
(618,1400,o),
(823,1400,cs),
(1103,1400,o),
(1123,1400,o),
(1123,1130,cs),
(1123,370,ls),
(1123,100,o),
(1123,100,o),
(843,100,cs)
);
}
);
};
layerId = "E4BC606E-CD30-42C5-8BF2-1DD2ABB89119";
shapes = (
{
closed = 1;
nodes = (
(1745,0,l),
(1745,80,l),
(1551,80,o),
(1545,112,o),
(1545,400,cs),
(1545,1100,ls),
(1545,1388,o),
(1551,1420,o),
(1745,1420,c),
(1745,1500,l),
(575,1500,ls),
(312,1500,o),
(165,1360,o),
(165,1100,cs),
(165,400,ls),
(165,140,o),
(315,0,o),
(575,0,cs)
);
},
{
closed = 1;
nodes = (
(633,100,o),
(575,160,o),
(575,400,cs),
(575,1100,ls),
(575,1340,o),
(640,1400,o),
(845,1400,cs),
(1125,1400,o),
(1145,1400,o),
(1145,1130,cs),
(1145,370,ls),
(1145,100,o),
(1145,100,o),
(865,100,cs)
);
}
);
userData = {
assembly = "PUSHW[ ]	/* 1 value pushed */
0 
CALL[ ]	/* CallFunction */
SVTCA[0]	/* SetFreedomAndProjectionVectorToAxis */
PUSHW[ ]	/* 1 value pushed */
0 
RCVT[ ]	/* ReadCVT */
IF[ ]	/* If */
PUSHW[ ]	/* 1 value pushed */
5 
MDAP[1]	/* MoveDirectAbsPt */
ELSE[ ]	/* Else */
PUSHW[ ]	/* 2 values pushed */
5 5 
MIAP[0]	/* MoveIndirectAbsPt */
EIF[ ]	/* EndIf */
PUSHW[ ]	/* 1 value pushed */
0 
RCVT[ ]	/* ReadCVT */
IF[ ]	/* If */
PUSHW[ ]	/* 1 value pushed */
15 
MDAP[1]	/* MoveDirectAbsPt */
ELSE[ ]	/* Else */
PUSHW[ ]	/* 2 values pushed */
15 1 
MIAP[0]	/* MoveIndirectAbsPt */
EIF[ ]	/* EndIf */
PUSHW[ ]	/* 1 value pushed */
0 
RCVT[ ]	/* ReadCVT */
IF[ ]	/* If */
PUSHW[ ]	/* 1 value pushed */
22 
MDAP[1]	/* MoveDirectAbsPt */
ELSE[ ]	/* Else */
PUSHW[ ]	/* 2 values pushed */
22 1 
MIAP[0]	/* MoveIndirectAbsPt */
EIF[ ]	/* EndIf */
PUSHW[ ]	/* 3 values pushed */
47 48 3 
CALL[ ]	/* CallFunction */
PUSHW[ ]	/* 3 values pushed */
34 57 3 
CALL[ ]	/* CallFunction */
PUSHW[ ]	/* 1 value pushed */
15 
SRP0[ ]	/* SetRefPoint0 */
PUSHW[ ]	/* 1 value pushed */
14 
MDRP[11100]	/* MoveDirectRelPt */
PUSHW[ ]	/* 1 value pushed */
5 
SRP0[ ]	/* SetRefPoint0 */
PUSHW[ ]	/* 1 value pushed */
37 
MDRP[11100]	/* MoveDirectRelPt */
NPUSHW[ ]	/* 5 values pushed */
217 37 233 37 2 
DELTAP1[ ]	/* DeltaExceptionP1 */
NPUSHW[ ]	/* 27 values pushed */
8 37 24 37 40 37 56 37 72 37 88 37 104 37 120 37 136 37 152 37 168 37 184 37 200 37 13 
DELTAP1[ ]	/* DeltaExceptionP1 */
PUSHW[ ]	/* 1 value pushed */
14 
SRP0[ ]	/* SetRefPoint0 */
PUSHW[ ]	/* 1 value pushed */
54 
MDRP[10000]	/* MoveDirectRelPt */
IUP[0]	/* InterpolateUntPts */
IUP[1]	/* InterpolateUntPts */";
};
width = 1845;
}
);
note = a;
},
{
glyphname = "alpha-latin";
kernLeft = o;
kernRight = uni0430;
lastChange = "2021-12-16 23:18:17 +0000";
layers = (
{
anchors = (
{
name = bottom;
pos = (918,0);
},
{
name = ogonek;
pos = (1660,10);
},
{
name = top;
pos = (918,1500);
}
);
layerId = "E4BC606E-CD30-42C5-8BF2-1DD2ABB89119";
shapes = (
{
closed = 1;
nodes = (
(1745,0,l),
(1745,80,l),
(1551,80,o),
(1545,112,o),
(1545,400,cs),
(1545,1100,ls),
(1545,1388,o),
(1551,1420,o),
(1745,1420,c),
(1745,1500,l),
(575,1500,ls),
(312,1500,o),
(165,1360,o),
(165,1100,cs),
(165,400,ls),
(165,140,o),
(315,0,o),
(575,0,cs)
);
},
{
closed = 1;
nodes = (
(633,100,o),
(575,160,o),
(575,400,cs),
(575,1100,ls),
(575,1340,o),
(640,1400,o),
(845,1400,cs),
(1125,1400,o),
(1145,1400,o),
(1145,1130,cs),
(1145,370,ls),
(1145,100,o),
(1145,100,o),
(865,100,cs)
);
}
);
userData = {
assembly = "PUSHW[ ]	/* 1 value pushed */
0 
CALL[ ]	/* CallFunction */
SVTCA[0]	/* SetFreedomAndProjectionVectorToAxis */
PUSHW[ ]	/* 1 value pushed */
0 
RCVT[ ]	/* ReadCVT */
IF[ ]	/* If */
PUSHW[ ]	/* 1 value pushed */
5 
MDAP[1]	/* MoveDirectAbsPt */
ELSE[ ]	/* Else */
PUSHW[ ]	/* 2 values pushed */
5 5 
MIAP[0]	/* MoveIndirectAbsPt */
EIF[ ]	/* EndIf */
PUSHW[ ]	/* 1 value pushed */
0 
RCVT[ ]	/* ReadCVT */
IF[ ]	/* If */
PUSHW[ ]	/* 1 value pushed */
15 
MDAP[1]	/* MoveDirectAbsPt */
ELSE[ ]	/* Else */
PUSHW[ ]	/* 2 values pushed */
15 1 
MIAP[0]	/* MoveIndirectAbsPt */
EIF[ ]	/* EndIf */
PUSHW[ ]	/* 1 value pushed */
0 
RCVT[ ]	/* ReadCVT */
IF[ ]	/* If */
PUSHW[ ]	/* 1 value pushed */
22 
MDAP[1]	/* MoveDirectAbsPt */
ELSE[ ]	/* Else */
PUSHW[ ]	/* 2 values pushed */
22 1 
MIAP[0]	/* MoveIndirectAbsPt */
EIF[ ]	/* EndIf */
PUSHW[ ]	/* 3 values pushed */
47 48 3 
CALL[ ]	/* CallFunction */
PUSHW[ ]	/* 3 values pushed */
34 57 3 
CALL[ ]	/* CallFunction */
PUSHW[ ]	/* 1 value pushed */
15 
SRP0[ ]	/* SetRefPoint0 */
PUSHW[ ]	/* 1 value pushed */
14 
MDRP[11100]	/* MoveDirectRelPt */
PUSHW[ ]	/* 1 value pushed */
5 
SRP0[ ]	/* SetRefPoint0 */
PUSHW[ ]	/* 1 value pushed */
37 
MDRP[11100]	/* MoveDirectRelPt */
NPUSHW[ ]	/* 5 values pushed */
217 37 233 37 2 
DELTAP1[ ]	/* DeltaExceptionP1 */
NPUSHW[ ]	/* 27 values pushed */
8 37 24 37 40 37 56 37 72 37 88 37 104 37 120 37 136 37 152 37 168 37 184 37 200 37 13 
DELTAP1[ ]	/* DeltaExceptionP1 */
PUSHW[ ]	/* 1 value pushed */
14 
SRP0[ ]	/* SetRefPoint0 */
PUSHW[ ]	/* 1 value pushed */
54 
MDRP[10000]	/* MoveDirectRelPt */
IUP[0]	/* InterpolateUntPts */
IUP[1]	/* InterpolateUntPts */";
};
width = 1845;
}
);
metricLeft = o;
metricRight = u;
note = a;
unicode = 593;
},
{
glyphname = ae;
kernLeft = o;
lastChange = "2021-12-16 23:18:17 +0000";
layers = (
{
anchors = (
{
name = bottom;
pos = (1248,0);
},
{
name = top;
pos = (1248,1500);
}
);
background = {
shapes = (
{
pos = (-69,0);
ref = a;
}
);
};
layerId = "E4BC606E-CD30-42C5-8BF2-1DD2ABB89119";
shapes = (
{
closed = 1;
nodes = (
(1848,0,ls),
(2167,0,o),
(2338,120,o),
(2338,342,cs),
(2338,466,o),
(2252,548,o),
(2122,548,cs),
(2004,548,o),
(1926,469,o),
(1926,351,cs),
(1926,224,o),
(1978,195,o),
(1978,150,cs),
(1978,94,o),
(1924,100,o),
(1683,100,cs),
(1491,100,o),
(1439,160,o),
(1439,400,cs),
(1439,1100,ls),
(1439,1340,o),
(1505,1400,o),
(1683,1400,cs),
(1850,1400,o),
(1926,1340,o),
(1926,1100,cs),
(1926,749,l),
(2336,749,l),
(2336,1100,ls),
(2336,1360,o),
(2186,1500,o),
(1926,1500,cs),
(636,1500,ls),
(317,1500,o),
(146,1380,o),
(146,1158,cs),
(146,1034,o),
(232,952,o),
(362,952,cs),
(480,952,o),
(558,1031,o),
(558,1149,cs),
(558,1276,o),
(506,1305,o),
(506,1350,cs),
(506,1406,o),
(560,1400,o),
(801,1400,cs),
(993,1400,o),
(1045,1340,o),
(1045,1100,cs),
(1045,751,l),
(512,751,ls),
(262,751,o),
(148,658,o),
(148,453,cs),
(148,350,ls),
(148,123,o),
(298,0,o),
(558,0,cs)
);
},
{
closed = 1;
nodes = (
(634,100,o),
(558,150,o),
(558,350,cs),
(558,411,ls),
(558,576,o),
(645,651,o),
(835,651,cs),
(1045,651,l),
(1045,400,ls),
(1045,160,o),
(979,100,o),
(801,100,cs)
);
},
{
closed = 1;
nodes = (
(2336,749,l),
(2336,849,l),
(1246,849,l),
(1246,749,l)
);
}
);
width = 2484;
},
{
anchors = (
{
name = bottom;
pos = (1248,0);
},
{
name = top;
pos = (1248,1500);
}
);
associatedMasterId = "E4BC606E-CD30-42C5-8BF2-1DD2ABB89119";
background = {
shapes = (
{
pos = (-69,0);
ref = a;
}
);
};
layerId = "9AF9A451-7AB5-4459-8E89-69FFE7A9A425";
name = "13 Dec 21, 17:25";
shapes = (
{
closed = 1;
nodes = (
(1848,0,ls),
(2167,0,o),
(2338,120,o),
(2338,342,cs),
(2338,466,o),
(2252,548,o),
(2122,548,cs),
(2004,548,o),
(1926,469,o),
(1926,351,cs),
(1926,224,o),
(1978,195,o),
(1978,150,cs),
(1978,94,o),
(1924,100,o),
(1683,100,cs),
(1491,100,o),
(1439,160,o),
(1439,400,cs),
(1439,1100,ls),
(1439,1340,o),
(1505,1400,o),
(1683,1400,cs),
(1850,1400,o),
(1926,1340,o),
(1926,1100,cs),
(1926,749,l),
(2336,749,l),
(2336,1100,ls),
(2336,1360,o),
(2186,1500,o),
(1926,1500,cs),
(636,1500,ls),
(317,1500,o),
(146,1380,o),
(146,1158,cs),
(146,1034,o),
(232,952,o),
(362,952,cs),
(480,952,o),
(558,1031,o),
(558,1149,cs),
(558,1276,o),
(506,1305,o),
(506,1350,cs),
(506,1406,o),
(560,1400,o),
(801,1400,cs),
(993,1400,o),
(1045,1340,o),
(1045,1100,cs),
(1045,751,l),
(342,751,ls),
(209,751,o),
(148,689,o),
(148,553,cs),
(148,400,ls),
(148,140,o),
(298,0,o),
(558,0,cs)
);
},
{
closed = 1;
nodes = (
(634,100,o),
(558,160,o),
(558,400,cs),
(558,511,ls),
(558,607,o),
(604,651,o),
(705,651,cs),
(1045,651,l),
(1045,400,ls),
(1045,160,o),
(979,100,o),
(801,100,cs)
);
},
{
closed = 1;
nodes = (
(2336,749,l),
(2336,849,l),
(1246,849,l),
(1246,749,l)
);
}
);
width = 2484;
}
);
metricLeft = "=|e";
metricRight = e;
unicode = 230;
},
{
glyphname = b;
kernLeft = uni0412;
kernRight = uni043E;
lastChange = "2021-12-13 16:17:42 +0000";
layers = (
{
background = {
shapes = (
{
ref = H;
}
);
};
layerId = "E4BC606E-CD30-42C5-8BF2-1DD2ABB89119";
shapes = (
{
closed = 1;
nodes = (
(1515,0,o),
(1665,140,o),
(1665,400,cs),
(1665,1100,ls),
(1665,1360,o),
(1518,1500,o),
(1255,1500,cs),
(545,1500,l),
(545,1400,l),
(985,1400,ls),
(1190,1400,o),
(1255,1340,o),
(1255,1100,cs),
(1255,400,ls),
(1255,160,o),
(1197,100,o),
(965,100,cs),
(685,100,o),
(685,100,o),
(685,370,cs),
(685,1650,ls),
(685,1863,o),
(766,1970,o),
(912,1970,c),
(912,2050,l),
(742,2050,ls),
(640,2050,o),
(548,2019,o),
(477,1947,c),
(400,2019,o),
(306,2050,o),
(192,2050,cs),
(52,2050,l),
(52,1970,l),
(195,1970,o),
(275,1863,o),
(275,1650,cs),
(275,400,ls),
(275,112,o),
(269,80,o),
(75,80,c),
(75,0,l),
(1255,0,ls)
);
}
);
userData = {
assembly = "PUSHW[ ]	/* 1 value pushed */
0 
CALL[ ]	/* CallFunction */
SVTCA[0]	/* SetFreedomAndProjectionVectorToAxis */
PUSHW[ ]	/* 1 value pushed */
0 
RCVT[ ]	/* ReadCVT */
IF[ ]	/* If */
PUSHW[ ]	/* 1 value pushed */
14 
MDAP[1]	/* MoveDirectAbsPt */
ELSE[ ]	/* Else */
PUSHW[ ]	/* 2 values pushed */
14 5 
MIAP[0]	/* MoveIndirectAbsPt */
EIF[ ]	/* EndIf */
PUSHW[ ]	/* 1 value pushed */
0 
RCVT[ ]	/* ReadCVT */
IF[ ]	/* If */
PUSHW[ ]	/* 1 value pushed */
0 
MDAP[1]	/* MoveDirectAbsPt */
ELSE[ ]	/* Else */
PUSHW[ ]	/* 2 values pushed */
0 1 
MIAP[0]	/* MoveIndirectAbsPt */
EIF[ ]	/* EndIf */
PUSHW[ ]	/* 1 value pushed */
0 
RCVT[ ]	/* ReadCVT */
IF[ ]	/* If */
PUSHW[ ]	/* 1 value pushed */
26 
MDAP[1]	/* MoveDirectAbsPt */
ELSE[ ]	/* Else */
PUSHW[ ]	/* 2 values pushed */
26 1 
MIAP[0]	/* MoveIndirectAbsPt */
EIF[ ]	/* EndIf */
PUSHW[ ]	/* 3 values pushed */
7 6 3 
CALL[ ]	/* CallFunction */
PUSHW[ ]	/* 1 value pushed */
0 
SRP0[ ]	/* SetRefPoint0 */
PUSHW[ ]	/* 1 value pushed */
1 
MDRP[11100]	/* MoveDirectRelPt */
PUSHW[ ]	/* 1 value pushed */
37 
MDRP[10000]	/* MoveDirectRelPt */
PUSHW[ ]	/* 1 value pushed */
14 
SRP0[ ]	/* SetRefPoint0 */
PUSHW[ ]	/* 1 value pushed */
42 
MDRP[11100]	/* MoveDirectRelPt */
NPUSHW[ ]	/* 5 values pushed */
217 42 233 42 2 
DELTAP1[ ]	/* DeltaExceptionP1 */
NPUSHW[ ]	/* 27 values pushed */
8 42 24 42 40 42 56 42 72 42 88 42 104 42 120 42 136 42 152 42 168 42 184 42 200 42 13 
DELTAP1[ ]	/* DeltaExceptionP1 */
IUP[0]	/* InterpolateUntPts */
IUP[1]	/* InterpolateUntPts */";
};
width = 1830;
},
{
associatedMasterId = "E4BC606E-CD30-42C5-8BF2-1DD2ABB89119";
background = {
shapes = (
{
pos = (26,1499);
ref = p;
scale = (1,-1);
}
);
};
layerId = "61CA5A13-F8D0-457A-B979-6FC3CCBD7784";
name = "13 Dec 21, 17:14";
shapes = (
{
closed = 1;
nodes = (
(1515,0,o),
(1665,140,o),
(1665,400,cs),
(1665,1100,ls),
(1665,1360,o),
(1518,1500,o),
(1255,1500,cs),
(545,1500,l),
(545,1400,l),
(985,1400,ls),
(1190,1400,o),
(1255,1340,o),
(1255,1100,cs),
(1255,400,ls),
(1255,160,o),
(1197,100,o),
(965,100,cs),
(685,100,o),
(685,100,o),
(685,370,cs),
(685,1800,ls),
(685,2013,o),
(766,2120,o),
(912,2120,c),
(912,2200,l),
(742,2200,ls),
(640,2200,o),
(548,2169,o),
(477,2097,c),
(400,2169,o),
(306,2200,o),
(192,2200,cs),
(52,2200,l),
(52,2120,l),
(195,2120,o),
(275,2013,o),
(275,1800,cs),
(275,400,ls),
(275,112,o),
(269,80,o),
(75,80,c),
(75,0,l),
(1255,0,ls)
);
}
);
userData = {
assembly = "PUSHW[ ]	/* 1 value pushed */
0 
CALL[ ]	/* CallFunction */
SVTCA[0]	/* SetFreedomAndProjectionVectorToAxis */
PUSHW[ ]	/* 1 value pushed */
0 
RCVT[ ]	/* ReadCVT */
IF[ ]	/* If */
PUSHW[ ]	/* 1 value pushed */
14 
MDAP[1]	/* MoveDirectAbsPt */
ELSE[ ]	/* Else */
PUSHW[ ]	/* 2 values pushed */
14 5 
MIAP[0]	/* MoveIndirectAbsPt */
EIF[ ]	/* EndIf */
PUSHW[ ]	/* 1 value pushed */
0 
RCVT[ ]	/* ReadCVT */
IF[ ]	/* If */
PUSHW[ ]	/* 1 value pushed */
0 
MDAP[1]	/* MoveDirectAbsPt */
ELSE[ ]	/* Else */
PUSHW[ ]	/* 2 values pushed */
0 1 
MIAP[0]	/* MoveIndirectAbsPt */
EIF[ ]	/* EndIf */
PUSHW[ ]	/* 1 value pushed */
0 
RCVT[ ]	/* ReadCVT */
IF[ ]	/* If */
PUSHW[ ]	/* 1 value pushed */
26 
MDAP[1]	/* MoveDirectAbsPt */
ELSE[ ]	/* Else */
PUSHW[ ]	/* 2 values pushed */
26 1 
MIAP[0]	/* MoveIndirectAbsPt */
EIF[ ]	/* EndIf */
PUSHW[ ]	/* 3 values pushed */
7 6 3 
CALL[ ]	/* CallFunction */
PUSHW[ ]	/* 1 value pushed */
0 
SRP0[ ]	/* SetRefPoint0 */
PUSHW[ ]	/* 1 value pushed */
1 
MDRP[11100]	/* MoveDirectRelPt */
PUSHW[ ]	/* 1 value pushed */
37 
MDRP[10000]	/* MoveDirectRelPt */
PUSHW[ ]	/* 1 value pushed */
14 
SRP0[ ]	/* SetRefPoint0 */
PUSHW[ ]	/* 1 value pushed */
42 
MDRP[11100]	/* MoveDirectRelPt */
NPUSHW[ ]	/* 5 values pushed */
217 42 233 42 2 
DELTAP1[ ]	/* DeltaExceptionP1 */
NPUSHW[ ]	/* 27 values pushed */
8 42 24 42 40 42 56 42 72 42 88 42 104 42 120 42 136 42 152 42 168 42 184 42 200 42 13 
DELTAP1[ ]	/* DeltaExceptionP1 */
IUP[0]	/* InterpolateUntPts */
IUP[1]	/* InterpolateUntPts */";
};
width = 1830;
}
);
metricLeft = h;
metricRight = o;
note = b;
unicode = 98;
},
{
glyphname = c;
kernLeft = o;
kernRight = uni0441;
lastChange = "2021-12-16 23:18:25 +0000";
layers = (
{
anchors = (
{
name = bottom;
pos = (815,0);
},
{
name = top;
pos = (805,1500);
}
);
layerId = "E4BC606E-CD30-42C5-8BF2-1DD2ABB89119";
shapes = (
{
closed = 1;
nodes = (
(1316,0,o),
(1484,120,o),
(1484,342,cs),
(1484,478,o),
(1398,568,o),
(1268,568,cs),
(1132,568,o),
(1042,481,o),
(1042,351,cs),
(1042,224,o),
(1104,195,o),
(1104,150,cs),
(1104,94,o),
(1055,100,o),
(819,100,cs),
(643,100,o),
(575,160,o),
(575,400,cs),
(575,1100,ls),
(575,1340,o),
(655,1400,o),
(819,1400,cs),
(1055,1400,o),
(1104,1406,o),
(1104,1350,cs),
(1104,1305,o),
(1042,1276,o),
(1042,1149,cs),
(1042,1019,o),
(1132,932,o),
(1268,932,cs),
(1398,932,o),
(1484,1022,o),
(1484,1158,cs),
(1484,1380,o),
(1316,1500,o),
(1004,1500,cs),
(575,1500,ls),
(315,1500,o),
(165,1360,o),
(165,1100,cs),
(165,400,ls),
(165,140,o),
(315,0,o),
(575,0,cs),
(1004,0,ls)
);
}
);
userData = {
assembly = "PUSHW[ ]	/* 1 value pushed */
0 
CALL[ ]	/* CallFunction */
SVTCA[0]	/* SetFreedomAndProjectionVectorToAxis */
PUSHW[ ]	/* 1 value pushed */
0 
RCVT[ ]	/* ReadCVT */
IF[ ]	/* If */
PUSHW[ ]	/* 1 value pushed */
6 
MDAP[1]	/* MoveDirectAbsPt */
ELSE[ ]	/* Else */
PUSHW[ ]	/* 2 values pushed */
6 5 
MIAP[0]	/* MoveIndirectAbsPt */
EIF[ ]	/* EndIf */
PUSHW[ ]	/* 1 value pushed */
0 
RCVT[ ]	/* ReadCVT */
IF[ ]	/* If */
PUSHW[ ]	/* 1 value pushed */
28 
MDAP[1]	/* MoveDirectAbsPt */
ELSE[ ]	/* Else */
PUSHW[ ]	/* 2 values pushed */
28 1 
MIAP[0]	/* MoveIndirectAbsPt */
EIF[ ]	/* EndIf */
PUSHW[ ]	/* 1 value pushed */
6 
SRP0[ ]	/* SetRefPoint0 */
PUSHW[ ]	/* 1 value pushed */
15 
MDRP[11100]	/* MoveDirectRelPt */
NPUSHW[ ]	/* 5 values pushed */
217 15 233 15 2 
DELTAP1[ ]	/* DeltaExceptionP1 */
NPUSHW[ ]	/* 27 values pushed */
8 15 24 15 40 15 56 15 72 15 88 15 104 15 120 15 136 15 152 15 168 15 184 15 200 15 13 
DELTAP1[ ]	/* DeltaExceptionP1 */
PUSHW[ ]	/* 1 value pushed */
28 
SRP0[ ]	/* SetRefPoint0 */
PUSHW[ ]	/* 1 value pushed */
20 
MDRP[11100]	/* MoveDirectRelPt */
NPUSHW[ ]	/* 27 values pushed */
7 20 23 20 39 20 55 20 71 20 87 20 103 20 119 20 135 20 151 20 167 20 183 20 199 20 13 
DELTAP1[ ]	/* DeltaExceptionP1 */
NPUSHW[ ]	/* 5 values pushed */
214 20 230 20 2 
DELTAP1[ ]	/* DeltaExceptionP1 */
IUP[0]	/* InterpolateUntPts */
IUP[1]	/* InterpolateUntPts */";
};
width = 1589;
}
);
metricLeft = o;
note = c;
unicode = 99;
},
{
glyphname = d;
kernLeft = o;
kernRight = uni042F;
lastChange = "2021-12-16 23:18:25 +0000";
layers = (
{
layerId = "E4BC606E-CD30-42C5-8BF2-1DD2ABB89119";
shapes = (
{
closed = 1;
nodes = (
(1755,0,l),
(1755,80,l),
(1561,80,o),
(1555,112,o),
(1555,400,cs),
(1555,1650,ls),
(1555,1863,o),
(1635,1970,o),
(1778,1970,c),
(1778,2050,l),
(1638,2050,ls),
(1524,2050,o),
(1430,2019,o),
(1353,1947,c),
(1282,2019,o),
(1190,2050,o),
(1088,2050,cs),
(918,2050,l),
(918,1970,l),
(1064,1970,o),
(1145,1863,o),
(1145,1650,cs),
(1145,370,ls),
(1145,100,o),
(1145,100,o),
(865,100,cs),
(633,100,o),
(575,160,o),
(575,400,cs),
(575,1100,ls),
(575,1340,o),
(640,1400,o),
(845,1400,cs),
(1285,1400,l),
(1285,1500,l),
(575,1500,ls),
(312,1500,o),
(165,1360,o),
(165,1100,cs),
(165,400,ls),
(165,140,o),
(315,0,o),
(575,0,cs)
);
}
);
userData = {
assembly = "PUSHW[ ]	/* 1 value pushed */
0 
CALL[ ]	/* CallFunction */
SVTCA[0]	/* SetFreedomAndProjectionVectorToAxis */
PUSHW[ ]	/* 1 value pushed */
0 
RCVT[ ]	/* ReadCVT */
IF[ ]	/* If */
PUSHW[ ]	/* 1 value pushed */
5 
MDAP[1]	/* MoveDirectAbsPt */
ELSE[ ]	/* Else */
PUSHW[ ]	/* 2 values pushed */
5 5 
MIAP[0]	/* MoveIndirectAbsPt */
EIF[ ]	/* EndIf */
PUSHW[ ]	/* 1 value pushed */
0 
RCVT[ ]	/* ReadCVT */
IF[ ]	/* If */
PUSHW[ ]	/* 1 value pushed */
20 
MDAP[1]	/* MoveDirectAbsPt */
ELSE[ ]	/* Else */
PUSHW[ ]	/* 2 values pushed */
20 1 
MIAP[0]	/* MoveIndirectAbsPt */
EIF[ ]	/* EndIf */
PUSHW[ ]	/* 1 value pushed */
0 
RCVT[ ]	/* ReadCVT */
IF[ ]	/* If */
PUSHW[ ]	/* 1 value pushed */
27 
MDAP[1]	/* MoveDirectAbsPt */
ELSE[ ]	/* Else */
PUSHW[ ]	/* 2 values pushed */
27 1 
MIAP[0]	/* MoveIndirectAbsPt */
EIF[ ]	/* EndIf */
PUSHW[ ]	/* 3 values pushed */
10 9 3 
CALL[ ]	/* CallFunction */
PUSHW[ ]	/* 1 value pushed */
20 
SRP0[ ]	/* SetRefPoint0 */
PUSHW[ ]	/* 1 value pushed */
19 
MDRP[11100]	/* MoveDirectRelPt */
PUSHW[ ]	/* 1 value pushed */
34 
MDRP[10000]	/* MoveDirectRelPt */
PUSHW[ ]	/* 1 value pushed */
5 
SRP0[ ]	/* SetRefPoint0 */
PUSHW[ ]	/* 1 value pushed */
39 
MDRP[11100]	/* MoveDirectRelPt */
NPUSHW[ ]	/* 5 values pushed */
217 39 233 39 2 
DELTAP1[ ]	/* DeltaExceptionP1 */
NPUSHW[ ]	/* 27 values pushed */
8 39 24 39 40 39 56 39 72 39 88 39 104 39 120 39 136 39 152 39 168 39 184 39 200 39 13 
DELTAP1[ ]	/* DeltaExceptionP1 */
IUP[0]	/* InterpolateUntPts */
IUP[1]	/* InterpolateUntPts */";
};
width = 1830;
}
);
metricLeft = o;
metricRight = "=|h";
note = d;
unicode = 100;
},
{
glyphname = eth;
kernLeft = o;
lastChange = "2021-12-16 23:18:25 +0000";
layers = (
{
layerId = "E4BC606E-CD30-42C5-8BF2-1DD2ABB89119";
shapes = (
{
closed = 1;
nodes = (
(1145,0,ls),
(1405,0,o),
(1555,140,o),
(1555,400,cs),
(1555,1700,ls),
(1555,1949,o),
(1452,2050,o),
(1145,2050,cs),
(776,2050,l),
(776,1970,l),
(855,1970,l),
(1053,1970,o),
(1145,1904,o),
(1145,1700,cs),
(1145,400,ls),
(1145,160,o),
(1097,100,o),
(858,100,cs),
(633,100,o),
(575,160,o),
(575,400,cs),
(575,990,ls),
(575,1230,o),
(640,1290,o),
(845,1290,cs),
(1285,1290,l),
(1285,1390,l),
(575,1390,ls),
(312,1390,o),
(165,1250,o),
(165,990,cs),
(165,400,ls),
(165,140,o),
(315,0,o),
(575,0,cs)
);
},
{
closed = 1;
nodes = (
(1698,1584,l),
(1698,1704,l),
(476,1704,l),
(476,1584,l)
);
}
);
width = 1740;
}
);
unicode = 240;
},
{
glyphname = dcaron;
kernLeft = o;
lastChange = "2021-12-16 23:18:25 +0000";
layers = (
{
layerId = "E4BC606E-CD30-42C5-8BF2-1DD2ABB89119";
shapes = (
{
closed = 1;
nodes = (
(1755,0,l),
(1755,80,l),
(1561,80,o),
(1555,112,o),
(1555,400,cs),
(1555,1650,l),
(1555,1949,o),
(1438,2050,o),
(1088,2050,cs),
(918,2050,l),
(918,1970,l),
(1064,1970,o),
(1145,1863,o),
(1145,1650,cs),
(1145,370,ls),
(1145,100,o),
(1145,100,o),
(865,100,cs),
(633,100,o),
(575,160,o),
(575,400,cs),
(575,1100,ls),
(575,1340,o),
(640,1400,o),
(845,1400,cs),
(1285,1400,l),
(1285,1500,l),
(575,1500,ls),
(312,1500,o),
(165,1360,o),
(165,1100,cs),
(165,400,ls),
(165,140,o),
(315,0,o),
(575,0,cs)
);
},
{
closed = 1;
nodes = (
(1914,1301,o),
(2108,1564,o),
(2108,1790,cs),
(2108,1948,o),
(2013,2060,o),
(1858,2060,cs),
(1738,2060,o),
(1622,1992,o),
(1622,1843,cs),
(1622,1637,o),
(1845,1675,o),
(1845,1484,cs),
(1845,1404,o),
(1806,1304,o),
(1711,1173,c),
(1776,1128,l)
);
}
);
width = 2080;
}
);
unicode = 271;
},
{
glyphname = dcroat;
kernLeft = o;
lastChange = "2021-12-16 23:18:32 +0000";
layers = (
{
layerId = "E4BC606E-CD30-42C5-8BF2-1DD2ABB89119";
shapes = (
{
closed = 1;
nodes = (
(1755,0,l),
(1755,80,l),
(1561,80,o),
(1555,112,o),
(1555,400,cs),
(1555,1650,ls),
(1555,1863,o),
(1635,1970,o),
(1778,1970,c),
(1778,2050,l),
(1638,2050,ls),
(1524,2050,o),
(1430,2019,o),
(1353,1947,c),
(1282,2019,o),
(1190,2050,o),
(1088,2050,cs),
(918,2050,l),
(918,1970,l),
(1064,1970,o),
(1145,1863,o),
(1145,1650,cs),
(1145,370,ls),
(1145,100,o),
(1145,100,o),
(865,100,cs),
(633,100,o),
(575,160,o),
(575,400,cs),
(575,950,ls),
(575,1190,o),
(640,1250,o),
(845,1250,cs),
(1285,1250,l),
(1285,1350,l),
(575,1350,ls),
(312,1350,o),
(165,1210,o),
(165,950,cs),
(165,400,ls),
(165,140,o),
(315,0,o),
(575,0,cs)
);
},
{
closed = 1;
nodes = (
(1768,1534,l),
(1768,1654,l),
(546,1654,l),
(546,1534,l)
);
}
);
width = 1830;
}
);
unicode = 273;
},
{
glyphname = e;
kernLeft = o;
kernRight = uni043E;
lastChange = "2021-12-16 23:18:32 +0000";
layers = (
{
anchors = (
{
name = bottom;
pos = (820,0);
},
{
name = ogonek;
pos = (1154,10);
},
{
name = top;
pos = (831,1500);
}
);
layerId = "E4BC606E-CD30-42C5-8BF2-1DD2ABB89119";
shapes = (
{
closed = 1;
nodes = (
(1004,0,ls),
(1323,0,o),
(1494,120,o),
(1494,342,cs),
(1494,466,o),
(1408,548,o),
(1278,548,cs),
(1160,548,o),
(1082,469,o),
(1082,351,cs),
(1082,224,o),
(1134,195,o),
(1134,150,cs),
(1134,94,o),
(1080,100,o),
(829,100,cs),
(637,100,o),
(575,160,o),
(575,400,cs),
(575,1100,ls),
(575,1340,o),
(651,1400,o),
(829,1400,cs),
(1006,1400,o),
(1082,1340,o),
(1082,1100,cs),
(1082,749,l),
(1492,749,l),
(1492,1100,ls),
(1492,1360,o),
(1342,1500,o),
(1082,1500,cs),
(575,1500,ls),
(315,1500,o),
(165,1360,o),
(165,1100,cs),
(165,400,ls),
(165,140,o),
(315,0,o),
(575,0,cs)
);
},
{
closed = 1;
nodes = (
(1492,749,l),
(1492,849,l),
(382,849,l),
(382,749,l)
);
}
);
userData = {
assembly = "PUSHW[ ]	/* 1 value pushed */
0 
CALL[ ]	/* CallFunction */
SVTCA[0]	/* SetFreedomAndProjectionVectorToAxis */
PUSHW[ ]	/* 1 value pushed */
0 
RCVT[ ]	/* ReadCVT */
IF[ ]	/* If */
PUSHW[ ]	/* 1 value pushed */
6 
MDAP[1]	/* MoveDirectAbsPt */
ELSE[ ]	/* Else */
PUSHW[ ]	/* 2 values pushed */
6 5 
MIAP[0]	/* MoveIndirectAbsPt */
EIF[ ]	/* EndIf */
PUSHW[ ]	/* 1 value pushed */
0 
RCVT[ ]	/* ReadCVT */
IF[ ]	/* If */
PUSHW[ ]	/* 1 value pushed */
25 
MDAP[1]	/* MoveDirectAbsPt */
ELSE[ ]	/* Else */
PUSHW[ ]	/* 2 values pushed */
25 1 
MIAP[0]	/* MoveIndirectAbsPt */
EIF[ ]	/* EndIf */
PUSHW[ ]	/* 3 values pushed */
32 13 3 
CALL[ ]	/* CallFunction */
PUSHW[ ]	/* 1 value pushed */
25 
SRP0[ ]	/* SetRefPoint0 */
PUSHW[ ]	/* 1 value pushed */
17 
MDRP[11100]	/* MoveDirectRelPt */
NPUSHW[ ]	/* 27 values pushed */
7 17 23 17 39 17 55 17 71 17 87 17 103 17 119 17 135 17 151 17 167 17 183 17 199 17 13 
DELTAP1[ ]	/* DeltaExceptionP1 */
NPUSHW[ ]	/* 5 values pushed */
214 17 230 17 2 
DELTAP1[ ]	/* DeltaExceptionP1 */
PUSHW[ ]	/* 1 value pushed */
6 
SRP0[ ]	/* SetRefPoint0 */
PUSHW[ ]	/* 1 value pushed */
35 
MDRP[11100]	/* MoveDirectRelPt */
NPUSHW[ ]	/* 5 values pushed */
217 35 233 35 2 
DELTAP1[ ]	/* DeltaExceptionP1 */
NPUSHW[ ]	/* 27 values pushed */
8 35 24 35 40 35 56 35 72 35 88 35 104 35 120 35 136 35 152 35 168 35 184 35 200 35 13 
DELTAP1[ ]	/* DeltaExceptionP1 */
IUP[0]	/* InterpolateUntPts */
IUP[1]	/* InterpolateUntPts */";
};
width = 1640;
}
);
note = e;
unicode = 101;
},
{
glyphname = eogonek;
kernLeft = o;
lastChange = "2021-12-16 23:18:32 +0000";
layers = (
{
anchors = (
{
name = bottom;
pos = (820,0);
},
{
name = ogonek;
pos = (1154,10);
},
{
name = top;
pos = (831,1500);
}
);
layerId = "E4BC606E-CD30-42C5-8BF2-1DD2ABB89119";
shapes = (
{
closed = 1;
nodes = (
(766,0,l),
(766,-258,ls),
(766,-533,o),
(916,-700,o),
(1177,-700,cs),
(1409,-700,o),
(1474,-567,o),
(1474,-444,cs),
(1474,-300,o),
(1384,-217,o),
(1254,-217,cs),
(1130,-217,o),
(1048,-296,o),
(1048,-414,cs),
(1048,-465,o),
(1034,-485,o),
(1000,-485,cs),
(915,-485,o),
(866,-394,o),
(866,-288,cs),
(866,-77,o),
(1016,-35,o),
(1169,8,cs),
(1329,53,o),
(1494,98,o),
(1494,342,cs),
(1494,466,o),
(1408,548,o),
(1278,548,cs),
(1160,548,o),
(1082,469,o),
(1082,351,cs),
(1082,224,o),
(1134,195,o),
(1134,150,cs),
(1134,94,o),
(1080,100,o),
(829,100,cs),
(637,100,o),
(575,160,o),
(575,400,cs),
(575,749,l),
(1492,749,l),
(1492,1100,ls),
(1492,1360,o),
(1342,1500,o),
(1082,1500,cs),
(575,1500,ls),
(315,1500,o),
(165,1360,o),
(165,1100,cs),
(165,400,ls),
(165,140,o),
(315,0,o),
(575,0,cs)
);
},
{
closed = 1;
nodes = (
(575,1100,ls),
(575,1340,o),
(651,1400,o),
(829,1400,cs),
(1006,1400,o),
(1082,1340,o),
(1082,1100,cs),
(1082,849,l),
(575,849,l)
);
}
);
width = 1640;
}
);
unicode = 281;
},
{
glyphname = f;
kernLeft = uni0432;
kernRight = f;
lastChange = "2021-12-16 23:15:56 +0000";
layers = (
{
anchors = (
{
name = bottom;
pos = (947,0);
}
);
associatedMasterId = "E4BC606E-CD30-42C5-8BF2-1DD2ABB89119";
layerId = "FE89C0ED-E1C4-41EF-9122-DF6D56C788BD";
name = "12 Dec 21, 18:46";
shapes = (
{
closed = 1;
nodes = (
(679,900,ls),
(679,1180,o),
(704,1220,o),
(874,1220,c),
(874,1300,l),
(84,1300,l),
(84,1220,l),
(254,1220,o),
(279,1180,o),
(279,900,cs),
(279,-300,ls),
(279,-513,o),
(198,-620,o),
(52,-620,c),
(52,-700,l),
(222,-700,ls),
(326,-700,o),
(410,-669,o),
(482,-597,c),
(558,-669,o),
(650,-700,o),
(762,-700,cs),
(902,-700,l),
(902,-620,l),
(759,-620,o),
(679,-513,o),
(679,-300,cs)
);
},
{
closed = 1;
nodes = (
(679,1800,ls),
(679,2040,o),
(729,2100,o),
(833,2100,cs),
(891,2100,o),
(918,2084,o),
(918,2050,cs),
(918,2005,o),
(876,1976,o),
(876,1849,cs),
(876,1743,o),
(958,1672,o),
(1082,1672,cs),
(1206,1672,o),
(1288,1762,o),
(1288,1898,cs),
(1288,2094,o),
(1116,2200,o),
(798,2200,cs),
(442,2200,o),
(279,2060,o),
(279,1800,cs),
(279,1100,l),
(679,1100,l)
);
}
);
userData = {
assembly = "PUSHW[ ]	/* 1 value pushed */
0 
CALL[ ]	/* CallFunction */
SVTCA[0]	/* SetFreedomAndProjectionVectorToAxis */
PUSHW[ ]	/* 1 value pushed */
0 
RCVT[ ]	/* ReadCVT */
IF[ ]	/* If */
PUSHW[ ]	/* 1 value pushed */
27 
MDAP[1]	/* MoveDirectAbsPt */
ELSE[ ]	/* Else */
PUSHW[ ]	/* 2 values pushed */
27 1 
MIAP[0]	/* MoveIndirectAbsPt */
EIF[ ]	/* EndIf */
PUSHW[ ]	/* 1 value pushed */
0 
RCVT[ ]	/* ReadCVT */
IF[ ]	/* If */
PUSHW[ ]	/* 1 value pushed */
34 
MDAP[1]	/* MoveDirectAbsPt */
ELSE[ ]	/* Else */
PUSHW[ ]	/* 2 values pushed */
34 1 
MIAP[0]	/* MoveIndirectAbsPt */
EIF[ ]	/* EndIf */
PUSHW[ ]	/* 3 values pushed */
8 17 3 
CALL[ ]	/* CallFunction */
PUSHW[ ]	/* 3 values pushed */
1 0 3 
CALL[ ]	/* CallFunction */
PUSHW[ ]	/* 1 value pushed */
1 
SRP0[ ]	/* SetRefPoint0 */
PUSHW[ ]	/* 1 value pushed */
20 
MDRP[10000]	/* MoveDirectRelPt */
PUSHW[ ]	/* 1 value pushed */
0 
SRP0[ ]	/* SetRefPoint0 */
PUSHW[ ]	/* 1 value pushed */
22 
MDRP[10000]	/* MoveDirectRelPt */
PUSHW[ ]	/* 1 value pushed */
27 
SRP0[ ]	/* SetRefPoint0 */
PUSHW[ ]	/* 1 value pushed */
26 
MDRP[11100]	/* MoveDirectRelPt */
PUSHW[ ]	/* 1 value pushed */
36 
MDRP[10000]	/* MoveDirectRelPt */
IUP[0]	/* InterpolateUntPts */
IUP[1]	/* InterpolateUntPts */";
};
width = 954;
},
{
anchors = (
{
name = bottom;
pos = (947,0);
}
);
associatedMasterId = "E4BC606E-CD30-42C5-8BF2-1DD2ABB89119";
background = {
shapes = (
{
closed = 1;
nodes = (
(679,900,ls),
(679,1180,o),
(704,1220,o),
(874,1220,c),
(874,1300,l),
(84,1300,l),
(84,1220,l),
(254,1220,o),
(279,1180,o),
(279,900,cs),
(279,-300,ls),
(279,-513,o),
(198,-620,o),
(52,-620,c),
(52,-700,l),
(222,-700,ls),
(326,-700,o),
(410,-669,o),
(482,-597,c),
(558,-669,o),
(650,-700,o),
(762,-700,cs),
(902,-700,l),
(902,-620,l),
(759,-620,o),
(679,-513,o),
(679,-300,cs)
);
},
{
closed = 1;
nodes = (
(679,1800,ls),
(679,2040,o),
(729,2100,o),
(833,2100,cs),
(891,2100,o),
(918,2084,o),
(918,2050,cs),
(918,2005,o),
(876,1976,o),
(876,1849,cs),
(876,1743,o),
(958,1672,o),
(1082,1672,cs),
(1206,1672,o),
(1288,1762,o),
(1288,1898,cs),
(1288,2094,o),
(1116,2200,o),
(798,2200,cs),
(442,2200,o),
(279,2060,o),
(279,1800,cs),
(279,1100,l),
(679,1100,l)
);
}
);
};
layerId = "805CAA9D-CC7E-4B10-80CD-D134FF558EDD";
name = "12 Dec 21, 18:57";
shapes = (
{
closed = 1;
nodes = (
(874,0,l),
(874,80,l),
(704,80,o),
(679,120,o),
(679,400,cs),
(679,1100,ls),
(679,1380,o),
(713,1420,o),
(944,1420,c),
(944,1500,l),
(84,1500,l),
(84,1420,l),
(254,1420,o),
(279,1380,o),
(279,1100,cs),
(279,400,ls),
(279,120,o),
(254,80,o),
(84,80,c),
(84,0,l)
);
},
{
closed = 1;
nodes = (
(679,1300,l),
(749,1500,l),
(515,1504,o),
(379,1599,o),
(379,1788,cs),
(379,1894,o),
(428,1985,o),
(513,1985,cs),
(547,1985,o),
(561,1965,o),
(561,1914,cs),
(561,1796,o),
(643,1717,o),
(767,1717,cs),
(897,1717,o),
(987,1800,o),
(987,1944,cs),
(987,2067,o),
(922,2200,o),
(690,2200,cs),
(429,2200,o),
(279,2033,o),
(279,1758,cs),
(279,1300,l)
);
}
);
userData = {
assembly = "PUSHW[ ]	/* 1 value pushed */
0 
CALL[ ]	/* CallFunction */
SVTCA[0]	/* SetFreedomAndProjectionVectorToAxis */
PUSHW[ ]	/* 1 value pushed */
0 
RCVT[ ]	/* ReadCVT */
IF[ ]	/* If */
PUSHW[ ]	/* 1 value pushed */
27 
MDAP[1]	/* MoveDirectAbsPt */
ELSE[ ]	/* Else */
PUSHW[ ]	/* 2 values pushed */
27 1 
MIAP[0]	/* MoveIndirectAbsPt */
EIF[ ]	/* EndIf */
PUSHW[ ]	/* 1 value pushed */
0 
RCVT[ ]	/* ReadCVT */
IF[ ]	/* If */
PUSHW[ ]	/* 1 value pushed */
34 
MDAP[1]	/* MoveDirectAbsPt */
ELSE[ ]	/* Else */
PUSHW[ ]	/* 2 values pushed */
34 1 
MIAP[0]	/* MoveIndirectAbsPt */
EIF[ ]	/* EndIf */
PUSHW[ ]	/* 3 values pushed */
8 17 3 
CALL[ ]	/* CallFunction */
PUSHW[ ]	/* 3 values pushed */
1 0 3 
CALL[ ]	/* CallFunction */
PUSHW[ ]	/* 1 value pushed */
1 
SRP0[ ]	/* SetRefPoint0 */
PUSHW[ ]	/* 1 value pushed */
20 
MDRP[10000]	/* MoveDirectRelPt */
PUSHW[ ]	/* 1 value pushed */
0 
SRP0[ ]	/* SetRefPoint0 */
PUSHW[ ]	/* 1 value pushed */
22 
MDRP[10000]	/* MoveDirectRelPt */
PUSHW[ ]	/* 1 value pushed */
27 
SRP0[ ]	/* SetRefPoint0 */
PUSHW[ ]	/* 1 value pushed */
26 
MDRP[11100]	/* MoveDirectRelPt */
PUSHW[ ]	/* 1 value pushed */
36 
MDRP[10000]	/* MoveDirectRelPt */
IUP[0]	/* InterpolateUntPts */
IUP[1]	/* InterpolateUntPts */";
};
width = 994;
},
{
anchors = (
{
name = bottom;
pos = (947,0);
}
);
background = {
shapes = (
{
closed = 1;
nodes = (
(679,900,ls),
(679,1180,o),
(704,1220,o),
(874,1220,c),
(874,1300,l),
(84,1300,l),
(84,1220,l),
(254,1220,o),
(279,1180,o),
(279,900,cs),
(279,-300,ls),
(279,-513,o),
(198,-620,o),
(52,-620,c),
(52,-700,l),
(222,-700,ls),
(326,-700,o),
(410,-669,o),
(482,-597,c),
(558,-669,o),
(650,-700,o),
(762,-700,cs),
(902,-700,l),
(902,-620,l),
(759,-620,o),
(679,-513,o),
(679,-300,cs)
);
},
{
closed = 1;
nodes = (
(679,1800,ls),
(679,2040,o),
(729,2100,o),
(833,2100,cs),
(891,2100,o),
(918,2084,o),
(918,2050,cs),
(918,2005,o),
(876,1976,o),
(876,1849,cs),
(876,1743,o),
(958,1672,o),
(1082,1672,cs),
(1206,1672,o),
(1288,1762,o),
(1288,1898,cs),
(1288,2094,o),
(1116,2200,o),
(798,2200,cs),
(442,2200,o),
(279,2060,o),
(279,1800,cs),
(279,1100,l),
(679,1100,l)
);
}
);
};
layerId = "E4BC606E-CD30-42C5-8BF2-1DD2ABB89119";
name = Regular;
shapes = (
{
closed = 1;
nodes = (
(679,1100,ls),
(679,1380,o),
(713,1420,o),
(944,1420,c),
(944,1500,l),
(84,1500,l),
(84,1420,l),
(254,1420,o),
(279,1380,o),
(279,1100,cs),
(279,-300,ls),
(279,-513,o),
(198,-620,o),
(52,-620,c),
(52,-700,l),
(222,-700,ls),
(326,-700,o),
(410,-669,o),
(482,-597,c),
(558,-669,o),
(650,-700,o),
(762,-700,cs),
(902,-700,l),
(902,-620,l),
(759,-620,o),
(679,-513,o),
(679,-300,cs)
);
},
{
closed = 1;
nodes = (
(515,1504,o),
(379,1599,o),
(379,1788,cs),
(379,1894,o),
(428,1985,o),
(513,1985,cs),
(547,1985,o),
(561,1965,o),
(561,1914,cs),
(561,1796,o),
(643,1717,o),
(767,1717,cs),
(897,1717,o),
(987,1800,o),
(987,1944,cs),
(987,2067,o),
(922,2200,o),
(690,2200,cs),
(429,2200,o),
(279,2033,o),
(279,1758,cs),
(279,1300,l),
(679,1300,l),
(749,1500,l)
);
}
);
userData = {
assembly = "PUSHW[ ]	/* 1 value pushed */
0 
CALL[ ]	/* CallFunction */
SVTCA[0]	/* SetFreedomAndProjectionVectorToAxis */
PUSHW[ ]	/* 1 value pushed */
0 
RCVT[ ]	/* ReadCVT */
IF[ ]	/* If */
PUSHW[ ]	/* 1 value pushed */
27 
MDAP[1]	/* MoveDirectAbsPt */
ELSE[ ]	/* Else */
PUSHW[ ]	/* 2 values pushed */
27 1 
MIAP[0]	/* MoveIndirectAbsPt */
EIF[ ]	/* EndIf */
PUSHW[ ]	/* 1 value pushed */
0 
RCVT[ ]	/* ReadCVT */
IF[ ]	/* If */
PUSHW[ ]	/* 1 value pushed */
34 
MDAP[1]	/* MoveDirectAbsPt */
ELSE[ ]	/* Else */
PUSHW[ ]	/* 2 values pushed */
34 1 
MIAP[0]	/* MoveIndirectAbsPt */
EIF[ ]	/* EndIf */
PUSHW[ ]	/* 3 values pushed */
8 17 3 
CALL[ ]	/* CallFunction */
PUSHW[ ]	/* 3 values pushed */
1 0 3 
CALL[ ]	/* CallFunction */
PUSHW[ ]	/* 1 value pushed */
1 
SRP0[ ]	/* SetRefPoint0 */
PUSHW[ ]	/* 1 value pushed */
20 
MDRP[10000]	/* MoveDirectRelPt */
PUSHW[ ]	/* 1 value pushed */
0 
SRP0[ ]	/* SetRefPoint0 */
PUSHW[ ]	/* 1 value pushed */
22 
MDRP[10000]	/* MoveDirectRelPt */
PUSHW[ ]	/* 1 value pushed */
27 
SRP0[ ]	/* SetRefPoint0 */
PUSHW[ ]	/* 1 value pushed */
26 
MDRP[11100]	/* MoveDirectRelPt */
PUSHW[ ]	/* 1 value pushed */
36 
MDRP[10000]	/* MoveDirectRelPt */
IUP[0]	/* InterpolateUntPts */
IUP[1]	/* InterpolateUntPts */";
};
width = 984;
}
);
note = f;
unicode = 102;
},
{
glyphname = g;
kernLeft = g;
kernRight = uni0443;
lastChange = "2021-12-16 23:22:13 +0000";
layers = (
{
anchors = (
{
name = bottom;
pos = (865,-700);
},
{
name = top;
pos = (865,1500);
}
);
layerId = "E4BC606E-CD30-42C5-8BF2-1DD2ABB89119";
shapes = (
{
closed = 1;
nodes = (
(1135,-700,ls),
(1407,-700,o),
(1565,-536,o),
(1565,-230,cs),
(1565,1130,ls),
(1565,1371,o),
(1415,1500,o),
(1155,1500,cs),
(575,1500,ls),
(315,1500,o),
(165,1360,o),
(165,1100,cs),
(165,400,ls),
(165,140,o),
(312,0,o),
(575,0,cs),
(1295,0,l),
(1295,100,l),
(845,100,ls),
(640,100,o),
(575,160,o),
(575,400,cs),
(575,1100,ls),
(575,1340,o),
(633,1400,o),
(865,1400,cs),
(1103,1400,o),
(1155,1356,o),
(1155,1130,cs),
(1155,-230,ls),
(1155,-526,o),
(1091,-600,o),
(881,-600,cs),
(677,-600,o),
(626,-606,o),
(626,-550,cs),
(626,-516,o),
(678,-494,o),
(678,-399,cs),
(678,-269,o),
(588,-182,o),
(452,-182,cs),
(322,-182,o),
(232,-272,o),
(232,-408,cs),
(232,-598,o),
(328,-700,o),
(726,-700,cs)
);
}
);
userData = {
assembly = "PUSHW[ ]	/* 1 value pushed */
0 
CALL[ ]	/* CallFunction */
SVTCA[0]	/* SetFreedomAndProjectionVectorToAxis */
PUSHW[ ]	/* 1 value pushed */
0 
RCVT[ ]	/* ReadCVT */
IF[ ]	/* If */
PUSHW[ ]	/* 1 value pushed */
6 
MDAP[1]	/* MoveDirectAbsPt */
ELSE[ ]	/* Else */
PUSHW[ ]	/* 2 values pushed */
6 5 
MIAP[0]	/* MoveIndirectAbsPt */
EIF[ ]	/* EndIf */
PUSHW[ ]	/* 1 value pushed */
0 
RCVT[ ]	/* ReadCVT */
IF[ ]	/* If */
PUSHW[ ]	/* 1 value pushed */
13 
MDAP[1]	/* MoveDirectAbsPt */
ELSE[ ]	/* Else */
PUSHW[ ]	/* 2 values pushed */
13 5 
MIAP[0]	/* MoveIndirectAbsPt */
EIF[ ]	/* EndIf */
PUSHW[ ]	/* 1 value pushed */
0 
RCVT[ ]	/* ReadCVT */
IF[ ]	/* If */
PUSHW[ ]	/* 1 value pushed */
23 
MDAP[1]	/* MoveDirectAbsPt */
ELSE[ ]	/* Else */
PUSHW[ ]	/* 2 values pushed */
23 3 
MIAP[0]	/* MoveIndirectAbsPt */
EIF[ ]	/* EndIf */
PUSHW[ ]	/* 1 value pushed */
0 
RCVT[ ]	/* ReadCVT */
IF[ ]	/* If */
PUSHW[ ]	/* 1 value pushed */
35 
MDAP[1]	/* MoveDirectAbsPt */
ELSE[ ]	/* Else */
PUSHW[ ]	/* 2 values pushed */
35 1 
MIAP[0]	/* MoveIndirectAbsPt */
EIF[ ]	/* EndIf */
PUSHW[ ]	/* 1 value pushed */
13 
SRP0[ ]	/* SetRefPoint0 */
PUSHW[ ]	/* 1 value pushed */
15 
MDRP[11100]	/* MoveDirectRelPt */
PUSHW[ ]	/* 1 value pushed */
23 
SRP0[ ]	/* SetRefPoint0 */
PUSHW[ ]	/* 1 value pushed */
32 
MDRP[11100]	/* MoveDirectRelPt */
NPUSHW[ ]	/* 27 values pushed */
7 32 23 32 39 32 55 32 71 32 87 32 103 32 119 32 135 32 151 32 167 32 183 32 199 32 13 
DELTAP1[ ]	/* DeltaExceptionP1 */
NPUSHW[ ]	/* 5 values pushed */
214 32 230 32 2 
DELTAP1[ ]	/* DeltaExceptionP1 */
PUSHW[ ]	/* 1 value pushed */
35 
SRP0[ ]	/* SetRefPoint0 */
PUSHW[ ]	/* 1 value pushed */
41 
MDRP[11100]	/* MoveDirectRelPt */
NPUSHW[ ]	/* 27 values pushed */
7 41 23 41 39 41 55 41 71 41 87 41 103 41 119 41 135 41 151 41 167 41 183 41 199 41 13 
DELTAP1[ ]	/* DeltaExceptionP1 */
NPUSHW[ ]	/* 5 values pushed */
214 41 230 41 2 
DELTAP1[ ]	/* DeltaExceptionP1 */
PUSHW[ ]	/* 1 value pushed */
15 
SRP0[ ]	/* SetRefPoint0 */
PUSHW[ ]	/* 1 value pushed */
46 
MDRP[10000]	/* MoveDirectRelPt */
IUP[0]	/* InterpolateUntPts */
IUP[1]	/* InterpolateUntPts */";
};
width = 1730;
},
{
anchors = (
{
name = bottom;
pos = (865,-700);
},
{
name = top;
pos = (865,1500);
}
);
associatedMasterId = "E4BC606E-CD30-42C5-8BF2-1DD2ABB89119";
layerId = "21E13407-5C7C-4BEC-A85E-67F962567322";
name = "17 Dec 21, 00:06";
shapes = (
{
closed = 1;
nodes = (
(1135,-700,ls),
(1407,-700,o),
(1565,-536,o),
(1565,-230,cs),
(1565,1130,ls),
(1565,1371,o),
(1415,1500,o),
(1155,1500,cs),
(575,1500,ls),
(315,1500,o),
(165,1360,o),
(165,1100,cs),
(165,400,ls),
(165,140,o),
(312,0,o),
(575,0,cs),
(1295,0,l),
(1295,100,l),
(845,100,ls),
(640,100,o),
(575,160,o),
(575,400,cs),
(575,1100,ls),
(575,1340,o),
(633,1400,o),
(865,1400,cs),
(1103,1400,o),
(1155,1356,o),
(1155,1130,cs),
(1155,-230,ls),
(1155,-526,o),
(1091,-600,o),
(881,-600,cs),
(677,-600,o),
(626,-606,o),
(626,-550,cs),
(626,-516,o),
(678,-494,o),
(678,-399,cs),
(678,-269,o),
(588,-182,o),
(452,-182,cs),
(322,-182,o),
(232,-272,o),
(232,-408,cs),
(232,-598,o),
(328,-700,o),
(726,-700,cs)
);
}
);
userData = {
assembly = "PUSHW[ ]	/* 1 value pushed */
0 
CALL[ ]	/* CallFunction */
SVTCA[0]	/* SetFreedomAndProjectionVectorToAxis */
PUSHW[ ]	/* 1 value pushed */
0 
RCVT[ ]	/* ReadCVT */
IF[ ]	/* If */
PUSHW[ ]	/* 1 value pushed */
6 
MDAP[1]	/* MoveDirectAbsPt */
ELSE[ ]	/* Else */
PUSHW[ ]	/* 2 values pushed */
6 5 
MIAP[0]	/* MoveIndirectAbsPt */
EIF[ ]	/* EndIf */
PUSHW[ ]	/* 1 value pushed */
0 
RCVT[ ]	/* ReadCVT */
IF[ ]	/* If */
PUSHW[ ]	/* 1 value pushed */
13 
MDAP[1]	/* MoveDirectAbsPt */
ELSE[ ]	/* Else */
PUSHW[ ]	/* 2 values pushed */
13 5 
MIAP[0]	/* MoveIndirectAbsPt */
EIF[ ]	/* EndIf */
PUSHW[ ]	/* 1 value pushed */
0 
RCVT[ ]	/* ReadCVT */
IF[ ]	/* If */
PUSHW[ ]	/* 1 value pushed */
23 
MDAP[1]	/* MoveDirectAbsPt */
ELSE[ ]	/* Else */
PUSHW[ ]	/* 2 values pushed */
23 3 
MIAP[0]	/* MoveIndirectAbsPt */
EIF[ ]	/* EndIf */
PUSHW[ ]	/* 1 value pushed */
0 
RCVT[ ]	/* ReadCVT */
IF[ ]	/* If */
PUSHW[ ]	/* 1 value pushed */
35 
MDAP[1]	/* MoveDirectAbsPt */
ELSE[ ]	/* Else */
PUSHW[ ]	/* 2 values pushed */
35 1 
MIAP[0]	/* MoveIndirectAbsPt */
EIF[ ]	/* EndIf */
PUSHW[ ]	/* 1 value pushed */
13 
SRP0[ ]	/* SetRefPoint0 */
PUSHW[ ]	/* 1 value pushed */
15 
MDRP[11100]	/* MoveDirectRelPt */
PUSHW[ ]	/* 1 value pushed */
23 
SRP0[ ]	/* SetRefPoint0 */
PUSHW[ ]	/* 1 value pushed */
32 
MDRP[11100]	/* MoveDirectRelPt */
NPUSHW[ ]	/* 27 values pushed */
7 32 23 32 39 32 55 32 71 32 87 32 103 32 119 32 135 32 151 32 167 32 183 32 199 32 13 
DELTAP1[ ]	/* DeltaExceptionP1 */
NPUSHW[ ]	/* 5 values pushed */
214 32 230 32 2 
DELTAP1[ ]	/* DeltaExceptionP1 */
PUSHW[ ]	/* 1 value pushed */
35 
SRP0[ ]	/* SetRefPoint0 */
PUSHW[ ]	/* 1 value pushed */
41 
MDRP[11100]	/* MoveDirectRelPt */
NPUSHW[ ]	/* 27 values pushed */
7 41 23 41 39 41 55 41 71 41 87 41 103 41 119 41 135 41 151 41 167 41 183 41 199 41 13 
DELTAP1[ ]	/* DeltaExceptionP1 */
NPUSHW[ ]	/* 5 values pushed */
214 41 230 41 2 
DELTAP1[ ]	/* DeltaExceptionP1 */
PUSHW[ ]	/* 1 value pushed */
15 
SRP0[ ]	/* SetRefPoint0 */
PUSHW[ ]	/* 1 value pushed */
46 
MDRP[10000]	/* MoveDirectRelPt */
IUP[0]	/* InterpolateUntPts */
IUP[1]	/* InterpolateUntPts */";
};
width = 1730;
},
{
anchors = (
{
name = bottom;
pos = (865,-700);
},
{
name = top;
pos = (865,1500);
}
);
associatedMasterId = "E4BC606E-CD30-42C5-8BF2-1DD2ABB89119";
layerId = "884D1CA3-B795-433F-9BCF-1F540DC64DB3";
name = "17 Dec 21, 00:10";
shapes = (
{
closed = 1;
nodes = (
(1171,729,ls),
(1442,729,o),
(1565,829,o),
(1565,1050,cs),
(1565,1200,l),
(1565,1398,o),
(1571,1420,o),
(1765,1420,c),
(1765,1500,l),
(595,1500,ls),
(376,1500,o),
(238,1396,o),
(238,1202,cs),
(238,1050,ls),
(238,829,o),
(361,729,o),
(632,729,cs)
);
},
{
closed = 1;
nodes = (
(1135,-700,ls),
(1407,-700,o),
(1565,-536,o),
(1565,-230,cs),
(1565,100,l),
(1155,100,l),
(1155,-230,ls),
(1155,-526,o),
(1091,-600,o),
(881,-600,cs),
(677,-600,o),
(626,-606,o),
(626,-550,cs),
(626,-516,o),
(678,-494,o),
(678,-399,cs),
(678,-269,o),
(588,-182,o),
(452,-182,cs),
(322,-182,o),
(232,-272,o),
(232,-408,cs),
(232,-598,o),
(328,-700,o),
(726,-700,cs)
);
},
{
closed = 1;
nodes = (
(1295,0,l),
(1295,100,l),
(845,100,ls),
(616,100,o),
(647,160,o),
(647,400,cs),
(647,1067,l),
(237,1067,l),
(237,400,ls),
(237,140,o),
(295,0,o),
(575,0,cs)
);
},
{
closed = 1;
nodes = (
(679,829,o),
(648,858,o),
(648,1060,cs),
(648,1175,ls),
(648,1354,o),
(702,1400,o),
(885,1400,cs),
(1165,1400,o),
(1155,1399,o),
(1155,1200,cs),
(1155,1060,ls),
(1155,858,o),
(1122,829,o),
(895,829,cs)
);
}
);
userData = {
assembly = "PUSHW[ ]	/* 1 value pushed */
0 
CALL[ ]	/* CallFunction */
SVTCA[0]	/* SetFreedomAndProjectionVectorToAxis */
PUSHW[ ]	/* 1 value pushed */
0 
RCVT[ ]	/* ReadCVT */
IF[ ]	/* If */
PUSHW[ ]	/* 1 value pushed */
6 
MDAP[1]	/* MoveDirectAbsPt */
ELSE[ ]	/* Else */
PUSHW[ ]	/* 2 values pushed */
6 5 
MIAP[0]	/* MoveIndirectAbsPt */
EIF[ ]	/* EndIf */
PUSHW[ ]	/* 1 value pushed */
0 
RCVT[ ]	/* ReadCVT */
IF[ ]	/* If */
PUSHW[ ]	/* 1 value pushed */
13 
MDAP[1]	/* MoveDirectAbsPt */
ELSE[ ]	/* Else */
PUSHW[ ]	/* 2 values pushed */
13 5 
MIAP[0]	/* MoveIndirectAbsPt */
EIF[ ]	/* EndIf */
PUSHW[ ]	/* 1 value pushed */
0 
RCVT[ ]	/* ReadCVT */
IF[ ]	/* If */
PUSHW[ ]	/* 1 value pushed */
23 
MDAP[1]	/* MoveDirectAbsPt */
ELSE[ ]	/* Else */
PUSHW[ ]	/* 2 values pushed */
23 3 
MIAP[0]	/* MoveIndirectAbsPt */
EIF[ ]	/* EndIf */
PUSHW[ ]	/* 1 value pushed */
0 
RCVT[ ]	/* ReadCVT */
IF[ ]	/* If */
PUSHW[ ]	/* 1 value pushed */
35 
MDAP[1]	/* MoveDirectAbsPt */
ELSE[ ]	/* Else */
PUSHW[ ]	/* 2 values pushed */
35 1 
MIAP[0]	/* MoveIndirectAbsPt */
EIF[ ]	/* EndIf */
PUSHW[ ]	/* 1 value pushed */
13 
SRP0[ ]	/* SetRefPoint0 */
PUSHW[ ]	/* 1 value pushed */
15 
MDRP[11100]	/* MoveDirectRelPt */
PUSHW[ ]	/* 1 value pushed */
23 
SRP0[ ]	/* SetRefPoint0 */
PUSHW[ ]	/* 1 value pushed */
32 
MDRP[11100]	/* MoveDirectRelPt */
NPUSHW[ ]	/* 27 values pushed */
7 32 23 32 39 32 55 32 71 32 87 32 103 32 119 32 135 32 151 32 167 32 183 32 199 32 13 
DELTAP1[ ]	/* DeltaExceptionP1 */
NPUSHW[ ]	/* 5 values pushed */
214 32 230 32 2 
DELTAP1[ ]	/* DeltaExceptionP1 */
PUSHW[ ]	/* 1 value pushed */
35 
SRP0[ ]	/* SetRefPoint0 */
PUSHW[ ]	/* 1 value pushed */
41 
MDRP[11100]	/* MoveDirectRelPt */
NPUSHW[ ]	/* 27 values pushed */
7 41 23 41 39 41 55 41 71 41 87 41 103 41 119 41 135 41 151 41 167 41 183 41 199 41 13 
DELTAP1[ ]	/* DeltaExceptionP1 */
NPUSHW[ ]	/* 5 values pushed */
214 41 230 41 2 
DELTAP1[ ]	/* DeltaExceptionP1 */
PUSHW[ ]	/* 1 value pushed */
15 
SRP0[ ]	/* SetRefPoint0 */
PUSHW[ ]	/* 1 value pushed */
46 
MDRP[10000]	/* MoveDirectRelPt */
IUP[0]	/* InterpolateUntPts */
IUP[1]	/* InterpolateUntPts */";
};
width = 1730;
},
{
anchors = (
{
name = bottom;
pos = (818,-700);
},
{
name = top;
pos = (818,1500);
}
);
associatedMasterId = "E4BC606E-CD30-42C5-8BF2-1DD2ABB89119";
layerId = "72A13300-1E3A-4145-9314-EB8922CBD7D9";
name = "17 Dec 21, 00:13";
shapes = (
{
closed = 1;
nodes = (
(1088,-700,ls),
(1360,-700,o),
(1518,-536,o),
(1518,-230,cs),
(1518,100,l),
(798,100,ls),
(569,100,o),
(600,160,o),
(600,400,cs),
(600,459,l),
(1124,459,ls),
(1395,459,o),
(1518,559,o),
(1518,780,cs),
(1518,1200,ls),
(1518,1398,o),
(1524,1420,o),
(1718,1420,c),
(1718,1500,l),
(548,1500,ls),
(329,1500,o),
(191,1396,o),
(191,1202,cs),
(191,400,ls),
(191,140,o),
(248,0,o),
(528,0,cs),
(1108,0,l),
(1108,-230,ls),
(1108,-526,o),
(1044,-600,o),
(834,-600,cs),
(630,-600,o),
(579,-606,o),
(579,-550,cs),
(579,-516,o),
(631,-494,o),
(631,-399,cs),
(631,-269,o),
(541,-182,o),
(405,-182,cs),
(275,-182,o),
(185,-272,o),
(185,-408,cs),
(185,-598,o),
(281,-700,o),
(679,-700,cs)
);
},
{
closed = 1;
nodes = (
(600,1175,ls),
(600,1354,o),
(655,1400,o),
(838,1400,cs),
(1118,1400,o),
(1108,1399,o),
(1108,1200,cs),
(1108,790,ls),
(1108,588,o),
(1075,559,o),
(848,559,cs),
(600,559,l)
);
}
);
userData = {
assembly = "PUSHW[ ]	/* 1 value pushed */
0 
CALL[ ]	/* CallFunction */
SVTCA[0]	/* SetFreedomAndProjectionVectorToAxis */
PUSHW[ ]	/* 1 value pushed */
0 
RCVT[ ]	/* ReadCVT */
IF[ ]	/* If */
PUSHW[ ]	/* 1 value pushed */
6 
MDAP[1]	/* MoveDirectAbsPt */
ELSE[ ]	/* Else */
PUSHW[ ]	/* 2 values pushed */
6 5 
MIAP[0]	/* MoveIndirectAbsPt */
EIF[ ]	/* EndIf */
PUSHW[ ]	/* 1 value pushed */
0 
RCVT[ ]	/* ReadCVT */
IF[ ]	/* If */
PUSHW[ ]	/* 1 value pushed */
13 
MDAP[1]	/* MoveDirectAbsPt */
ELSE[ ]	/* Else */
PUSHW[ ]	/* 2 values pushed */
13 5 
MIAP[0]	/* MoveIndirectAbsPt */
EIF[ ]	/* EndIf */
PUSHW[ ]	/* 1 value pushed */
0 
RCVT[ ]	/* ReadCVT */
IF[ ]	/* If */
PUSHW[ ]	/* 1 value pushed */
23 
MDAP[1]	/* MoveDirectAbsPt */
ELSE[ ]	/* Else */
PUSHW[ ]	/* 2 values pushed */
23 3 
MIAP[0]	/* MoveIndirectAbsPt */
EIF[ ]	/* EndIf */
PUSHW[ ]	/* 1 value pushed */
0 
RCVT[ ]	/* ReadCVT */
IF[ ]	/* If */
PUSHW[ ]	/* 1 value pushed */
35 
MDAP[1]	/* MoveDirectAbsPt */
ELSE[ ]	/* Else */
PUSHW[ ]	/* 2 values pushed */
35 1 
MIAP[0]	/* MoveIndirectAbsPt */
EIF[ ]	/* EndIf */
PUSHW[ ]	/* 1 value pushed */
13 
SRP0[ ]	/* SetRefPoint0 */
PUSHW[ ]	/* 1 value pushed */
15 
MDRP[11100]	/* MoveDirectRelPt */
PUSHW[ ]	/* 1 value pushed */
23 
SRP0[ ]	/* SetRefPoint0 */
PUSHW[ ]	/* 1 value pushed */
32 
MDRP[11100]	/* MoveDirectRelPt */
NPUSHW[ ]	/* 27 values pushed */
7 32 23 32 39 32 55 32 71 32 87 32 103 32 119 32 135 32 151 32 167 32 183 32 199 32 13 
DELTAP1[ ]	/* DeltaExceptionP1 */
NPUSHW[ ]	/* 5 values pushed */
214 32 230 32 2 
DELTAP1[ ]	/* DeltaExceptionP1 */
PUSHW[ ]	/* 1 value pushed */
35 
SRP0[ ]	/* SetRefPoint0 */
PUSHW[ ]	/* 1 value pushed */
41 
MDRP[11100]	/* MoveDirectRelPt */
NPUSHW[ ]	/* 27 values pushed */
7 41 23 41 39 41 55 41 71 41 87 41 103 41 119 41 135 41 151 41 167 41 183 41 199 41 13 
DELTAP1[ ]	/* DeltaExceptionP1 */
NPUSHW[ ]	/* 5 values pushed */
214 41 230 41 2 
DELTAP1[ ]	/* DeltaExceptionP1 */
PUSHW[ ]	/* 1 value pushed */
15 
SRP0[ ]	/* SetRefPoint0 */
PUSHW[ ]	/* 1 value pushed */
46 
MDRP[10000]	/* MoveDirectRelPt */
IUP[0]	/* InterpolateUntPts */
IUP[1]	/* InterpolateUntPts */";
};
width = 1743;
}
);
note = g;
unicode = 103;
},
{
glyphname = g.ss02;
kernLeft = g;
kernRight = uni0443;
lastChange = "2021-12-16 23:21:43 +0000";
layers = (
{
anchors = (
{
name = bottom;
pos = (818,-700);
},
{
name = top;
pos = (818,1500);
}
);
layerId = "E4BC606E-CD30-42C5-8BF2-1DD2ABB89119";
shapes = (
{
closed = 1;
nodes = (
(1088,-700,ls),
(1360,-700,o),
(1518,-564,o),
(1518,-310,cs),
(1518,-171,ls),
(1518,49,o),
(1466,100,o),
(1240,100,cs),
(798,100,ls),
(569,100,o),
(600,160,o),
(600,400,cs),
(600,459,l),
(1124,459,ls),
(1395,459,o),
(1518,559,o),
(1518,780,cs),
(1518,1200,ls),
(1518,1398,o),
(1524,1420,o),
(1718,1420,c),
(1718,1500,l),
(548,1500,ls),
(329,1500,o),
(191,1396,o),
(191,1202,cs),
(191,400,ls),
(191,140,o),
(248,0,o),
(528,0,cs),
(846,0,ls),
(1059,0,o),
(1108,-42,o),
(1108,-222,cs),
(1108,-310,ls),
(1108,-542,o),
(1044,-600,o),
(834,-600,cs),
(630,-600,o),
(579,-606,o),
(579,-550,cs),
(579,-516,o),
(631,-494,o),
(631,-399,cs),
(631,-269,o),
(541,-182,o),
(405,-182,cs),
(275,-182,o),
(185,-272,o),
(185,-408,cs),
(185,-598,o),
(281,-700,o),
(679,-700,cs)
);
},
{
closed = 1;
nodes = (
(600,1175,ls),
(600,1354,o),
(655,1400,o),
(838,1400,cs),
(1118,1400,o),
(1108,1399,o),
(1108,1200,cs),
(1108,790,ls),
(1108,588,o),
(1075,559,o),
(848,559,cs),
(600,559,l)
);
}
);
userData = {
assembly = "PUSHW[ ]	/* 1 value pushed */
0 
CALL[ ]	/* CallFunction */
SVTCA[0]	/* SetFreedomAndProjectionVectorToAxis */
PUSHW[ ]	/* 1 value pushed */
0 
RCVT[ ]	/* ReadCVT */
IF[ ]	/* If */
PUSHW[ ]	/* 1 value pushed */
6 
MDAP[1]	/* MoveDirectAbsPt */
ELSE[ ]	/* Else */
PUSHW[ ]	/* 2 values pushed */
6 5 
MIAP[0]	/* MoveIndirectAbsPt */
EIF[ ]	/* EndIf */
PUSHW[ ]	/* 1 value pushed */
0 
RCVT[ ]	/* ReadCVT */
IF[ ]	/* If */
PUSHW[ ]	/* 1 value pushed */
13 
MDAP[1]	/* MoveDirectAbsPt */
ELSE[ ]	/* Else */
PUSHW[ ]	/* 2 values pushed */
13 5 
MIAP[0]	/* MoveIndirectAbsPt */
EIF[ ]	/* EndIf */
PUSHW[ ]	/* 1 value pushed */
0 
RCVT[ ]	/* ReadCVT */
IF[ ]	/* If */
PUSHW[ ]	/* 1 value pushed */
23 
MDAP[1]	/* MoveDirectAbsPt */
ELSE[ ]	/* Else */
PUSHW[ ]	/* 2 values pushed */
23 3 
MIAP[0]	/* MoveIndirectAbsPt */
EIF[ ]	/* EndIf */
PUSHW[ ]	/* 1 value pushed */
0 
RCVT[ ]	/* ReadCVT */
IF[ ]	/* If */
PUSHW[ ]	/* 1 value pushed */
35 
MDAP[1]	/* MoveDirectAbsPt */
ELSE[ ]	/* Else */
PUSHW[ ]	/* 2 values pushed */
35 1 
MIAP[0]	/* MoveIndirectAbsPt */
EIF[ ]	/* EndIf */
PUSHW[ ]	/* 1 value pushed */
13 
SRP0[ ]	/* SetRefPoint0 */
PUSHW[ ]	/* 1 value pushed */
15 
MDRP[11100]	/* MoveDirectRelPt */
PUSHW[ ]	/* 1 value pushed */
23 
SRP0[ ]	/* SetRefPoint0 */
PUSHW[ ]	/* 1 value pushed */
32 
MDRP[11100]	/* MoveDirectRelPt */
NPUSHW[ ]	/* 27 values pushed */
7 32 23 32 39 32 55 32 71 32 87 32 103 32 119 32 135 32 151 32 167 32 183 32 199 32 13 
DELTAP1[ ]	/* DeltaExceptionP1 */
NPUSHW[ ]	/* 5 values pushed */
214 32 230 32 2 
DELTAP1[ ]	/* DeltaExceptionP1 */
PUSHW[ ]	/* 1 value pushed */
35 
SRP0[ ]	/* SetRefPoint0 */
PUSHW[ ]	/* 1 value pushed */
41 
MDRP[11100]	/* MoveDirectRelPt */
NPUSHW[ ]	/* 27 values pushed */
7 41 23 41 39 41 55 41 71 41 87 41 103 41 119 41 135 41 151 41 167 41 183 41 199 41 13 
DELTAP1[ ]	/* DeltaExceptionP1 */
NPUSHW[ ]	/* 5 values pushed */
214 41 230 41 2 
DELTAP1[ ]	/* DeltaExceptionP1 */
PUSHW[ ]	/* 1 value pushed */
15 
SRP0[ ]	/* SetRefPoint0 */
PUSHW[ ]	/* 1 value pushed */
46 
MDRP[10000]	/* MoveDirectRelPt */
IUP[0]	/* InterpolateUntPts */
IUP[1]	/* InterpolateUntPts */";
};
width = 1743;
},
{
anchors = (
{
name = bottom;
pos = (865,-700);
},
{
name = top;
pos = (865,1500);
}
);
associatedMasterId = "E4BC606E-CD30-42C5-8BF2-1DD2ABB89119";
layerId = "21E13407-5C7C-4BEC-A85E-67F962567322";
name = "17 Dec 21, 00:06";
shapes = (
{
closed = 1;
nodes = (
(1135,-700,ls),
(1407,-700,o),
(1565,-536,o),
(1565,-230,cs),
(1565,1130,ls),
(1565,1371,o),
(1415,1500,o),
(1155,1500,cs),
(575,1500,ls),
(315,1500,o),
(165,1360,o),
(165,1100,cs),
(165,400,ls),
(165,140,o),
(312,0,o),
(575,0,cs),
(1295,0,l),
(1295,100,l),
(845,100,ls),
(640,100,o),
(575,160,o),
(575,400,cs),
(575,1100,ls),
(575,1340,o),
(633,1400,o),
(865,1400,cs),
(1103,1400,o),
(1155,1356,o),
(1155,1130,cs),
(1155,-230,ls),
(1155,-526,o),
(1091,-600,o),
(881,-600,cs),
(677,-600,o),
(626,-606,o),
(626,-550,cs),
(626,-516,o),
(678,-494,o),
(678,-399,cs),
(678,-269,o),
(588,-182,o),
(452,-182,cs),
(322,-182,o),
(232,-272,o),
(232,-408,cs),
(232,-598,o),
(328,-700,o),
(726,-700,cs)
);
}
);
userData = {
assembly = "PUSHW[ ]	/* 1 value pushed */
0 
CALL[ ]	/* CallFunction */
SVTCA[0]	/* SetFreedomAndProjectionVectorToAxis */
PUSHW[ ]	/* 1 value pushed */
0 
RCVT[ ]	/* ReadCVT */
IF[ ]	/* If */
PUSHW[ ]	/* 1 value pushed */
6 
MDAP[1]	/* MoveDirectAbsPt */
ELSE[ ]	/* Else */
PUSHW[ ]	/* 2 values pushed */
6 5 
MIAP[0]	/* MoveIndirectAbsPt */
EIF[ ]	/* EndIf */
PUSHW[ ]	/* 1 value pushed */
0 
RCVT[ ]	/* ReadCVT */
IF[ ]	/* If */
PUSHW[ ]	/* 1 value pushed */
13 
MDAP[1]	/* MoveDirectAbsPt */
ELSE[ ]	/* Else */
PUSHW[ ]	/* 2 values pushed */
13 5 
MIAP[0]	/* MoveIndirectAbsPt */
EIF[ ]	/* EndIf */
PUSHW[ ]	/* 1 value pushed */
0 
RCVT[ ]	/* ReadCVT */
IF[ ]	/* If */
PUSHW[ ]	/* 1 value pushed */
23 
MDAP[1]	/* MoveDirectAbsPt */
ELSE[ ]	/* Else */
PUSHW[ ]	/* 2 values pushed */
23 3 
MIAP[0]	/* MoveIndirectAbsPt */
EIF[ ]	/* EndIf */
PUSHW[ ]	/* 1 value pushed */
0 
RCVT[ ]	/* ReadCVT */
IF[ ]	/* If */
PUSHW[ ]	/* 1 value pushed */
35 
MDAP[1]	/* MoveDirectAbsPt */
ELSE[ ]	/* Else */
PUSHW[ ]	/* 2 values pushed */
35 1 
MIAP[0]	/* MoveIndirectAbsPt */
EIF[ ]	/* EndIf */
PUSHW[ ]	/* 1 value pushed */
13 
SRP0[ ]	/* SetRefPoint0 */
PUSHW[ ]	/* 1 value pushed */
15 
MDRP[11100]	/* MoveDirectRelPt */
PUSHW[ ]	/* 1 value pushed */
23 
SRP0[ ]	/* SetRefPoint0 */
PUSHW[ ]	/* 1 value pushed */
32 
MDRP[11100]	/* MoveDirectRelPt */
NPUSHW[ ]	/* 27 values pushed */
7 32 23 32 39 32 55 32 71 32 87 32 103 32 119 32 135 32 151 32 167 32 183 32 199 32 13 
DELTAP1[ ]	/* DeltaExceptionP1 */
NPUSHW[ ]	/* 5 values pushed */
214 32 230 32 2 
DELTAP1[ ]	/* DeltaExceptionP1 */
PUSHW[ ]	/* 1 value pushed */
35 
SRP0[ ]	/* SetRefPoint0 */
PUSHW[ ]	/* 1 value pushed */
41 
MDRP[11100]	/* MoveDirectRelPt */
NPUSHW[ ]	/* 27 values pushed */
7 41 23 41 39 41 55 41 71 41 87 41 103 41 119 41 135 41 151 41 167 41 183 41 199 41 13 
DELTAP1[ ]	/* DeltaExceptionP1 */
NPUSHW[ ]	/* 5 values pushed */
214 41 230 41 2 
DELTAP1[ ]	/* DeltaExceptionP1 */
PUSHW[ ]	/* 1 value pushed */
15 
SRP0[ ]	/* SetRefPoint0 */
PUSHW[ ]	/* 1 value pushed */
46 
MDRP[10000]	/* MoveDirectRelPt */
IUP[0]	/* InterpolateUntPts */
IUP[1]	/* InterpolateUntPts */";
};
width = 1730;
},
{
anchors = (
{
name = bottom;
pos = (865,-700);
},
{
name = top;
pos = (865,1500);
}
);
associatedMasterId = "E4BC606E-CD30-42C5-8BF2-1DD2ABB89119";
layerId = "884D1CA3-B795-433F-9BCF-1F540DC64DB3";
name = "17 Dec 21, 00:10";
shapes = (
{
closed = 1;
nodes = (
(1171,729,ls),
(1442,729,o),
(1565,829,o),
(1565,1050,cs),
(1565,1200,l),
(1565,1398,o),
(1571,1420,o),
(1765,1420,c),
(1765,1500,l),
(595,1500,ls),
(376,1500,o),
(238,1396,o),
(238,1202,cs),
(238,1050,ls),
(238,829,o),
(361,729,o),
(632,729,cs)
);
},
{
closed = 1;
nodes = (
(1135,-700,ls),
(1407,-700,o),
(1565,-536,o),
(1565,-230,cs),
(1565,100,l),
(1155,100,l),
(1155,-230,ls),
(1155,-526,o),
(1091,-600,o),
(881,-600,cs),
(677,-600,o),
(626,-606,o),
(626,-550,cs),
(626,-516,o),
(678,-494,o),
(678,-399,cs),
(678,-269,o),
(588,-182,o),
(452,-182,cs),
(322,-182,o),
(232,-272,o),
(232,-408,cs),
(232,-598,o),
(328,-700,o),
(726,-700,cs)
);
},
{
closed = 1;
nodes = (
(1295,0,l),
(1295,100,l),
(845,100,ls),
(616,100,o),
(647,160,o),
(647,400,cs),
(647,1067,l),
(237,1067,l),
(237,400,ls),
(237,140,o),
(295,0,o),
(575,0,cs)
);
},
{
closed = 1;
nodes = (
(679,829,o),
(648,858,o),
(648,1060,cs),
(648,1175,ls),
(648,1354,o),
(702,1400,o),
(885,1400,cs),
(1165,1400,o),
(1155,1399,o),
(1155,1200,cs),
(1155,1060,ls),
(1155,858,o),
(1122,829,o),
(895,829,cs)
);
}
);
userData = {
assembly = "PUSHW[ ]	/* 1 value pushed */
0 
CALL[ ]	/* CallFunction */
SVTCA[0]	/* SetFreedomAndProjectionVectorToAxis */
PUSHW[ ]	/* 1 value pushed */
0 
RCVT[ ]	/* ReadCVT */
IF[ ]	/* If */
PUSHW[ ]	/* 1 value pushed */
6 
MDAP[1]	/* MoveDirectAbsPt */
ELSE[ ]	/* Else */
PUSHW[ ]	/* 2 values pushed */
6 5 
MIAP[0]	/* MoveIndirectAbsPt */
EIF[ ]	/* EndIf */
PUSHW[ ]	/* 1 value pushed */
0 
RCVT[ ]	/* ReadCVT */
IF[ ]	/* If */
PUSHW[ ]	/* 1 value pushed */
13 
MDAP[1]	/* MoveDirectAbsPt */
ELSE[ ]	/* Else */
PUSHW[ ]	/* 2 values pushed */
13 5 
MIAP[0]	/* MoveIndirectAbsPt */
EIF[ ]	/* EndIf */
PUSHW[ ]	/* 1 value pushed */
0 
RCVT[ ]	/* ReadCVT */
IF[ ]	/* If */
PUSHW[ ]	/* 1 value pushed */
23 
MDAP[1]	/* MoveDirectAbsPt */
ELSE[ ]	/* Else */
PUSHW[ ]	/* 2 values pushed */
23 3 
MIAP[0]	/* MoveIndirectAbsPt */
EIF[ ]	/* EndIf */
PUSHW[ ]	/* 1 value pushed */
0 
RCVT[ ]	/* ReadCVT */
IF[ ]	/* If */
PUSHW[ ]	/* 1 value pushed */
35 
MDAP[1]	/* MoveDirectAbsPt */
ELSE[ ]	/* Else */
PUSHW[ ]	/* 2 values pushed */
35 1 
MIAP[0]	/* MoveIndirectAbsPt */
EIF[ ]	/* EndIf */
PUSHW[ ]	/* 1 value pushed */
13 
SRP0[ ]	/* SetRefPoint0 */
PUSHW[ ]	/* 1 value pushed */
15 
MDRP[11100]	/* MoveDirectRelPt */
PUSHW[ ]	/* 1 value pushed */
23 
SRP0[ ]	/* SetRefPoint0 */
PUSHW[ ]	/* 1 value pushed */
32 
MDRP[11100]	/* MoveDirectRelPt */
NPUSHW[ ]	/* 27 values pushed */
7 32 23 32 39 32 55 32 71 32 87 32 103 32 119 32 135 32 151 32 167 32 183 32 199 32 13 
DELTAP1[ ]	/* DeltaExceptionP1 */
NPUSHW[ ]	/* 5 values pushed */
214 32 230 32 2 
DELTAP1[ ]	/* DeltaExceptionP1 */
PUSHW[ ]	/* 1 value pushed */
35 
SRP0[ ]	/* SetRefPoint0 */
PUSHW[ ]	/* 1 value pushed */
41 
MDRP[11100]	/* MoveDirectRelPt */
NPUSHW[ ]	/* 27 values pushed */
7 41 23 41 39 41 55 41 71 41 87 41 103 41 119 41 135 41 151 41 167 41 183 41 199 41 13 
DELTAP1[ ]	/* DeltaExceptionP1 */
NPUSHW[ ]	/* 5 values pushed */
214 41 230 41 2 
DELTAP1[ ]	/* DeltaExceptionP1 */
PUSHW[ ]	/* 1 value pushed */
15 
SRP0[ ]	/* SetRefPoint0 */
PUSHW[ ]	/* 1 value pushed */
46 
MDRP[10000]	/* MoveDirectRelPt */
IUP[0]	/* InterpolateUntPts */
IUP[1]	/* InterpolateUntPts */";
};
width = 1730;
},
{
anchors = (
{
name = bottom;
pos = (818,-700);
},
{
name = top;
pos = (818,1500);
}
);
associatedMasterId = "E4BC606E-CD30-42C5-8BF2-1DD2ABB89119";
layerId = "72A13300-1E3A-4145-9314-EB8922CBD7D9";
name = "17 Dec 21, 00:13";
shapes = (
{
closed = 1;
nodes = (
(1088,-700,ls),
(1360,-700,o),
(1518,-536,o),
(1518,-230,cs),
(1518,100,l),
(798,100,ls),
(569,100,o),
(600,160,o),
(600,400,cs),
(600,459,l),
(1124,459,ls),
(1395,459,o),
(1518,559,o),
(1518,780,cs),
(1518,1200,ls),
(1518,1398,o),
(1524,1420,o),
(1718,1420,c),
(1718,1500,l),
(548,1500,ls),
(329,1500,o),
(191,1396,o),
(191,1202,cs),
(191,400,ls),
(191,140,o),
(248,0,o),
(528,0,cs),
(1108,0,l),
(1108,-230,ls),
(1108,-526,o),
(1044,-600,o),
(834,-600,cs),
(630,-600,o),
(579,-606,o),
(579,-550,cs),
(579,-516,o),
(631,-494,o),
(631,-399,cs),
(631,-269,o),
(541,-182,o),
(405,-182,cs),
(275,-182,o),
(185,-272,o),
(185,-408,cs),
(185,-598,o),
(281,-700,o),
(679,-700,cs)
);
},
{
closed = 1;
nodes = (
(600,1175,ls),
(600,1354,o),
(655,1400,o),
(838,1400,cs),
(1118,1400,o),
(1108,1399,o),
(1108,1200,cs),
(1108,790,ls),
(1108,588,o),
(1075,559,o),
(848,559,cs),
(600,559,l)
);
}
);
userData = {
assembly = "PUSHW[ ]	/* 1 value pushed */
0 
CALL[ ]	/* CallFunction */
SVTCA[0]	/* SetFreedomAndProjectionVectorToAxis */
PUSHW[ ]	/* 1 value pushed */
0 
RCVT[ ]	/* ReadCVT */
IF[ ]	/* If */
PUSHW[ ]	/* 1 value pushed */
6 
MDAP[1]	/* MoveDirectAbsPt */
ELSE[ ]	/* Else */
PUSHW[ ]	/* 2 values pushed */
6 5 
MIAP[0]	/* MoveIndirectAbsPt */
EIF[ ]	/* EndIf */
PUSHW[ ]	/* 1 value pushed */
0 
RCVT[ ]	/* ReadCVT */
IF[ ]	/* If */
PUSHW[ ]	/* 1 value pushed */
13 
MDAP[1]	/* MoveDirectAbsPt */
ELSE[ ]	/* Else */
PUSHW[ ]	/* 2 values pushed */
13 5 
MIAP[0]	/* MoveIndirectAbsPt */
EIF[ ]	/* EndIf */
PUSHW[ ]	/* 1 value pushed */
0 
RCVT[ ]	/* ReadCVT */
IF[ ]	/* If */
PUSHW[ ]	/* 1 value pushed */
23 
MDAP[1]	/* MoveDirectAbsPt */
ELSE[ ]	/* Else */
PUSHW[ ]	/* 2 values pushed */
23 3 
MIAP[0]	/* MoveIndirectAbsPt */
EIF[ ]	/* EndIf */
PUSHW[ ]	/* 1 value pushed */
0 
RCVT[ ]	/* ReadCVT */
IF[ ]	/* If */
PUSHW[ ]	/* 1 value pushed */
35 
MDAP[1]	/* MoveDirectAbsPt */
ELSE[ ]	/* Else */
PUSHW[ ]	/* 2 values pushed */
35 1 
MIAP[0]	/* MoveIndirectAbsPt */
EIF[ ]	/* EndIf */
PUSHW[ ]	/* 1 value pushed */
13 
SRP0[ ]	/* SetRefPoint0 */
PUSHW[ ]	/* 1 value pushed */
15 
MDRP[11100]	/* MoveDirectRelPt */
PUSHW[ ]	/* 1 value pushed */
23 
SRP0[ ]	/* SetRefPoint0 */
PUSHW[ ]	/* 1 value pushed */
32 
MDRP[11100]	/* MoveDirectRelPt */
NPUSHW[ ]	/* 27 values pushed */
7 32 23 32 39 32 55 32 71 32 87 32 103 32 119 32 135 32 151 32 167 32 183 32 199 32 13 
DELTAP1[ ]	/* DeltaExceptionP1 */
NPUSHW[ ]	/* 5 values pushed */
214 32 230 32 2 
DELTAP1[ ]	/* DeltaExceptionP1 */
PUSHW[ ]	/* 1 value pushed */
35 
SRP0[ ]	/* SetRefPoint0 */
PUSHW[ ]	/* 1 value pushed */
41 
MDRP[11100]	/* MoveDirectRelPt */
NPUSHW[ ]	/* 27 values pushed */
7 41 23 41 39 41 55 41 71 41 87 41 103 41 119 41 135 41 151 41 167 41 183 41 199 41 13 
DELTAP1[ ]	/* DeltaExceptionP1 */
NPUSHW[ ]	/* 5 values pushed */
214 41 230 41 2 
DELTAP1[ ]	/* DeltaExceptionP1 */
PUSHW[ ]	/* 1 value pushed */
15 
SRP0[ ]	/* SetRefPoint0 */
PUSHW[ ]	/* 1 value pushed */
46 
MDRP[10000]	/* MoveDirectRelPt */
IUP[0]	/* InterpolateUntPts */
IUP[1]	/* InterpolateUntPts */";
};
width = 1743;
}
);
note = g;
},
{
glyphname = h;
kernLeft = uni0412;
kernRight = uni0430;
lastChange = "2021-12-13 16:17:52 +0000";
layers = (
{
anchors = (
{
name = bottom;
pos = (1929,0);
},
{
name = top;
pos = (1929,1500);
}
);
background = {
shapes = (
{
closed = 1;
nodes = (
(79,1420,l),
(273,1420,o),
(279,1388,o),
(279,1100,cs),
(279,400,ls),
(279,120,o),
(256,80,o),
(99,80,c),
(99,0,l),
(889,0,l),
(889,80,l),
(705,80,o),
(679,120,o),
(679,400,cs),
(679,1100,ls),
(679,1370,o),
(726,1400,o),
(978,1400,cs),
(1188,1400,o),
(1248,1340,o),
(1248,1100,cs),
(1248,400,ls),
(1248,40,o),
(1288,0,o),
(1648,0,cs),
(1857,0,l),
(1857,80,l),
(1838,80,l),
(1708,80,o),
(1648,144,o),
(1648,400,cs),
(1648,1100,ls),
(1648,1360,o),
(1508,1500,o),
(1248,1500,cs),
(79,1500,l)
);
}
);
};
layerId = "E4BC606E-CD30-42C5-8BF2-1DD2ABB89119";
shapes = (
{
closed = 1;
nodes = (
(679,1863,o),
(759,1970,o),
(902,1970,c),
(902,2050,l),
(762,2050,ls),
(650,2050,o),
(558,2019,o),
(482,1947,c),
(410,2019,o),
(326,2050,o),
(222,2050,cs),
(52,2050,l),
(52,1970,l),
(198,1970,o),
(279,1863,o),
(279,1650,cs),
(279,400,ls),
(279,120,o),
(254,80,o),
(84,80,c),
(84,0,l),
(874,0,l),
(874,80,l),
(704,80,o),
(679,120,o),
(679,400,cs),
(679,1650,ls)
);
},
{
closed = 1;
nodes = (
(556,1400,l),
(968,1400,l),
(1178,1400,o),
(1238,1340,o),
(1238,1100,cs),
(1238,400,ls),
(1238,40,o),
(1278,0,o),
(1638,0,cs),
(1847,0,l),
(1847,80,l),
(1828,80,l),
(1698,80,o),
(1638,144,o),
(1638,400,cs),
(1638,1100,ls),
(1638,1360,o),
(1498,1500,o),
(1238,1500,cs),
(556,1500,l)
);
}
);
userData = {
assembly = "PUSHW[ ]	/* 1 value pushed */
0 
CALL[ ]	/* CallFunction */
SVTCA[0]	/* SetFreedomAndProjectionVectorToAxis */
PUSHW[ ]	/* 1 value pushed */
0 
RCVT[ ]	/* ReadCVT */
IF[ ]	/* If */
PUSHW[ ]	/* 1 value pushed */
14 
MDAP[1]	/* MoveDirectAbsPt */
ELSE[ ]	/* Else */
PUSHW[ ]	/* 2 values pushed */
14 5 
MIAP[0]	/* MoveIndirectAbsPt */
EIF[ ]	/* EndIf */
PUSHW[ ]	/* 1 value pushed */
0 
RCVT[ ]	/* ReadCVT */
IF[ ]	/* If */
PUSHW[ ]	/* 1 value pushed */
0 
MDAP[1]	/* MoveDirectAbsPt */
ELSE[ ]	/* Else */
PUSHW[ ]	/* 2 values pushed */
0 1 
MIAP[0]	/* MoveIndirectAbsPt */
EIF[ ]	/* EndIf */
PUSHW[ ]	/* 1 value pushed */
0 
RCVT[ ]	/* ReadCVT */
IF[ ]	/* If */
PUSHW[ ]	/* 1 value pushed */
24 
MDAP[1]	/* MoveDirectAbsPt */
ELSE[ ]	/* Else */
PUSHW[ ]	/* 2 values pushed */
24 1 
MIAP[0]	/* MoveIndirectAbsPt */
EIF[ ]	/* EndIf */
PUSHW[ ]	/* 1 value pushed */
0 
RCVT[ ]	/* ReadCVT */
IF[ ]	/* If */
PUSHW[ ]	/* 1 value pushed */
38 
MDAP[1]	/* MoveDirectAbsPt */
ELSE[ ]	/* Else */
PUSHW[ ]	/* 2 values pushed */
38 1 
MIAP[0]	/* MoveIndirectAbsPt */
EIF[ ]	/* EndIf */
PUSHW[ ]	/* 3 values pushed */
7 6 3 
CALL[ ]	/* CallFunction */
PUSHW[ ]	/* 1 value pushed */
0 
SRP0[ ]	/* SetRefPoint0 */
PUSHW[ ]	/* 1 value pushed */
1 
MDRP[11100]	/* MoveDirectRelPt */
PUSHW[ ]	/* 1 value pushed */
23 
MDRP[10000]	/* MoveDirectRelPt */
PUSHW[ ]	/* 1 value pushed */
14 
SRP0[ ]	/* SetRefPoint0 */
PUSHW[ ]	/* 1 value pushed */
33 
MDRP[11100]	/* MoveDirectRelPt */
PUSHW[ ]	/* 1 value pushed */
23 
SRP0[ ]	/* SetRefPoint0 */
PUSHW[ ]	/* 1 value pushed */
37 
MDRP[10000]	/* MoveDirectRelPt */
IUP[0]	/* InterpolateUntPts */
IUP[1]	/* InterpolateUntPts */";
};
width = 1899;
}
);
metricRight = n;
note = h;
unicode = 104;
},
{
glyphname = i;
kernLeft = uni0432;
kernRight = uni044F;
lastChange = "2021-12-18 00:09:34 +0000";
layers = (
{
anchors = (
{
name = bottom;
pos = (947,0);
}
);
background = {
shapes = (
{
closed = 1;
nodes = (
(444,2300,o),
(352,2264,o),
(286,2198,o),
(250,2106,o),
(250,2050,qs),
(250,1994,o),
(286,1902,o),
(352,1836,o),
(444,1800,o),
(500,1800,qs),
(556,1800,o),
(648,1836,o),
(714,1902,o),
(750,1994,o),
(750,2050,qs),
(750,2106,o),
(714,2198,o),
(648,2264,o),
(556,2300,o),
(500,2300,qs)
);
}
);
};
layerId = "E4BC606E-CD30-42C5-8BF2-1DD2ABB89119";
shapes = (
{
ref = idotless;
},
{
pos = (41,0);
ref = dotaccentcomb;
}
);
userData = {
assembly = "PUSHW[ ]	/* 1 value pushed */
0 
CALL[ ]	/* CallFunction */
SVTCA[0]	/* SetFreedomAndProjectionVectorToAxis */
PUSHW[ ]	/* 1 value pushed */
0 
RCVT[ ]	/* ReadCVT */
IF[ ]	/* If */
PUSHW[ ]	/* 1 value pushed */
7 
MDAP[1]	/* MoveDirectAbsPt */
ELSE[ ]	/* Else */
PUSHW[ ]	/* 2 values pushed */
7 5 
MIAP[0]	/* MoveIndirectAbsPt */
EIF[ ]	/* EndIf */
PUSHW[ ]	/* 1 value pushed */
0 
RCVT[ ]	/* ReadCVT */
IF[ ]	/* If */
PUSHW[ ]	/* 1 value pushed */
14 
MDAP[1]	/* MoveDirectAbsPt */
ELSE[ ]	/* Else */
PUSHW[ ]	/* 2 values pushed */
14 5 
MIAP[0]	/* MoveIndirectAbsPt */
EIF[ ]	/* EndIf */
PUSHW[ ]	/* 1 value pushed */
0 
RCVT[ ]	/* ReadCVT */
IF[ ]	/* If */
PUSHW[ ]	/* 1 value pushed */
0 
MDAP[1]	/* MoveDirectAbsPt */
ELSE[ ]	/* Else */
PUSHW[ ]	/* 2 values pushed */
0 1 
MIAP[0]	/* MoveIndirectAbsPt */
EIF[ ]	/* EndIf */
PUSHW[ ]	/* 1 value pushed */
0 
RCVT[ ]	/* ReadCVT */
IF[ ]	/* If */
PUSHW[ ]	/* 1 value pushed */
22 
MDAP[1]	/* MoveDirectAbsPt */
ELSE[ ]	/* Else */
PUSHW[ ]	/* 2 values pushed */
22 1 
MIAP[0]	/* MoveIndirectAbsPt */
EIF[ ]	/* EndIf */
PUSHW[ ]	/* 1 value pushed */
0 
SRP0[ ]	/* SetRefPoint0 */
PUSHW[ ]	/* 1 value pushed */
1 
MDRP[11100]	/* MoveDirectRelPt */
PUSHW[ ]	/* 1 value pushed */
7 
SRP0[ ]	/* SetRefPoint0 */
PUSHW[ ]	/* 1 value pushed */
6 
MDRP[11100]	/* MoveDirectRelPt */
PUSHW[ ]	/* 1 value pushed */
16 
MDRP[10000]	/* MoveDirectRelPt */
PUSHW[ ]	/* 1 value pushed */
1 
SRP0[ ]	/* SetRefPoint0 */
PUSHW[ ]	/* 1 value pushed */
21 
MDRP[10000]	/* MoveDirectRelPt */
IUP[0]	/* InterpolateUntPts */
IUP[1]	/* InterpolateUntPts */";
};
width = 1034;
}
);
note = i;
unicode = 105;
},
{
glyphname = i.ss03;
kernLeft = uni0432;
kernRight = uni044F;
lastChange = "2021-12-17 16:47:19 +0000";
layers = (
{
anchors = (
{
name = bottom;
pos = (947,0);
}
);
background = {
shapes = (
{
closed = 1;
nodes = (
(444,2300,o),
(352,2264,o),
(286,2198,o),
(250,2106,o),
(250,2050,qs),
(250,1994,o),
(286,1902,o),
(352,1836,o),
(444,1800,o),
(500,1800,qs),
(556,1800,o),
(648,1836,o),
(714,1902,o),
(750,1994,o),
(750,2050,qs),
(750,2106,o),
(714,2198,o),
(648,2264,o),
(556,2300,o),
(500,2300,qs)
);
}
);
};
layerId = "E4BC606E-CD30-42C5-8BF2-1DD2ABB89119";
shapes = (
{
ref = idotless.ss03;
},
{
pos = (20,0);
ref = dotaccentcomb;
}
);
userData = {
assembly = "PUSHW[ ]	/* 1 value pushed */
0 
CALL[ ]	/* CallFunction */
SVTCA[0]	/* SetFreedomAndProjectionVectorToAxis */
PUSHW[ ]	/* 1 value pushed */
0 
RCVT[ ]	/* ReadCVT */
IF[ ]	/* If */
PUSHW[ ]	/* 1 value pushed */
7 
MDAP[1]	/* MoveDirectAbsPt */
ELSE[ ]	/* Else */
PUSHW[ ]	/* 2 values pushed */
7 5 
MIAP[0]	/* MoveIndirectAbsPt */
EIF[ ]	/* EndIf */
PUSHW[ ]	/* 1 value pushed */
0 
RCVT[ ]	/* ReadCVT */
IF[ ]	/* If */
PUSHW[ ]	/* 1 value pushed */
14 
MDAP[1]	/* MoveDirectAbsPt */
ELSE[ ]	/* Else */
PUSHW[ ]	/* 2 values pushed */
14 5 
MIAP[0]	/* MoveIndirectAbsPt */
EIF[ ]	/* EndIf */
PUSHW[ ]	/* 1 value pushed */
0 
RCVT[ ]	/* ReadCVT */
IF[ ]	/* If */
PUSHW[ ]	/* 1 value pushed */
0 
MDAP[1]	/* MoveDirectAbsPt */
ELSE[ ]	/* Else */
PUSHW[ ]	/* 2 values pushed */
0 1 
MIAP[0]	/* MoveIndirectAbsPt */
EIF[ ]	/* EndIf */
PUSHW[ ]	/* 1 value pushed */
0 
RCVT[ ]	/* ReadCVT */
IF[ ]	/* If */
PUSHW[ ]	/* 1 value pushed */
22 
MDAP[1]	/* MoveDirectAbsPt */
ELSE[ ]	/* Else */
PUSHW[ ]	/* 2 values pushed */
22 1 
MIAP[0]	/* MoveIndirectAbsPt */
EIF[ ]	/* EndIf */
PUSHW[ ]	/* 1 value pushed */
0 
SRP0[ ]	/* SetRefPoint0 */
PUSHW[ ]	/* 1 value pushed */
1 
MDRP[11100]	/* MoveDirectRelPt */
PUSHW[ ]	/* 1 value pushed */
7 
SRP0[ ]	/* SetRefPoint0 */
PUSHW[ ]	/* 1 value pushed */
6 
MDRP[11100]	/* MoveDirectRelPt */
PUSHW[ ]	/* 1 value pushed */
16 
MDRP[10000]	/* MoveDirectRelPt */
PUSHW[ ]	/* 1 value pushed */
1 
SRP0[ ]	/* SetRefPoint0 */
PUSHW[ ]	/* 1 value pushed */
21 
MDRP[10000]	/* MoveDirectRelPt */
IUP[0]	/* InterpolateUntPts */
IUP[1]	/* InterpolateUntPts */";
};
width = 994;
}
);
note = i;
},
{
glyphname = idotless;
kernLeft = uni0432;
kernRight = uni044F;
lastChange = "2021-12-18 00:09:34 +0000";
layers = (
{
anchors = (
{
name = bottom;
pos = (517,0);
},
{
name = ogonek;
pos = (899,10);
},
{
name = top;
pos = (520,1500);
}
);
background = {
shapes = (
{
closed = 1;
nodes = (
(719,1310,o),
(792,1417,o),
(922,1417,c),
(922,1497,l),
(802,1497,ls),
(690,1497,o),
(595,1466,o),
(519,1394,c),
(447,1466,o),
(366,1497,o),
(262,1497,cs),
(112,1497,l),
(112,1417,l),
(245,1417,o),
(319,1310,o),
(319,1097,cs),
(319,400,ls),
(319,120,o),
(294,80,o),
(124,80,c),
(124,0,l),
(914,0,l),
(914,80,l),
(744,80,o),
(719,120,o),
(719,400,cs),
(719,1097,ls)
);
}
);
};
layerId = "E4BC606E-CD30-42C5-8BF2-1DD2ABB89119";
shapes = (
{
closed = 1;
nodes = (
(914,0,l),
(914,80,l),
(744,80,o),
(719,120,o),
(719,400,cs),
(719,1100,ls),
(719,1380,o),
(744,1420,o),
(914,1420,c),
(914,1500,l),
(124,1500,l),
(124,1420,l),
(294,1420,o),
(319,1380,o),
(319,1100,cs),
(319,400,ls),
(319,120,o),
(294,80,o),
(124,80,c),
(124,0,l)
);
}
);
userData = {
assembly = "PUSHW[ ]	/* 1 value pushed */
0 
CALL[ ]	/* CallFunction */
SVTCA[0]	/* SetFreedomAndProjectionVectorToAxis */
PUSHW[ ]	/* 1 value pushed */
0 
RCVT[ ]	/* ReadCVT */
IF[ ]	/* If */
PUSHW[ ]	/* 1 value pushed */
7 
MDAP[1]	/* MoveDirectAbsPt */
ELSE[ ]	/* Else */
PUSHW[ ]	/* 2 values pushed */
7 5 
MIAP[0]	/* MoveIndirectAbsPt */
EIF[ ]	/* EndIf */
PUSHW[ ]	/* 1 value pushed */
0 
RCVT[ ]	/* ReadCVT */
IF[ ]	/* If */
PUSHW[ ]	/* 1 value pushed */
14 
MDAP[1]	/* MoveDirectAbsPt */
ELSE[ ]	/* Else */
PUSHW[ ]	/* 2 values pushed */
14 5 
MIAP[0]	/* MoveIndirectAbsPt */
EIF[ ]	/* EndIf */
PUSHW[ ]	/* 1 value pushed */
0 
RCVT[ ]	/* ReadCVT */
IF[ ]	/* If */
PUSHW[ ]	/* 1 value pushed */
0 
MDAP[1]	/* MoveDirectAbsPt */
ELSE[ ]	/* Else */
PUSHW[ ]	/* 2 values pushed */
0 1 
MIAP[0]	/* MoveIndirectAbsPt */
EIF[ ]	/* EndIf */
PUSHW[ ]	/* 1 value pushed */
0 
RCVT[ ]	/* ReadCVT */
IF[ ]	/* If */
PUSHW[ ]	/* 1 value pushed */
22 
MDAP[1]	/* MoveDirectAbsPt */
ELSE[ ]	/* Else */
PUSHW[ ]	/* 2 values pushed */
22 1 
MIAP[0]	/* MoveIndirectAbsPt */
EIF[ ]	/* EndIf */
PUSHW[ ]	/* 1 value pushed */
0 
SRP0[ ]	/* SetRefPoint0 */
PUSHW[ ]	/* 1 value pushed */
1 
MDRP[11100]	/* MoveDirectRelPt */
PUSHW[ ]	/* 1 value pushed */
7 
SRP0[ ]	/* SetRefPoint0 */
PUSHW[ ]	/* 1 value pushed */
6 
MDRP[11100]	/* MoveDirectRelPt */
PUSHW[ ]	/* 1 value pushed */
16 
MDRP[10000]	/* MoveDirectRelPt */
PUSHW[ ]	/* 1 value pushed */
1 
SRP0[ ]	/* SetRefPoint0 */
PUSHW[ ]	/* 1 value pushed */
21 
MDRP[10000]	/* MoveDirectRelPt */
IUP[0]	/* InterpolateUntPts */
IUP[1]	/* InterpolateUntPts */";
};
width = 1034;
},
{
anchors = (
{
name = bottom;
pos = (497,0);
},
{
name = ogonek;
pos = (879,10);
},
{
name = top;
pos = (499,1500);
}
);
associatedMasterId = "E4BC606E-CD30-42C5-8BF2-1DD2ABB89119";
background = {
shapes = (
{
closed = 1;
nodes = (
(699,1310,o),
(772,1417,o),
(902,1417,c),
(902,1497,l),
(782,1497,ls),
(670,1497,o),
(575,1466,o),
(499,1394,c),
(427,1466,o),
(346,1497,o),
(242,1497,cs),
(92,1497,l),
(92,1417,l),
(225,1417,o),
(299,1310,o),
(299,1097,cs),
(299,400,ls),
(299,120,o),
(274,80,o),
(104,80,c),
(104,0,l),
(894,0,l),
(894,80,l),
(724,80,o),
(699,120,o),
(699,400,cs),
(699,1097,ls)
);
}
);
};
layerId = "5538025E-CC2C-4FEC-A0A1-DAD7144F8BDF";
name = "17 Dec 21, 17:17";
shapes = (
{
closed = 1;
nodes = (
(699,1310,o),
(772,1417,o),
(902,1417,c),
(902,1497,l),
(782,1497,ls),
(670,1497,o),
(575,1466,o),
(499,1394,c),
(427,1466,o),
(346,1497,o),
(242,1497,cs),
(92,1497,l),
(92,1417,l),
(225,1417,o),
(299,1310,o),
(299,1097,cs),
(299,400,ls),
(299,120,o),
(274,80,o),
(104,80,c),
(104,0,l),
(894,0,l),
(894,80,l),
(724,80,o),
(699,120,o),
(699,400,cs),
(699,1097,ls)
);
}
);
userData = {
assembly = "PUSHW[ ]	/* 1 value pushed */
0 
CALL[ ]	/* CallFunction */
SVTCA[0]	/* SetFreedomAndProjectionVectorToAxis */
PUSHW[ ]	/* 1 value pushed */
0 
RCVT[ ]	/* ReadCVT */
IF[ ]	/* If */
PUSHW[ ]	/* 1 value pushed */
7 
MDAP[1]	/* MoveDirectAbsPt */
ELSE[ ]	/* Else */
PUSHW[ ]	/* 2 values pushed */
7 5 
MIAP[0]	/* MoveIndirectAbsPt */
EIF[ ]	/* EndIf */
PUSHW[ ]	/* 1 value pushed */
0 
RCVT[ ]	/* ReadCVT */
IF[ ]	/* If */
PUSHW[ ]	/* 1 value pushed */
14 
MDAP[1]	/* MoveDirectAbsPt */
ELSE[ ]	/* Else */
PUSHW[ ]	/* 2 values pushed */
14 5 
MIAP[0]	/* MoveIndirectAbsPt */
EIF[ ]	/* EndIf */
PUSHW[ ]	/* 1 value pushed */
0 
RCVT[ ]	/* ReadCVT */
IF[ ]	/* If */
PUSHW[ ]	/* 1 value pushed */
0 
MDAP[1]	/* MoveDirectAbsPt */
ELSE[ ]	/* Else */
PUSHW[ ]	/* 2 values pushed */
0 1 
MIAP[0]	/* MoveIndirectAbsPt */
EIF[ ]	/* EndIf */
PUSHW[ ]	/* 1 value pushed */
0 
RCVT[ ]	/* ReadCVT */
IF[ ]	/* If */
PUSHW[ ]	/* 1 value pushed */
22 
MDAP[1]	/* MoveDirectAbsPt */
ELSE[ ]	/* Else */
PUSHW[ ]	/* 2 values pushed */
22 1 
MIAP[0]	/* MoveIndirectAbsPt */
EIF[ ]	/* EndIf */
PUSHW[ ]	/* 1 value pushed */
0 
SRP0[ ]	/* SetRefPoint0 */
PUSHW[ ]	/* 1 value pushed */
1 
MDRP[11100]	/* MoveDirectRelPt */
PUSHW[ ]	/* 1 value pushed */
7 
SRP0[ ]	/* SetRefPoint0 */
PUSHW[ ]	/* 1 value pushed */
6 
MDRP[11100]	/* MoveDirectRelPt */
PUSHW[ ]	/* 1 value pushed */
16 
MDRP[10000]	/* MoveDirectRelPt */
PUSHW[ ]	/* 1 value pushed */
1 
SRP0[ ]	/* SetRefPoint0 */
PUSHW[ ]	/* 1 value pushed */
21 
MDRP[10000]	/* MoveDirectRelPt */
IUP[0]	/* InterpolateUntPts */
IUP[1]	/* InterpolateUntPts */";
};
width = 994;
}
);
note = i;
unicode = 305;
},
{
glyphname = idotless.ss03;
kernLeft = uni0432;
kernRight = uni044F;
lastChange = "2021-12-17 16:45:51 +0000";
layers = (
{
anchors = (
{
name = bottom;
pos = (497,0);
},
{
name = ogonek;
pos = (879,10);
},
{
name = top;
pos = (499,1500);
}
);
background = {
shapes = (
{
closed = 1;
nodes = (
(699,1310,o),
(772,1417,o),
(902,1417,c),
(902,1497,l),
(782,1497,ls),
(670,1497,o),
(575,1466,o),
(499,1394,c),
(427,1466,o),
(346,1497,o),
(242,1497,cs),
(92,1497,l),
(92,1417,l),
(225,1417,o),
(299,1310,o),
(299,1097,cs),
(299,400,ls),
(299,120,o),
(274,80,o),
(104,80,c),
(104,0,l),
(894,0,l),
(894,80,l),
(724,80,o),
(699,120,o),
(699,400,cs),
(699,1097,ls)
);
}
);
};
layerId = "E4BC606E-CD30-42C5-8BF2-1DD2ABB89119";
shapes = (
{
closed = 1;
nodes = (
(699,1310,o),
(772,1417,o),
(902,1417,c),
(902,1497,l),
(782,1497,ls),
(670,1497,o),
(575,1466,o),
(499,1394,c),
(427,1466,o),
(346,1497,o),
(242,1497,cs),
(92,1497,l),
(92,1417,l),
(225,1417,o),
(299,1310,o),
(299,1097,cs),
(299,400,ls),
(299,120,o),
(274,80,o),
(104,80,c),
(104,0,l),
(894,0,l),
(894,80,l),
(724,80,o),
(699,120,o),
(699,400,cs),
(699,1097,ls)
);
}
);
userData = {
assembly = "PUSHW[ ]	/* 1 value pushed */
0 
CALL[ ]	/* CallFunction */
SVTCA[0]	/* SetFreedomAndProjectionVectorToAxis */
PUSHW[ ]	/* 1 value pushed */
0 
RCVT[ ]	/* ReadCVT */
IF[ ]	/* If */
PUSHW[ ]	/* 1 value pushed */
7 
MDAP[1]	/* MoveDirectAbsPt */
ELSE[ ]	/* Else */
PUSHW[ ]	/* 2 values pushed */
7 5 
MIAP[0]	/* MoveIndirectAbsPt */
EIF[ ]	/* EndIf */
PUSHW[ ]	/* 1 value pushed */
0 
RCVT[ ]	/* ReadCVT */
IF[ ]	/* If */
PUSHW[ ]	/* 1 value pushed */
14 
MDAP[1]	/* MoveDirectAbsPt */
ELSE[ ]	/* Else */
PUSHW[ ]	/* 2 values pushed */
14 5 
MIAP[0]	/* MoveIndirectAbsPt */
EIF[ ]	/* EndIf */
PUSHW[ ]	/* 1 value pushed */
0 
RCVT[ ]	/* ReadCVT */
IF[ ]	/* If */
PUSHW[ ]	/* 1 value pushed */
0 
MDAP[1]	/* MoveDirectAbsPt */
ELSE[ ]	/* Else */
PUSHW[ ]	/* 2 values pushed */
0 1 
MIAP[0]	/* MoveIndirectAbsPt */
EIF[ ]	/* EndIf */
PUSHW[ ]	/* 1 value pushed */
0 
RCVT[ ]	/* ReadCVT */
IF[ ]	/* If */
PUSHW[ ]	/* 1 value pushed */
22 
MDAP[1]	/* MoveDirectAbsPt */
ELSE[ ]	/* Else */
PUSHW[ ]	/* 2 values pushed */
22 1 
MIAP[0]	/* MoveIndirectAbsPt */
EIF[ ]	/* EndIf */
PUSHW[ ]	/* 1 value pushed */
0 
SRP0[ ]	/* SetRefPoint0 */
PUSHW[ ]	/* 1 value pushed */
1 
MDRP[11100]	/* MoveDirectRelPt */
PUSHW[ ]	/* 1 value pushed */
7 
SRP0[ ]	/* SetRefPoint0 */
PUSHW[ ]	/* 1 value pushed */
6 
MDRP[11100]	/* MoveDirectRelPt */
PUSHW[ ]	/* 1 value pushed */
16 
MDRP[10000]	/* MoveDirectRelPt */
PUSHW[ ]	/* 1 value pushed */
1 
SRP0[ ]	/* SetRefPoint0 */
PUSHW[ ]	/* 1 value pushed */
21 
MDRP[10000]	/* MoveDirectRelPt */
IUP[0]	/* InterpolateUntPts */
IUP[1]	/* InterpolateUntPts */";
};
width = 994;
},
{
anchors = (
{
name = bottom;
pos = (497,0);
},
{
name = ogonek;
pos = (879,10);
},
{
name = top;
pos = (499,1500);
}
);
associatedMasterId = "E4BC606E-CD30-42C5-8BF2-1DD2ABB89119";
background = {
shapes = (
{
closed = 1;
nodes = (
(699,1310,o),
(772,1417,o),
(902,1417,c),
(902,1497,l),
(782,1497,ls),
(670,1497,o),
(575,1466,o),
(499,1394,c),
(427,1466,o),
(346,1497,o),
(242,1497,cs),
(92,1497,l),
(92,1417,l),
(225,1417,o),
(299,1310,o),
(299,1097,cs),
(299,400,ls),
(299,120,o),
(274,80,o),
(104,80,c),
(104,0,l),
(894,0,l),
(894,80,l),
(724,80,o),
(699,120,o),
(699,400,cs),
(699,1097,ls)
);
}
);
};
layerId = "5538025E-CC2C-4FEC-A0A1-DAD7144F8BDF";
name = "17 Dec 21, 17:17";
shapes = (
{
closed = 1;
nodes = (
(699,1310,o),
(772,1417,o),
(902,1417,c),
(902,1497,l),
(782,1497,ls),
(670,1497,o),
(575,1466,o),
(499,1394,c),
(427,1466,o),
(346,1497,o),
(242,1497,cs),
(92,1497,l),
(92,1417,l),
(225,1417,o),
(299,1310,o),
(299,1097,cs),
(299,400,ls),
(299,120,o),
(274,80,o),
(104,80,c),
(104,0,l),
(894,0,l),
(894,80,l),
(724,80,o),
(699,120,o),
(699,400,cs),
(699,1097,ls)
);
}
);
userData = {
assembly = "PUSHW[ ]	/* 1 value pushed */
0 
CALL[ ]	/* CallFunction */
SVTCA[0]	/* SetFreedomAndProjectionVectorToAxis */
PUSHW[ ]	/* 1 value pushed */
0 
RCVT[ ]	/* ReadCVT */
IF[ ]	/* If */
PUSHW[ ]	/* 1 value pushed */
7 
MDAP[1]	/* MoveDirectAbsPt */
ELSE[ ]	/* Else */
PUSHW[ ]	/* 2 values pushed */
7 5 
MIAP[0]	/* MoveIndirectAbsPt */
EIF[ ]	/* EndIf */
PUSHW[ ]	/* 1 value pushed */
0 
RCVT[ ]	/* ReadCVT */
IF[ ]	/* If */
PUSHW[ ]	/* 1 value pushed */
14 
MDAP[1]	/* MoveDirectAbsPt */
ELSE[ ]	/* Else */
PUSHW[ ]	/* 2 values pushed */
14 5 
MIAP[0]	/* MoveIndirectAbsPt */
EIF[ ]	/* EndIf */
PUSHW[ ]	/* 1 value pushed */
0 
RCVT[ ]	/* ReadCVT */
IF[ ]	/* If */
PUSHW[ ]	/* 1 value pushed */
0 
MDAP[1]	/* MoveDirectAbsPt */
ELSE[ ]	/* Else */
PUSHW[ ]	/* 2 values pushed */
0 1 
MIAP[0]	/* MoveIndirectAbsPt */
EIF[ ]	/* EndIf */
PUSHW[ ]	/* 1 value pushed */
0 
RCVT[ ]	/* ReadCVT */
IF[ ]	/* If */
PUSHW[ ]	/* 1 value pushed */
22 
MDAP[1]	/* MoveDirectAbsPt */
ELSE[ ]	/* Else */
PUSHW[ ]	/* 2 values pushed */
22 1 
MIAP[0]	/* MoveIndirectAbsPt */
EIF[ ]	/* EndIf */
PUSHW[ ]	/* 1 value pushed */
0 
SRP0[ ]	/* SetRefPoint0 */
PUSHW[ ]	/* 1 value pushed */
1 
MDRP[11100]	/* MoveDirectRelPt */
PUSHW[ ]	/* 1 value pushed */
7 
SRP0[ ]	/* SetRefPoint0 */
PUSHW[ ]	/* 1 value pushed */
6 
MDRP[11100]	/* MoveDirectRelPt */
PUSHW[ ]	/* 1 value pushed */
16 
MDRP[10000]	/* MoveDirectRelPt */
PUSHW[ ]	/* 1 value pushed */
1 
SRP0[ ]	/* SetRefPoint0 */
PUSHW[ ]	/* 1 value pushed */
21 
MDRP[10000]	/* MoveDirectRelPt */
IUP[0]	/* InterpolateUntPts */
IUP[1]	/* InterpolateUntPts */";
};
width = 994;
}
);
note = i;
},
{
glyphname = jdotless;
kernLeft = uni0443;
kernRight = uni0443;
lastChange = "2021-12-18 00:09:50 +0000";
layers = (
{
anchors = (
{
name = bottom;
pos = (967,0);
},
{
name = top;
pos = (517,1500);
}
);
layerId = "E4BC606E-CD30-42C5-8BF2-1DD2ABB89119";
shapes = (
{
closed = 1;
nodes = (
(399,-700,ls),
(637,-700,o),
(719,-603,o),
(719,-300,cs),
(719,1100,ls),
(719,1380,o),
(744,1420,o),
(914,1420,c),
(914,1500,l),
(124,1500,l),
(124,1420,l),
(294,1420,o),
(319,1380,o),
(319,1100,cs),
(319,-300,ls),
(319,-513,o),
(246,-620,o),
(99,-620,c),
(99,-700,l)
);
}
);
userData = {
assembly = "PUSHW[ ]	/* 1 value pushed */
0 
CALL[ ]	/* CallFunction */
SVTCA[0]	/* SetFreedomAndProjectionVectorToAxis */
PUSHW[ ]	/* 1 value pushed */
0 
RCVT[ ]	/* ReadCVT */
IF[ ]	/* If */
PUSHW[ ]	/* 1 value pushed */
0 
MDAP[1]	/* MoveDirectAbsPt */
ELSE[ ]	/* Else */
PUSHW[ ]	/* 2 values pushed */
0 5 
MIAP[0]	/* MoveIndirectAbsPt */
EIF[ ]	/* EndIf */
PUSHW[ ]	/* 1 value pushed */
0 
RCVT[ ]	/* ReadCVT */
IF[ ]	/* If */
PUSHW[ ]	/* 1 value pushed */
6 
MDAP[1]	/* MoveDirectAbsPt */
ELSE[ ]	/* Else */
PUSHW[ ]	/* 2 values pushed */
6 5 
MIAP[0]	/* MoveIndirectAbsPt */
EIF[ ]	/* EndIf */
PUSHW[ ]	/* 1 value pushed */
0 
RCVT[ ]	/* ReadCVT */
IF[ ]	/* If */
PUSHW[ ]	/* 1 value pushed */
16 
MDAP[1]	/* MoveDirectAbsPt */
ELSE[ ]	/* Else */
PUSHW[ ]	/* 2 values pushed */
16 3 
MIAP[0]	/* MoveIndirectAbsPt */
EIF[ ]	/* EndIf */
PUSHW[ ]	/* 1 value pushed */
6 
SRP0[ ]	/* SetRefPoint0 */
PUSHW[ ]	/* 1 value pushed */
8 
MDRP[11100]	/* MoveDirectRelPt */
PUSHW[ ]	/* 1 value pushed */
16 
SRP0[ ]	/* SetRefPoint0 */
PUSHW[ ]	/* 1 value pushed */
18 
MDRP[11100]	/* MoveDirectRelPt */
PUSHW[ ]	/* 1 value pushed */
8 
SRP0[ ]	/* SetRefPoint0 */
PUSHW[ ]	/* 1 value pushed */
23 
MDRP[10000]	/* MoveDirectRelPt */
IUP[0]	/* InterpolateUntPts */
IUP[1]	/* InterpolateUntPts */";
};
width = 1021;
}
);
note = j;
unicode = 567;
},
{
glyphname = jdotless.ss03;
kernLeft = uni0443;
kernRight = uni0443;
lastChange = "2021-12-17 16:45:51 +0000";
layers = (
{
anchors = (
{
name = bottom;
pos = (947,0);
},
{
name = top;
pos = (497,1500);
}
);
layerId = "E4BC606E-CD30-42C5-8BF2-1DD2ABB89119";
shapes = (
{
closed = 1;
nodes = (
(379,-700,ls),
(617,-700,o),
(699,-603,o),
(699,-300,cs),
(699,1097,ls),
(699,1310,o),
(772,1417,o),
(902,1417,c),
(902,1497,l),
(782,1497,ls),
(670,1497,o),
(575,1466,o),
(499,1394,c),
(427,1466,o),
(346,1497,o),
(242,1497,cs),
(92,1497,l),
(92,1417,l),
(225,1417,o),
(299,1310,o),
(299,1097,cs),
(299,-300,ls),
(299,-513,o),
(226,-620,o),
(79,-620,c),
(79,-700,l)
);
}
);
userData = {
assembly = "PUSHW[ ]	/* 1 value pushed */
0 
CALL[ ]	/* CallFunction */
SVTCA[0]	/* SetFreedomAndProjectionVectorToAxis */
PUSHW[ ]	/* 1 value pushed */
0 
RCVT[ ]	/* ReadCVT */
IF[ ]	/* If */
PUSHW[ ]	/* 1 value pushed */
0 
MDAP[1]	/* MoveDirectAbsPt */
ELSE[ ]	/* Else */
PUSHW[ ]	/* 2 values pushed */
0 5 
MIAP[0]	/* MoveIndirectAbsPt */
EIF[ ]	/* EndIf */
PUSHW[ ]	/* 1 value pushed */
0 
RCVT[ ]	/* ReadCVT */
IF[ ]	/* If */
PUSHW[ ]	/* 1 value pushed */
6 
MDAP[1]	/* MoveDirectAbsPt */
ELSE[ ]	/* Else */
PUSHW[ ]	/* 2 values pushed */
6 5 
MIAP[0]	/* MoveIndirectAbsPt */
EIF[ ]	/* EndIf */
PUSHW[ ]	/* 1 value pushed */
0 
RCVT[ ]	/* ReadCVT */
IF[ ]	/* If */
PUSHW[ ]	/* 1 value pushed */
16 
MDAP[1]	/* MoveDirectAbsPt */
ELSE[ ]	/* Else */
PUSHW[ ]	/* 2 values pushed */
16 3 
MIAP[0]	/* MoveIndirectAbsPt */
EIF[ ]	/* EndIf */
PUSHW[ ]	/* 1 value pushed */
6 
SRP0[ ]	/* SetRefPoint0 */
PUSHW[ ]	/* 1 value pushed */
8 
MDRP[11100]	/* MoveDirectRelPt */
PUSHW[ ]	/* 1 value pushed */
16 
SRP0[ ]	/* SetRefPoint0 */
PUSHW[ ]	/* 1 value pushed */
18 
MDRP[11100]	/* MoveDirectRelPt */
PUSHW[ ]	/* 1 value pushed */
8 
SRP0[ ]	/* SetRefPoint0 */
PUSHW[ ]	/* 1 value pushed */
23 
MDRP[10000]	/* MoveDirectRelPt */
IUP[0]	/* InterpolateUntPts */
IUP[1]	/* InterpolateUntPts */";
};
width = 981;
}
);
note = j;
},
